<?xml version="1.0" encoding="utf-8"?>
<svg version="1.1" id="plan-plant" xmlns="http://www.w3.org/2000/svg" xmlns:xlink="http://www.w3.org/1999/xlink" x="0px" y="0px"
	 viewBox="0 0 10 10" style="enable-background:new 0 0 10 10;" xml:space="preserve">
<style type="text/css">
	.st0{fill:#354052;}
</style>
<circle class="st0" cx="5" cy="5" r="0.4"/>
<path class="st0" d="M6.2,0C5.2,1.1,4.1,2.5,5,4C5.3,2.7,7.6,2.5,6.2,0z"/>
<path class="st0" d="M4.4,0.4C4.2,1,3.9,1.7,4.5,2.2C4.4,1.7,5.3,1.3,4.4,0.4z"/>
<path class="st0" d="M5.6,9.5c0.3-0.6,0.5-1.3-0.1-1.8C5.6,8.3,4.7,8.7,5.6,9.5z"/>
<path class="st0" d="M9.6,4.4C9,4.1,8.3,3.9,7.8,4.5C8.3,4.4,8.7,5.3,9.6,4.4z"/>
<path class="st0" d="M0.5,5.5c0.5,0.3,1.3,0.6,1.7,0C1.7,5.5,1.3,4.7,0.5,5.5z"/>
<path class="st0" d="M7.8,1.4C7.2,1.6,6.5,1.9,6.6,2.7C7,2.2,7.9,2.6,7.8,1.4z"/>
<path class="st0" d="M2.2,8.6c0.6-0.2,1.3-0.5,1.2-1.3C3.1,7.7,2.2,7.4,2.2,8.6z"/>
<path class="st0" d="M8.6,7.8C8.4,7.2,8.1,6.5,7.3,6.6C7.8,6.9,7.4,7.8,8.6,7.8z"/>
<path class="st0" d="M1.4,2.2c0.2,0.6,0.5,1.3,1.3,1.2C2.3,3,2.6,2.1,1.4,2.2z"/>
<path class="st0" d="M3.8,10c1-1.1,2.1-2.5,1.2-4C4.7,7.3,2.5,7.5,3.8,10z"/>
<path class="st0" d="M10,6.2C8.9,5.2,7.5,4.1,6,5C7.3,5.3,7.5,7.5,10,6.2z"/>
<path class="st0" d="M0,3.8c1.1,1,2.5,2.1,4,1.2C2.8,4.7,2.5,2.5,0,3.8z"/>
<path class="st0" d="M9.4,2.3c-1.5,0.1-3.3,0.3-3.6,2C6.8,3.6,8.6,5,9.4,2.3z"/>
<path class="st0" d="M0.6,7.7c1.5-0.1,3.3-0.3,3.6-2C3.2,6.4,1.4,5,0.6,7.7z"/>
<path class="st0" d="M7.7,9.4c-0.1-1.5-0.3-3.3-2-3.6C6.4,6.8,5,8.6,7.7,9.4z"/>
<path class="st0" d="M2.3,0.6c0.1,1.5,0.3,3.3,2,3.6C3.6,3.2,5,1.4,2.3,0.6z"/>
</svg>
