<?xml version="1.0" encoding="utf-8"?>
<!-- Generator: Adobe Illustrator 21.1.0, SVG Export Plug-In . SVG Version: 6.00 Build 0)  -->
<svg version="1.1" id="Слой_1" xmlns="http://www.w3.org/2000/svg" xmlns:xlink="http://www.w3.org/1999/xlink" x="0px" y="0px"
	 viewBox="0 0 35 35" style="enable-background:new 0 0 35 35;" xml:space="preserve">
<g>
	<g>
		<rect x="18.4" y="18.2" width="5.5" height="16.9"/>
		<rect x="6.6" y="18.2" width="2.8" height="16.9"/>
		<path d="M29.1,0.2L29.1,0.2l-23.3,0l0,0C2.6,0.3,0,3,0,6.3c0,3.2,2.4,5.8,5.5,6.1c1.2,0,3.7-0.3,3.9-3c0.1-1.7-1.2-3.1-2.9-3.2
			l0.1-1.7C7.8,4.6,9,5.1,9.8,6c0.9,0.9,1.3,2.2,1.3,3.4C11,12,9.3,13.7,6.6,14v2.5h21.8v-2.4c-1-0.1-2-0.4-2.7-1
			c-1.2-0.8-1.9-2.1-1.9-3.6C23.7,8.2,24.2,7,25,6c0.9-0.9,2-1.5,3.3-1.5l0.1,1.7c-0.8,0-1.5,0.4-2.1,1c-0.5,0.6-0.8,1.4-0.8,2.2
			c0,1,0.4,1.8,1.2,2.3c0.7,0.5,1.6,0.7,2.6,0.7c3.2-0.2,5.7-2.8,5.7-6.1C35,3,32.4,0.3,29.1,0.2z"/>
		<rect x="25.6" y="18.2" width="2.8" height="16.9"/>
		<rect x="11.1" y="18.2" width="5.5" height="16.9"/>
	</g>
</g>
</svg>
