<?xml version="1.0" encoding="utf-8"?>
<!-- Generator: Adobe Illustrator 21.1.0, SVG Export Plug-In . SVG Version: 6.00 Build 0)  -->
<svg version="1.1" id="oops-man" xmlns="http://www.w3.org/2000/svg" xmlns:xlink="http://www.w3.org/1999/xlink" x="0px" y="0px"
	 viewBox="0 0 474.1 726" style="enable-background:new 0 0 474.1 726;" xml:space="preserve">
<style type="text/css">
	.st0{fill:#BED0D9;}
	.st1{fill:#D5E2E8;}
	.st2{fill:#CADBE4;}
	.st3{fill:#E0E9F0;}
	.st4{fill:#B1C6CF;}
	.st5{fill:#B0BEBF;}
	.st6{fill:#ACBBC2;}
	.st7{fill:#828688;}
	.st8{fill:#3A3C3B;}
	.st9{fill:#A0A5A8;}
	.st10{fill:#A5B0DE;}
	.st11{fill:#ADB7BC;}
</style>
<path class="st0" d="M452.5,601c-32.1,30.2-121.7,17-208.3,4.3c-36-5.3-70-10.3-97.3-11.7c-34.8-1.8-46.9,3.2-50.8,7.6
	c-1.2,1.3-2.3,3.3-1.6,7.5c0,0.2,0.1,0.4,0.1,0.6c0.2,0.9,0.5,1.8,0.9,2.7c1.2,2.7,3.5,5.2,6.5,7.5c0.5,0.4,1,0.8,1.5,1.1
	c0,0,0.1,0,0.1,0.1c0.3,0.2,0.5,0.3,0.8,0.5c0.3,0.2,0.6,0.4,0.8,0.6c2.6,1.7,5.6,3.2,8.9,4.7c0.4,0.2,0.7,0.3,1.1,0.5
	c1,0.4,2,0.9,3,1.3c0.2,0.1,0.3,0.1,0.5,0.2c0.4,0.2,0.8,0.3,1.2,0.5c0.4,0.2,0.8,0.3,1.2,0.5c0.7,0.3,1.4,0.5,2.1,0.8l0.4,0.1
	c1.1,0.4,2.3,0.8,3.5,1.3c2.7,0.9,5.6,1.9,8.5,2.8c0.8,0.3,1.7,0.5,2.5,0.8c1,0.3,2.1,0.6,3.1,0.9c0.5,0.2,1,0.3,1.4,0.4
	c6.2,1.8,12.7,3.6,19.1,5.3c37.5,10.2,79.9,21.8,100.1,48.9c0,0.1,0.1,0.1,0.1,0.1c0.4,0.5,0.8,1,1.1,1.6c0.4,0.5,0.7,1.1,1.1,1.6
	c3.2,5,5.3,10.5,6.4,16.3c0,0,0,0,0,0.1c0.7,3.6,0.9,7.2,0.7,10.9l-0.2,4.4c-0.8-1.3-14.7-23.2-15.5-24.5
	c-11-17.5-62.2-34.3-97.5-44c-39.8-10.9-74.1-20.2-78.2-46c-1.7-10.6,2.1-17.5,5.6-21.4c18.1-20.4,72.8-13.6,160.6-0.7
	c41.4,6.1,84.2,12.4,120.4,13.7c39,1.4,64.6-3.4,76.2-14.3c14.4-13.5,19.8-31.4,14.8-49c-4.2-15-15.5-28.9-32.6-40.1
	c-20.4-13.4-47.6-22.3-81-26.5c-4-0.5-9.5-1.1-15.9-1.7C247.6,463.4,2.3,438.1,0,260.2c-0.4-27.8,8.6-49.2,26.6-63.6
	c60.9-48.6,206.1,3,212.3,5.2l-4.6,15.2c-1.4-0.5-144.2-51.2-199-7.5c-14.1,11.3-20.8,27.8-20.6,50.5
	c2.1,163.6,237.5,187.8,314.9,195.8c6.4,0.7,12,1.2,16.2,1.8c35.4,4.5,64.7,14.1,86.9,28.7c20.2,13.3,33.7,30.2,39,49.1
	C478.3,558.8,471.2,583.4,452.5,601z"/>
<path class="st1" d="M26.9,200.4c58.6-46.8,195.3-0.7,211,4.8l1-3.4c-6.2-2.2-151.4-53.8-212.3-5.2C8.6,210.9-0.3,232.3,0,260.2
	c0.1,4.3,0.3,8.4,0.6,12.5c-0.2-2.9-0.3-5.8-0.3-8.7C-0.1,236.2,8.9,214.8,26.9,200.4z"/>
<path class="st1" d="M442.9,588.9c-11.6,10.9-37.3,15.7-76.2,14.3c-36.2-1.3-79-7.6-120.4-13.7c-87.8-12.9-142.5-19.8-160.7,0.7
	c-3.3,3.8-7,10.3-5.7,20.4c-0.1-7.9,3.1-13.3,5.9-16.5c18.1-20.4,72.9-13.6,160.7-0.7c41.4,6.1,84.2,12.4,120.4,13.7
	c39,1.4,64.6-3.4,76.2-14.3c12.2-11.5,17.9-26.2,16.3-41.1C459.8,565.2,454.1,578.4,442.9,588.9z"/>
<path class="st1" d="M471.7,535.2c-5.3-18.8-18.8-35.8-39-49.1c-22.2-14.6-51.4-24.2-86.9-28.7c-4.2-0.5-9.7-1.1-16.2-1.8
	c-75.6-7.8-301.9-31-314.4-184.5c9,156.9,238.5,180.5,314.6,188.4c6.4,0.7,12,1.2,16.2,1.8c35.4,4.5,64.7,14.1,86.9,28.7
	c20.2,13.3,33.7,30.2,39,49.1c1,3.7,1.7,7.4,2.1,11.1C473.9,545.1,473.1,540.2,471.7,535.2z"/>
<path class="st1" d="M264.2,694.2C264.2,694.3,264.2,694.3,264.2,694.2c-0.3-0.5-0.7-1-1.1-1.6C263.4,693.2,263.8,693.7,264.2,694.2
	z"/>
<path class="st1" d="M270.6,710.6c-0.8-3.4-6-12.5-8.4-15.8c-20.2-27.1-62.6-38.7-100.1-48.9c-31.9-8.7-64.8-17.7-67.3-33.2
	c-0.2-1.3-0.2-2.3-0.2-3.2v0c0.2,0.9,0.5,1.9,0.9,2.8c1.3,2.7,3.5,5.2,6.5,7.5c0.5,0.4,1,0.7,1.5,1.1c0,0,0.1,0,0.1,0.1
	c0.3,0.2,0.5,0.3,0.8,0.5c0.3,0.2,0.6,0.4,0.8,0.6c2.6,1.7,5.6,3.2,8.9,4.7c0.4,0.2,0.7,0.3,1.1,0.5c1,0.4,2,0.9,3,1.3
	c0.2,0.1,0.3,0.1,0.5,0.2c0.4,0.2,0.8,0.3,1.2,0.5c0.4,0.1,0.8,0.3,1.2,0.5c0.7,0.3,1.4,0.5,2.1,0.8l0.4,0.1
	c1.1,0.4,2.3,0.8,3.5,1.3c2.7,0.9,5.6,1.9,8.5,2.8c0.8,0.3,1.7,0.5,2.5,0.8c1,0.3,2.1,0.6,3.1,0.9c0.5,0.1,1,0.3,1.4,0.4
	c6.2,1.8,12.7,3.6,19.1,5.3c37.5,10.2,79.9,21.8,100.1,48.9c0.4,0.6,0.8,1.1,1.2,1.7c0.4,0.5,0.7,1.1,1.1,1.6
	C267.4,699.2,269.5,704.8,270.6,710.6z"/>
<polygon class="st2" points="327.6,30 252.4,0.1 220.7,14.8 167,150.1 291.5,199.5 344.1,67 "/>
<polygon class="st0" points="223.4,60.4 175.2,88.1 184.2,118.9 201.2,114 193.9,91.4 218.2,77.5 "/>
<polygon class="st3" points="327.6,30 252.4,0.1 220.7,14.8 220.5,15.4 223.7,24.8 227.9,20.4 227.4,32.2 254.2,7.4 318.5,34.8 
	321.4,62.9 276.6,153.3 291.5,199.5 344.1,67 "/>
<path class="st1" d="M256.7,364.3c5.1-3.2,9.8-7,14.5-10.7c-0.7-28.1-2.1-73.6-4.4-106.1c8.6,2.1,20.8,10.7,26,13.5
	c3-0.9,18.8-47.4,24.1-60c-6.8-23.5-17-45.8-25.7-68.8c1.7-3.6,3.5-7.1,5.5-10.6c6.8-5.8,12.4-13.3,16-22.4
	c10.9-27.5-1-58.1-26.6-68.2c-25.6-10.2-55.2,3.9-66.1,31.4c-3,7.5-4.2,15.2-4,22.6c-0.9,6.6-1.3,14.8-1.5,19.5
	c-6,1.9-12.1,3.6-18.2,5.5c-4.2,1.3-8.4,2.7-12.5,4.2c-0.3,0.1-0.6,0.2-0.9,0.4c-1.2,1.4-2.3,2.7-3.5,4
	c-10.8,12.3-21.2,21-31.1,31.5c-6.5,39.2-24.2,82.1-22.3,98.6c-0.1,2,0,4,0,5.9c6.2,1.9,12.6,3.4,18.8,5c-2.9,8.9-6.1,17.7-9.6,26.4
	c-3.2,8-6.5,16-9.8,24c1.9,6.3,3.9,12.6,5.6,19c-2.7,3.1-5.9,5.7-9.4,8c0.8,3.8,1.2,7.7,1.4,11.6c1.8,0.7,3.7,1.4,5.5,2.1
	c7.4,2.9,14.7,6.2,22,9.6c4.3-1.5,8.5-3.5,13-4.6c-0.7-4.3-1.2-8.7-1.7-13.1c6-2.6,14-6.3,21-9.7c1.9-5.8,3.7-11.7,6-17.5
	c0-0.1,3.5-8.5,6.1-15c3.5-8.8,6.8-17.5,9.8-26.4c1.5,21.3,2.6,51.5,2.4,67.2c4.9,4.1,9.9,8.1,14.5,12.4c-0.3,7.4-1.7,14.9-4.1,21.9
	c6,5.6,12.2,10.7,17.9,16.6c6.7,0.3,13.3,0.9,20,1.5c2.3-5.7,4.9-11.4,8.2-16.5C261.6,372.8,259.4,368.4,256.7,364.3z M248.8,125.5
	c-22.8-9-33.9-34.8-24.9-57.6c2.5-6.3,6.2-11.6,10.9-16c16,0.8,32.1,4.3,47.1,10.2c9.5,3.8,18.7,8.6,27.1,14.3
	c1.4,7.9,0.7,16.2-2.5,24.2C297.4,123.5,271.6,134.6,248.8,125.5z"/>
<path class="st3" d="M317,200.9c-6.8-23.3-16.8-45.4-25.4-68.2c-9.4,1.3-18.7,3.3-28.1,2.4l20.9,8.8l-10.1,3.5l20.1,9.4l-7.9,9.4
	l8.2,4l8.2,28.6l-11.8,2.4l-10.3-6.4l5.8,10.1l11.8,4.1l-11,6.4l11.5,3.5l-10.1,15.2l4,0.1l-3.9,14.1L275.5,231l0.3,8.4L266,237
	c0.3,3.3,0.6,6.9,0.8,10.6c8.6,2.1,20.8,10.7,26,13.5C296,260.1,311.7,213.6,317,200.9z"/>
<path class="st4" d="M264.9,225.9l-0.1,10.8l1.2,0.3C265.7,232.9,265.3,229.2,264.9,225.9z"/>
<path class="st0" d="M221.8,353.6c0,0,0.1,0.1,0.1,0.1c-0.3,7.4-1.7,14.9-4.1,21.9c6,5.6,12.2,10.7,17.9,16.6
	c6.7,0.3,13.3,0.9,20,1.5c2.3-5.7,4.9-11.4,8.2-16.5c-2.1-4.4-4.4-8.7-7-12.8L221.8,353.6z"/>
<path class="st3" d="M256.8,364.4l-0.1,0L257,378l-6.1,8.5l-20.1,0.9c1.7,1.6,3.3,3.2,4.9,4.8c6.7,0.3,13.3,0.9,20,1.5
	c2.3-5.7,4.9-11.4,8.2-16.5C261.6,372.9,259.4,368.5,256.8,364.4z"/>
<path class="st3" d="M296.9,121.6c6.8-5.8,12.4-13.3,16-22.4c10.9-27.5-1-58.1-26.6-68.2c-3.3-1.3-6.6-2.2-10-2.7
	c7.7,6,12.2,16.3,10.2,26.2c-9.3,1.4-18.7,0.8-28.2,0.6c8,1.7,15.9,4.1,23.5,7.1c9.5,3.8,18.7,8.6,27.1,14.3
	c1.4,7.9,0.7,16.2-2.5,24.2c-6.3,15.9-20.8,26.2-36.8,27.8c7.8,2,15.4,4.5,23,7.1c-0.4-1.1-0.9-2.2-1.3-3.4
	C293,128.6,294.9,125,296.9,121.6z"/>
<path class="st3" d="M189,315.4c0-0.1,3.5-8.5,6.1-15c3.5-8.7,6.7-17.4,9.8-26.2c0-0.1,0-0.1,0.1-0.2c0,0,0,0.1,0,0.1l0.2-0.1
	l2.9-11.7l-8-24.1l-2.2,28.7l-9.6-14.2l4.7,23l-4.5,16.3l-11.2-6.8l5.8,12l-19.6-0.1l17.3,5.9l-2.8,16.4l-10.1,7.2l-14.4-15
	l5.8,16.9l-18.4-1.8l11.8,12.5l10,3c5.9-2.6,13.5-6.1,20.2-9.4C184.9,327,186.7,321.1,189,315.4z"/>
<path class="st3" d="M268.4,273.4c-4.4,3-9,5.7-13.6,8.3c0,0.4,0,0.7,0,1.1c-3.2,3.9-6.2,7.7-9.4,11.6c4.6,0.8,9.1,2,13.7,2.7
	c-2.1,3.2-5.3,5.3-8.2,7.7c-7.9-3.1-15.7-6.2-23.6-9.4c6.6,7.7,14.8,13.9,23.4,19.6c-5.6-0.3-11.1-1-16.7-1.9
	c5.5,6.1,13.3,9.8,21,13.5c0.9,3.9,1.7,8,2.3,12.1c-6,4.9-11.2,10.3-16.8,15.4c6.7-1.8,13.7-4,20.3-5.6c-4.3,5.4-8.4,10.8-12.4,16.3
	c4.4-1.7,9-2.9,13.6-4.1c3.1-2.3,6.1-4.7,9.1-7.1C270.7,332.4,269.8,301.3,268.4,273.4z"/>
<path class="st0" d="M131.1,329c-2.7,3.1-5.9,5.7-9.4,8c0.8,3.8,1.2,7.7,1.4,11.6c1.8,0.7,3.7,1.4,5.5,2.1c7.4,2.9,14.7,6.2,22,9.6
	c4.3-1.5,8.5-3.5,13-4.6c-0.7-4.3-1.2-8.7-1.7-13.1c0,0,0,0,0,0l-30.9-13.8C131.1,328.8,131.1,328.9,131.1,329z"/>
<path class="st3" d="M161.9,342.5C161.9,342.5,161.9,342.5,161.9,342.5l-3.2-1.5l0,9.4l-9.1,5.2l-18.9-4.1
	c6.7,2.7,13.3,5.7,19.9,8.8c4.3-1.5,8.5-3.5,13-4.6C163,351.3,162.4,346.9,161.9,342.5z"/>
<path class="st5" d="M221.8,375.5l-0.1-18.5c-0.5,6.3-1.9,12.6-3.9,18.6c2.6,2.4,5.3,4.8,7.9,7.2L221.8,375.5z"/>
<rect x="210" y="146" transform="matrix(0.9295 0.3689 -0.3689 0.9295 78.316 -73.7307)" class="st0" width="44" height="44"/>
<rect x="228.7" y="155.3" transform="matrix(0.9295 0.3689 -0.3689 0.9295 78.2083 -74.6757)" class="st6" width="11.3" height="23.8"/>
<ellipse transform="matrix(0.3689 -0.9295 0.9295 0.3689 -5.9203 307.4245)" class="st6" cx="223.4" cy="158.1" rx="3.9" ry="3.9"/>
<ellipse transform="matrix(0.3689 -0.9295 0.9295 0.3689 -19.5509 310.4547)" class="st6" cx="218.8" cy="169.6" rx="3.9" ry="3.9"/>
<path class="st2" d="M206.6,172.2L206.6,172.2c3.5,1.4,5.7,5.1,5.1,8.8l-0.3,2.4l-35.8,27.3l3-18.7L206.6,172.2z"/>
<ellipse transform="matrix(0.3689 -0.9295 0.9295 0.3689 -67.9075 314.1317)" class="st0" cx="197.4" cy="207.1" rx="10.3" ry="10.3"/>
<ellipse transform="matrix(0.3689 -0.9295 0.9295 0.3689 -91.2978 319.33)" class="st0" cx="189.5" cy="226.9" rx="11" ry="11"/>
<ellipse transform="matrix(0.3689 -0.9295 0.9295 0.3689 -57.1923 362.3515)" class="st0" cx="238.2" cy="223.3" rx="10.3" ry="10.3"/>
<path class="st2" d="M261.1,234.6c1.4,1.3-6.4,6.7-9.4,10c-2.5-4-6.7-12.1-15.8-15.2c-3.4-1.2-5-5.1-3.7-8.5c1.3-3.3,5.1-5,8.5-3.7
	C244,218.6,257,230.7,261.1,234.6z"/>
<ellipse transform="matrix(0.3689 -0.9295 0.9295 0.3689 -80.5825 367.55)" class="st0" cx="230.4" cy="243.1" rx="11" ry="11"/>
<path class="st2" d="M173.7,215l19-11.9c2.4-1.5,5.7-0.8,7.2,1.6l0,0c1.6,2.5,0.8,5.8-1.7,7.3l-26.1,16L173.7,215z"/>
<path class="st0" d="M261.1,234.6l31.8,26.4c-12.5,14.6-23.1,26.7-30.8,30.6c-1.6,1.2-3.3,2.2-5,3.3c-5-4.2-9.8-8.6-14.6-12.9
	c-2.4-2.1-4.7-4.3-7.1-6.3c3.3-3.1,6.6-6.2,10-9.1c0.3-5.2,0.5-10.5,0.9-15.8C251,245.1,255.9,239.7,261.1,234.6z"/>
<polygon class="st4" points="245.5,266.5 256.8,255.3 245.8,261.1 "/>
<path class="st7" d="M306.4,100.7c-9,22.8-34.8,33.9-57.6,24.9c-22.8-9-33.9-34.8-24.9-57.6c2.5-6.3,6.2-11.6,10.9-16
	c16,0.8,32.1,4.3,47.1,10.2c9.5,3.8,18.7,8.6,27.1,14.3C310.3,84.4,309.6,92.7,306.4,100.7z"/>
<path class="st8" d="M221.6,75.8c-4,20.6,7,41.7,27.2,49.8c22.8,9,48.6-2.1,57.6-24.9c0.2-0.4,0.3-0.8,0.4-1.2
	C280,85.8,251.7,75.6,221.6,75.8z"/>
<path class="st9" d="M221.6,75.8c-4,20.6,7,41.7,27.2,49.8c22.8,9,48.6-2.1,57.6-24.9c0.2-0.4,0.3-0.8,0.4-1.2
	C280,85.8,251.7,75.6,221.6,75.8z"/>
<path class="st10" d="M293.5,93c-1.1-0.5-2.1-0.9-3.2-1.4c-6.3,10-15.8,18.3-23.9,26.6C277.4,112.5,287.7,104.1,293.5,93z"/>
<path class="st11" d="M308.9,76.5c-8.4-5.8-17.5-10.6-27.1-14.3c-15-6-31.1-9.4-47.1-10.2c-4.6,4.3-8.4,9.7-10.9,16
	c-9,22.8,2.1,48.6,24.9,57.6c22.8,9,48.6-2.1,57.6-24.9C309.6,92.7,310.3,84.4,308.9,76.5z M249.4,124c-21.7-8.6-32.4-33.2-23.7-55
	c2.4-6,6-11.1,10.4-15.2c15.3,0.8,30.6,4.1,44.9,9.8c9.1,3.6,17.8,8.2,25.8,13.7c1.3,7.5,0.7,15.4-2.3,23
	C295.8,122,271.1,132.7,249.4,124z"/>
<path class="st3" d="M225.1,70.4c2.5-6.3,6.2-11.6,10.9-16c16,0.8,32.1,4.3,47.1,10.2c9.2,3.7,18,8.3,26.2,13.8
	c-0.1-0.6-0.2-1.3-0.3-1.9c-8.4-5.8-17.5-10.6-27.1-14.3c-15-6-31.1-9.4-47.1-10.2c-4.6,4.3-8.4,9.7-10.9,16
	c-4.9,12.2-3.9,25.3,1.6,36.2C221.1,93.8,220.6,81.7,225.1,70.4z"/>
<path class="st2" d="M261.1,234.6l10.7-17l10.3-3.8c0,0-12-0.8-11.3-0.9c0.7-0.1,8.6-2.5,8.6-2.5l-8.6-1.3l-2.5-28.5L261.1,234.6z"
	/>
<polygon class="st2" points="207.3,341.2 210.5,292.8 205.1,274 208,262.3 236.4,252.6 214.7,265.9 227.9,268.7 215.8,272.3 
	214.3,292.5 214.4,328.6 236.6,343.6 224.7,337.8 235.2,352.3 "/>
<path class="st2" d="M133.9,322.2l-8.4-12.2l15.4-21.5l4.1-22.1l19.4-37.7l12.8,16l-9.9-1.6c0,0,11.4,27.9,11.1,27.2
	c-0.3-0.7-15.3-16.6-15.3-16.6l-17.1,30.9l2.5,8.6l-15.8,14.6L133.9,322.2z"/>
<path class="st0" d="M174.2,218.1l-39.6-12c-5.2,18.5-9.5,34-8.5,42.5c-0.1,2,0,4,0,5.9c6.2,1.9,12.6,3.4,18.8,5
	c3.1,0.8,6.2,1.6,9.2,2.5c0.8-4.5,1.5-8.9,2-13.4c4.2-3.1,8.5-6.2,12.7-9.5C171.1,232.3,172.8,225.2,174.2,218.1z"/>
<polygon class="st4" points="156.2,248.7 159.3,233.1 160.6,245.5 "/>
<polygon class="st2" points="134.7,206.1 148.6,185.1 146.4,176.5 147.9,172.7 150.3,150.9 186.6,117.3 214.6,104.6 192.3,120.6 
	193.7,132.1 187.9,124.9 164.7,143.9 168.4,160.8 156.1,152.2 160.5,160.6 151,172.6 150.3,177.3 157.1,188.5 141.2,200.8 
	150.7,207.7 "/>
<path class="st3" d="M212.7,151.3L197.3,162l-3.5-3.9l0.4,7.7l-9.7,2.3l5.6,1.6l-15,13.9l-10.2-0.9l9,5.1l-8.4,1.5l8.4,4.8l-2,17.9
	l-15.1,2.4l12.3,4.6L171,232c3.8-14.2,6-28.8,8.2-43.4C185.7,182.5,199.3,167.4,212.7,151.3z"/>
<path class="st2" d="M264.9,236.7l-0.1,10.5c0.7,0.1,1.4,0.2,2.1,0.4c-0.3-3.7-0.5-7.2-0.8-10.6L264.9,236.7z"/>
</svg>
