<?xml version="1.0" encoding="utf-8"?>
<!-- Generator: Adobe Illustrator 21.1.0, SVG Export Plug-In . SVG Version: 6.00 Build 0)  -->
<svg version="1.1" id="plan-plant" xmlns="http://www.w3.org/2000/svg" xmlns:xlink="http://www.w3.org/1999/xlink" x="0px" y="0px"
	 viewBox="0 0 10 10" style="enable-background:new 0 0 10 10;" xml:space="preserve">
<style type="text/css">
	.st0{fill:#354052;}
	.st1{fill:#FFFFFF;}
</style>
<g id="plant-border">
	<path class="st0" d="M6.2,0C5.2,1.1,4.1,2.5,5,4C5.3,2.8,7.5,2.5,6.2,0z M5,3.5C4.5,2.4,5.3,1.3,6.1,0.3C7,2.1,5.4,2.7,5,3.5z"/>
	<path class="st0" d="M4.4,0.4C4.2,1,3.9,1.7,4.5,2.2C4.4,1.7,5.3,1.3,4.4,0.4z M4.4,1.8c-0.1-0.3,0-0.6,0.1-1
		C4.9,1.1,4.4,1.7,4.4,1.8z"/>
	<path class="st0" d="M5,6c-0.3,1.2-2.5,1.5-1.1,4C4.8,8.9,5.9,7.5,5,6z M5,6.5c0.5,1.1-0.3,2.2-1.1,3.2C3,7.9,4.6,7.3,5,6.5z"/>
	<path class="st0" d="M6,5c1.2,0.3,1.5,2.5,4,1.2C8.9,5.2,7.5,4.1,6,5z M6.5,5c1.1-0.5,2.2,0.3,3.2,1.1C7.9,7,7.3,5.4,6.5,5z"/>
	<path class="st0" d="M0,3.8c1.1,1,2.5,2.1,4,1.1C2.8,4.7,2.5,2.5,0,3.8z M0.3,3.9C2.1,3,2.7,4.6,3.5,5C2.4,5.5,1.3,4.7,0.3,3.9z"/>
	<path class="st0" d="M5.8,4.3c1-0.7,2.8,0.7,3.6-2C7.8,2.4,6.1,2.6,5.8,4.3z M6.1,4c0.5-1.1,1.7-1.4,3-1.4C8.5,4.4,6.9,3.6,6.1,4z"
		/>
	<path class="st0" d="M0.6,7.7c1.5-0.1,3.3-0.3,3.6-2C3.2,6.4,1.4,5,0.6,7.7z M0.9,7.5c0.6-1.9,2.2-1.1,3-1.4
		C3.5,7.2,2.2,7.4,0.9,7.5z"/>
	<path class="st0" d="M5.7,5.7c0.7,1.1-0.7,2.8,2,3.6C7.6,7.8,7.4,6.1,5.7,5.7z M6,6.1c1.1,0.5,1.4,1.7,1.4,3C5.6,8.5,6.4,6.9,6,6.1
		z"/>
	<path class="st0" d="M2.3,0.6c0.1,1.5,0.3,3.3,2,3.6C3.6,3.2,5,1.4,2.3,0.6z M2.5,0.9c1.9,0.6,1.1,2.2,1.4,3
		C2.8,3.5,2.6,2.2,2.5,0.9z"/>
	<path class="st0" d="M5.5,7.8c0,0.5-0.8,1,0,1.8C5.8,9,6.1,8.3,5.5,7.8z M5.5,9.2c-0.4-0.3,0.1-0.9,0.1-1C5.7,8.5,5.7,8.8,5.5,9.2z
		"/>
	<path class="st0" d="M7.8,4.5c0.5,0,1,0.8,1.8,0C9,4.2,8.3,3.9,7.8,4.5z M8.2,4.4c0.3-0.1,0.6,0,1,0.1C8.9,4.9,8.3,4.4,8.2,4.4z"/>
	<path class="st0" d="M0.4,5.6C1,5.8,1.7,6.1,2.2,5.5C1.7,5.6,1.3,4.7,0.4,5.6z M0.8,5.5c0.3-0.4,0.9,0.1,1,0.1
		C1.5,5.7,1.2,5.7,0.8,5.5z"/>
	<path class="st0" d="M6.6,2.7C7,2.2,7.9,2.6,7.8,1.4C7.2,1.6,6.5,1.9,6.6,2.7z M6.9,2.3C7,2,7.2,1.8,7.6,1.7
		C7.7,2.1,6.9,2.3,6.9,2.3z"/>
	<path class="st0" d="M2.2,8.6c0.6-0.2,1.3-0.5,1.2-1.3C3,7.8,2.1,7.4,2.2,8.6z M2.4,8.3C2.3,7.9,3.1,7.8,3.2,7.7
		C3,8,2.8,8.2,2.4,8.3z"/>
	<path class="st0" d="M7.3,6.6C7.8,7,7.4,7.9,8.6,7.8C8.4,7.2,8.1,6.5,7.3,6.6z M7.7,6.8C8,7,8.2,7.2,8.3,7.6
		C7.9,7.7,7.8,6.9,7.7,6.8z"/>
	<path class="st0" d="M1.4,2.2c0.2,0.6,0.5,1.3,1.3,1.2C2.2,3,2.6,2.1,1.4,2.2z M1.7,2.4c0.5-0.1,0.6,0.7,0.6,0.8
		C2,3,1.8,2.8,1.7,2.4z"/>
	<circle class="st0" cx="5" cy="5" r="0.4"/>
</g>
<path class="st1" d="M5,3.5C4.5,2.4,5.3,1.3,6.1,0.3C7,2.1,5.4,2.7,5,3.5z"/>
<path class="st1" d="M4.4,1.8c-0.1-0.3,0-0.6,0.1-1C4.9,1.1,4.4,1.7,4.4,1.8z"/>
<path class="st1" d="M3.9,3.9c-1.1-0.4-1.3-1.7-1.4-3C4.4,1.5,3.6,3.1,3.9,3.9z"/>
<path class="st1" d="M2.3,3.2C2,3,1.8,2.8,1.7,2.4C2.2,2.3,2.3,3.1,2.3,3.2z"/>
<path class="st1" d="M3.5,5C2.4,5.5,1.3,4.7,0.3,3.9C2.1,3,2.7,4.6,3.5,5z"/>
<path class="st1" d="M1.8,5.6c-0.3,0.1-0.6,0.1-1-0.1C1.1,5.1,1.7,5.6,1.8,5.6z"/>
<path class="st1" d="M3.9,6.1c-0.4,1.1-1.7,1.3-3,1.4C1.5,5.6,3.1,6.4,3.9,6.1z"/>
<path class="st1" d="M3.2,7.7C3,8,2.8,8.2,2.4,8.3C2.3,7.9,3.1,7.8,3.2,7.7z"/>
<path class="st1" d="M3.9,9.7C3,7.9,4.6,7.3,5,6.5C5.5,7.6,4.7,8.7,3.9,9.7z"/>
<path class="st1" d="M5.5,9.2c-0.4-0.3,0.1-0.9,0.1-1C5.7,8.5,5.7,8.8,5.5,9.2z"/>
<path class="st1" d="M7.4,9.1c-1.8-0.6-1-2.2-1.4-3C7.1,6.6,7.4,7.8,7.4,9.1z"/>
<path class="st1" d="M8.3,7.6C7.9,7.7,7.8,6.9,7.7,6.8C8,7,8.2,7.2,8.3,7.6z"/>
<path class="st1" d="M9.7,6.1C7.9,7,7.3,5.4,6.5,5C7.6,4.5,8.7,5.3,9.7,6.1z"/>
<path class="st1" d="M9.2,4.5c-0.3,0.4-0.9-0.1-1-0.1C8.5,4.3,8.8,4.4,9.2,4.5z"/>
<path class="st1" d="M9.1,2.6c-0.6,1.8-2.2,1-3,1.4C6.6,2.9,7.8,2.6,9.1,2.6z"/>
<path class="st1" d="M7.6,1.7c0.1,0.4-0.7,0.6-0.7,0.6C7,2,7.2,1.8,7.6,1.7z"/>
</svg>
