<?xml version="1.0" encoding="utf-8"?>
<!-- Generator: Adobe Illustrator 21.1.0, SVG Export Plug-In . SVG Version: 6.00 Build 0)  -->
<svg version="1.1" id="Слой_1" xmlns="http://www.w3.org/2000/svg" xmlns:xlink="http://www.w3.org/1999/xlink" x="0px" y="0px"
	 viewBox="0 0 35 35" style="enable-background:new 0 0 35 35;" xml:space="preserve">
<path d="M15.6,9.7c1.2,1,2.2,4.5,2.4,6.6h1.4c0.2-2.1,1.1-4.1,2-5.1c7.8,2.7,7.1-5.3,9.5-10.5c-5.2,2.6-14.3-0.2-11.2,9.4
	c2.2-3.8,4.6-5.5,9.7-8c-5,2.8-9,6.8-10.6,11.6c-0.5-2.1-1.2-3.4-2-4.8c1.6-8.3-2.6-9.4-11.8-9C8.5,4.3,5,11,15.6,9.7L15.6,9.7z"/>
<polygon points="9.3,35 3,23.1 3,17.2 32.8,17.2 32.8,23.1 26.2,35 "/>
</svg>
