<?xml version="1.0" encoding="utf-8"?>
<!-- Generator: Adobe Illustrator 21.1.0, SVG Export Plug-In . SVG Version: 6.00 Build 0)  -->
<svg version="1.1" id="Слой_1" xmlns="http://www.w3.org/2000/svg" xmlns:xlink="http://www.w3.org/1999/xlink" x="0px" y="0px"
	 viewBox="0 0 35 35" style="enable-background:new 0 0 35 35;" xml:space="preserve">
<path d="M16.7,0c-4.1,0-8,0-8.8,0L0,9.2v2.2c0.1,0.8,0.4,1.4,1.4,1.5v19c0,3.4,0.1,3.1,2.8,3.1c0.7,0,1.2-0.5,1.2-1.2V12.9h24.1
	v20.9c0,1.5,1.7,1.2,2.9,1.2c1.4,0,1.2-1.6,1.2-3V12.9c1-0.1,1.3-0.7,1.4-1.5V9.2l-6.7-8.9C27.8,0.1,22,0,16.7,0z M7,14v13.5
	c0,0.5,0.4,1,1,1h1.3c0.5,0,1-0.4,1-1V14H7z M24.8,14v13.5c0,0.5,0.4,1,1,1h1.3c0.5,0,1-0.4,1-1V14H24.8z"/>
</svg>
