<?xml version="1.0" encoding="utf-8"?>
<!-- Generator: Adobe Illustrator 18.1.1, SVG Export Plug-In . SVG Version: 6.00 Build 0)  -->
<svg version="1.1" id="Шар_1" xmlns="http://www.w3.org/2000/svg" xmlns:xlink="http://www.w3.org/1999/xlink" x="0px" y="0px"
	 viewBox="-100 134 500 500" enable-background="new -100 134 500 500" xml:space="preserve">
<g>
	<path fill="#726658" d="M184.8,386.7c1.5-18.9-12.5-35.5-31.4-37s-35.4,12.5-36.9,31.5c-1.5,18.9,12.5,35.5,31.4,37
		S183.2,405.6,184.8,386.7z"/>
	<ellipse fill="#726658" cx="150.6" cy="383.9" rx="34.2" ry="34.4"/>
	<ellipse fill="#C2B59B" cx="142" cy="377.1" rx="18.5" ry="18.6"/>
	<path fill="#726658" d="M243.4,228.6c-2.3,2.2-4.5,4.5-6.4,7.1c-1.3,1.7-2.5,3.4-3.6,5.3c-0.5,0.9-1.1,1.8-1.5,2.8
		c-0.5,0.9-1,1.9-1.3,2.9c-0.4,1-0.8,2-1.1,3c-0.3,1-0.6,2-0.8,3.1c-0.3,1-0.5,2.1-0.6,3.1c-0.2,1-0.3,2-0.4,3.1
		c-23,28.2-61,43.5-71.1,76c-1-1.6-1.9-3.2-2.7-4.7c1-3.1,2.2-6.1,3.8-8.9c2.1-4.2,4.9-8.1,7.7-11.9c3-3.7,6.1-7.3,9.4-10.6
		c3.3-3.4,6.8-6.7,10.2-9.9c6.9-6.5,14-12.9,20.6-19.8c1.6-1.8,3.3-3.5,4.8-5.3l2.3-2.7l2.2-2.8c3-3.8,5.6-7.8,8.1-12
		c1.2-2.1,2.2-4.3,3.3-6.5c1-2.2,1.8-4.5,2.7-6.8c0.6-2.4,1.4-4.7,2-7c0.4-2.4,1-4.8,1.3-7.2c0.2-2.4,0.6-4.8,0.6-7.3
		c0-2.4,0.1-4.9,0-7.3l-0.6-7.2c-0.3-2.4-0.8-4.8-1.2-7.2c-0.3-2.4-1-4.7-1.6-7.1l-0.9-3.5c-0.3-1.2-0.7-2.3-1.1-3.4l-2.2-6.9
		l-2.6-6.7l-1.3-3.3l-1.5-3.3l-1.5-3.3c3.5-3.3,6.9-6.5,10.1-9.5C246,180.7,248.7,207.8,243.4,228.6z"/>
	<path fill="#726658" d="M304.5,216.6c-0.9,21.5-6.6,33.2-14.5,40.1c-0.3,0.1-0.7,0.1-1,0.2c-2.3,0.5-4.6,1-6.8,1.6
		c-2.3,0.6-4.6,1.1-6.8,1.8c-2.3,0.6-4.5,1.3-6.7,2c-2.2,0.7-4.5,1.4-6.7,2.3c-2.2,0.8-4.4,1.6-6.6,2.5c-2.2,0.9-4.4,1.8-6.5,2.8
		c-2.1,1-4.3,2-6.4,3.1c-1.7,0.9-3.5,1.8-5.2,2.8c-0.2-4.1,0.2-7.9,1-11.5c0.1-0.1,0.3-0.1,0.5-0.2c1.9-0.8,3.9-1.6,5.9-2.2
		c2-0.7,4-1.2,6-1.7c4-1.1,8.2-2.2,12.2-3.5c2-0.7,4-1.4,6-2.4c2-0.9,3.9-2,5.7-3.1c0.9-0.6,1.8-1.3,2.7-1.9
		c0.8-0.7,1.7-1.4,2.5-2.2c0.7-0.8,1.5-1.6,2.3-2.4c0.7-0.9,1.4-1.7,2-2.6c0.6-0.9,1.2-1.8,1.8-2.8c0.5-1,1-2,1.5-3l1.2-3
		c0.4-1,0.7-2.1,1-3.1c0.4-1,0.5-2.1,0.8-3.2c0.3-1.1,0.5-2.1,0.6-3.2l0.5-3.2v-0.1C296.1,219,300.5,217.7,304.5,216.6z"/>
	<path fill="#DECFB1" d="M229.9,211.3c-0.1,2.3-0.4,4.7-0.6,7c-0.3,2.3-0.8,4.6-1.2,6.9c-0.5,2.3-1.2,4.5-1.8,6.7
		c-0.8,2.2-1.6,4.4-2.5,6.5c-1,2.1-1.9,4.3-3.1,6.3c-2.3,4.1-4.8,8.1-7.6,11.8l-2.1,2.8l-2.3,2.7c-1.5,1.8-3.1,3.6-4.7,5.3
		c-6.4,7-13.3,13.5-20.1,20.1c-3.4,3.3-6.8,6.7-10,10.2c-3.3,3.5-6.3,7.2-9.2,11c-2.7,3.9-5.4,7.9-7.5,12.2c-1.8,3.5-3,7.3-4.1,11.1
		c-0.2,0.8-0.4,1.6-0.6,2.4l-3.8-5.9c-1.3-2-2.3-4.1-3.4-6.1c-1.2-2-2-4.2-3-6.3c-1-2.1-1.8-4.3-2.6-6.5c-0.4-1.1-0.8-2.2-1.2-3.3
		l-0.9-3.3c-0.3-1.1-0.6-2.2-0.9-3.3l-0.7-3.4c-0.2-1.1-0.5-2.3-0.7-3.4l-0.4-3.4c-0.1-1.2-0.3-2.3-0.4-3.5l-0.2-3.5
		c0-1.2-0.1-2.3-0.1-3.5l0.1-3.5c0.1-1.2,0-2.3,0.1-3.5l0.3-3.5c0.1-2.3,0.5-4.6,0.9-6.9c0.3-2.3,0.8-4.6,1.3-6.8
		c0.4-2.3,1.1-4.5,1.7-6.7c0.5-2.2,1.3-4.4,2-6.6c0.7-2.2,1.6-4.4,2.4-6.5c0.8-2.2,1.8-4.3,2.7-6.4c0.9-2.1,1.9-4.2,2.9-6.3
		c1-2.1,2.1-4.1,3.1-6.2c1.1-2.1,2.2-4.1,3.4-6.1c1.1-2,2.3-4,3.5-6c1.2-2,2.4-4,3.7-5.9c1.2-2,2.5-3.9,3.9-5.8
		c1.3-1.9,2.6-3.8,4-5.7c1.3-1.9,2.7-3.8,4.1-5.6c10.6-14.2,22.3-27.6,34.3-40.7c1.8,3.5,3.7,6.9,5.4,10.4l3,6.4l1.5,3.2l1.3,3.3
		l2.6,6.6l2.2,6.7c0.4,1.1,0.8,2.2,1.1,3.4l0.9,3.4c0.5,2.3,1.3,4.5,1.6,6.9c0.4,2.3,0.8,4.6,1.2,6.9l0.6,7
		C229.9,206.6,229.8,209,229.9,211.3z"/>
	<path fill="#594A42" d="M233,211.4c-0.1,2.4-0.4,4.8-0.6,7.3c-0.3,2.4-0.9,4.8-1.3,7.2c-0.6,2.4-1.3,4.7-2,7
		c-0.9,2.3-1.8,4.5-2.7,6.8c-1.1,2.2-2.1,4.4-3.3,6.5c-2.4,4.2-5.1,8.2-8.1,12l-2.2,2.8l-2.3,2.7c-1.6,1.8-3.2,3.5-4.8,5.3
		c-6.6,7-13.7,13.3-20.6,19.8c-3.5,3.2-6.9,6.5-10.2,9.9c-3.3,3.3-6.4,6.9-9.4,10.6c-2.8,3.8-5.6,7.6-7.7,11.9
		c-1.6,2.8-2.8,5.8-3.8,8.9c-0.5,1.4-0.9,2.9-1.3,4.4c0.2-0.8,0.4-1.6,0.6-2.4c0.2-0.7,0.4-1.5,0.6-2.2c0.9-3,2-6.1,3.4-8.9
		c2-4.4,4.7-8.3,7.5-12.2c2.9-3.8,5.9-7.5,9.2-11c3.2-3.5,6.6-6.9,10-10.2c6.8-6.7,13.7-13.1,20.1-20.1c1.6-1.8,3.2-3.5,4.7-5.3
		l2.3-2.7l2.1-2.8c2.9-3.7,5.4-7.7,7.6-11.8c1.2-2,2-4.2,3.1-6.3c0.9-2.2,1.7-4.3,2.5-6.5c0.6-2.2,1.3-4.5,1.8-6.7
		c0.4-2.3,0.9-4.6,1.2-6.9c0.2-2.3,0.5-4.6,0.6-7c0-2.3,0-4.7-0.1-7l-0.6-7c-0.3-2.3-0.8-4.6-1.2-6.9c-0.3-2.3-1.1-4.6-1.6-6.9
		l-0.9-3.4c-0.3-1.1-0.7-2.2-1.1-3.4l-2.2-6.7l-2.6-6.6l-1.3-3.3l-1.5-3.2l-1-2.1l-2-4.3c-1.7-3.5-3.6-6.9-5.4-10.4
		c-12,13.1-23.7,26.5-34.3,40.7c-1.4,1.9-2.8,3.7-4.1,5.6c-1.4,1.9-2.7,3.8-4,5.7c-1.3,1.9-2.6,3.8-3.9,5.8
		c-1.3,1.9-2.5,3.9-3.7,5.9c-1.2,2-2.4,4-3.5,6c-1.1,2-2.3,4-3.4,6.1c-1.1,2-2.2,4.1-3.1,6.2c-1,2.1-2,4.2-2.9,6.3
		c-0.9,2.1-1.9,4.3-2.7,6.4c-0.8,2.2-1.7,4.3-2.4,6.5c-0.7,2.2-1.5,4.4-2,6.6c-0.6,2.2-1.3,4.5-1.7,6.7c-0.5,2.3-1,4.5-1.3,6.8
		c-0.3,2.3-0.7,4.6-0.9,6.9l-0.3,3.5c-0.1,1.2-0.1,2.3-0.1,3.5l-0.1,3.5c0,1.2,0.1,2.3,0.1,3.5l0.2,3.5c0.1,1.2,0.3,2.3,0.4,3.5
		l0.4,3.4c0.2,1.2,0.4,2.3,0.7,3.4l0.7,3.4c0.3,1.1,0.6,2.2,0.9,3.3l0.9,3.3c0.3,1.1,0.8,2.2,1.2,3.3c0.8,2.2,1.6,4.4,2.6,6.5
		c1,2.1,1.9,4.3,3,6.3c1.1,2,2.1,4.1,3.4,6.1l3.8,5.9l-1.9-2.8l-2.1-3c-1.3-1.9-2.4-4-3.7-6c-1.3-2-2.2-4.1-3.2-6.2
		c-1.1-2.1-1.9-4.3-2.8-6.5c-0.4-1.1-0.9-2.2-1.3-3.3l-1-3.4c-0.3-1.1-0.7-2.2-1-3.4l-0.8-3.4c-0.3-1.1-0.5-2.3-0.8-3.4l-0.5-3.5
		c-0.2-1.2-0.4-2.3-0.5-3.5l-0.3-3.5c-0.1-1.2-0.2-2.4-0.2-3.5l0-3.5c0-1.2,0-2.4,0-3.5l0.3-3.5c0.1-2.4,0.4-4.7,0.8-7
		c0.3-2.3,0.8-4.7,1.2-7c0.4-2.3,1-4.6,1.6-6.9c0.1-0.3,0.2-0.7,0.3-1c0.3-1,0.6-2.1,0.9-3.1c0.3-0.9,0.5-1.8,0.8-2.6
		c0.6-2.3,1.5-4.5,2.3-6.7c0.2-0.6,0.4-1.1,0.6-1.7c0,0,0,0,0,0c0.6-1.6,1.3-3.2,2-4.9c0.9-2.2,1.9-4.3,2.9-6.4c1-2.2,2-4.3,3.1-6.4
		c1-2.1,2.2-4.2,3.3-6.2c1.1-2.1,2.3-4.1,3.5-6.1c0.9-1.6,1.9-3.2,2.9-4.7c0.3-0.4,0.5-0.9,0.8-1.3c1.2-2,2.5-3.9,3.8-5.9
		c1.3-2,2.6-3.9,4-5.8c1.3-1.9,2.7-3.8,4.1-5.7c11.1-15.1,23.4-29.3,36-43.1l1.7-1.9l1.2,2.2c2.2,4.2,4.5,8.5,6.6,12.8l1.5,3.3
		l1.5,3.3l1.5,3.3l1.3,3.3l2.6,6.7l2.2,6.9c0.4,1.2,0.8,2.3,1.1,3.4l0.9,3.5c0.5,2.4,1.3,4.7,1.6,7.1c0.4,2.4,0.8,4.8,1.2,7.2
		l0.6,7.2C233.1,206.6,233,209,233,211.4z"/>
	<path fill="#594A42" d="M292.2,210.9c-0.1,2.2-0.1,4.3-0.3,6.5l-0.3,3.1v0.1l-0.5,3.2c-0.1,1.1-0.4,2.1-0.6,3.2
		c-0.3,1-0.4,2.1-0.8,3.2c-0.3,1-0.6,2.1-1,3.1l-1.2,3c-0.5,1-1,2-1.5,3c-0.5,1-1.2,1.9-1.8,2.8c-0.6,0.9-1.3,1.8-2,2.6
		c-0.7,0.9-1.5,1.6-2.3,2.4c-0.8,0.7-1.7,1.5-2.5,2.2c-0.9,0.6-1.7,1.3-2.7,1.9c-1.9,1.2-3.8,2.2-5.7,3.1c-1.9,0.9-4,1.7-6,2.4
		c-4,1.4-8.2,2.4-12.2,3.5c-2,0.5-4.1,1.1-6,1.7c-2,0.6-4,1.4-5.9,2.2c-0.1,0.1-0.3,0.1-0.5,0.2c-1.7,0.8-3.5,1.7-5,2.8
		c-1.8,1.1-3.3,2.6-4.8,4.1c1.3-1.6,2.8-3.2,4.5-4.5c1.7-1.4,3.5-2.4,5.4-3.5c0.1-0.1,0.2-0.1,0.3-0.1c1.8-0.9,3.7-1.8,5.6-2.5
		c2-0.8,4-1.5,6-2.2c4-1.3,8-2.6,11.9-4.1c1.9-0.8,3.9-1.6,5.7-2.5c1.8-0.9,3.6-2,5.3-3.1c0.8-0.6,1.6-1.2,2.4-1.8
		c0.8-0.7,1.5-1.4,2.2-2.1c0.7-0.8,1.4-1.5,2-2.2c0.6-0.8,1.2-1.6,1.8-2.4c0.5-0.9,1.1-1.7,1.6-2.6c0.4-0.9,0.9-1.8,1.3-2.7l1.1-2.8
		c0.3-1,0.6-2,0.9-2.9c0.3-1,0.5-2,0.7-3c0.2-1,0.5-2,0.6-3l0.2-1.4l0.3-1.6l0.3-3.1c0.2-2,0.2-4.1,0.3-6.2c0-1.2,0-2.5,0-3.7
		c-6.9,2.6-13.7,5.4-20.3,8.7c-3.7,1.8-7.3,3.7-10.8,5.9c-1.7,1-3.4,2.2-5.1,3.3c-1.7,1.2-3.3,2.4-4.9,3.7c-1.6,1.3-3.1,2.6-4.6,4
		c-0.4,0.4-0.8,0.7-1.1,1.1c-1.1,1.1-2.1,2.2-3.1,3.3c-1.3,1.5-2.5,3.2-3.6,4.9c-0.6,0.9-1.1,1.7-1.6,2.6c-0.5,0.9-1,1.8-1.4,2.7
		c-0.5,0.9-0.9,1.8-1.2,2.8c-0.4,0.9-0.7,1.9-1,2.9c-0.3,1-0.6,2-0.8,3c-0.1,0.5-0.2,0.9-0.3,1.3c-0.1,0.6-0.2,1.1-0.3,1.7
		c-0.3,2-0.4,4.1-0.4,6.2c0,1,0,2.1,0.1,3.1l0.3,3.1l-0.5-3.1c-0.2-1-0.2-2.1-0.3-3.1c-0.1-2.1-0.1-4.2,0-6.3v-0.1
		c0-1,0.2-2,0.4-3.1c0.1-1,0.3-2.1,0.6-3.1c0.2-1,0.5-2,0.8-3.1c0.3-1,0.7-2,1.1-3c0.4-1,0.8-2,1.3-2.9c0.4-1,1-1.9,1.5-2.8
		c1.1-1.8,2.3-3.6,3.6-5.3c1.9-2.5,4.1-4.9,6.4-7.1c0.8-0.7,1.5-1.4,2.3-2.1c1.6-1.4,3.2-2.7,4.9-3.9c1.7-1.3,3.4-2.4,5.2-3.6
		c3.5-2.3,7.2-4.3,10.9-6.2c7.5-3.8,15.2-6.9,22.9-9.9l2.4-0.9l0,2.5C292.2,206.6,292.2,208.8,292.2,210.9z"/>
	<path fill="#DECFB1" d="M288.6,210.9c-0.1,2.1,0,4.2-0.3,6.2l-0.3,3.1l-0.5,3c-0.1,1-0.3,2-0.6,3c-0.3,1-0.4,2-0.7,3
		c-0.3,1-0.6,2-0.9,2.9l-1.1,2.8c-0.4,0.9-0.9,1.8-1.3,2.7c-0.5,0.9-1,1.7-1.6,2.6c-0.5,0.9-1.2,1.6-1.8,2.4c-0.6,0.8-1.3,1.5-2,2.2
		c-0.7,0.7-1.5,1.4-2.2,2.1c-0.8,0.6-1.6,1.3-2.4,1.8c-1.7,1.1-3.4,2.2-5.3,3.1c-1.8,0.9-3.8,1.7-5.7,2.5c-3.9,1.5-7.9,2.8-11.9,4.1
		c-2,0.7-4,1.4-6,2.2c-2,0.8-3.9,1.6-5.8,2.6c-1.9,1-3.7,2.1-5.4,3.5c-1.7,1.3-3.1,2.9-4.5,4.5l-0.3-3.1c-0.1-1,0-2.1-0.1-3.1
		c0-2.1,0.1-4.1,0.4-6.2c0.1-1,0.3-2,0.5-3c0.2-1,0.5-2,0.8-3c0.3-1,0.6-1.9,1-2.9c0.3-1,0.8-1.9,1.2-2.8c0.4-0.9,0.9-1.8,1.4-2.7
		c0.5-0.9,1-1.8,1.6-2.6c1.1-1.7,2.3-3.3,3.6-4.9c1.3-1.6,2.7-3,4.1-4.4c1.5-1.4,3-2.8,4.6-4c1.6-1.3,3.2-2.5,4.9-3.7
		c1.7-1.2,3.4-2.3,5.1-3.3c3.5-2.1,7.1-4.1,10.8-5.9c6.6-3.2,13.4-6,20.3-8.7C288.6,208.4,288.7,209.6,288.6,210.9z"/>
	<path fill="#726658" d="M-5.7,291.1c2.2,2.3,4.5,4.5,7,6.4c1.7,1.3,3.4,2.5,5.2,3.6c0.9,0.5,1.8,1.1,2.8,1.5c0.9,0.5,1.9,1,2.9,1.3
		c1,0.4,2,0.8,3,1.1c1,0.3,2,0.6,3,0.8c1,0.3,2.1,0.5,3.1,0.6c1,0.2,2,0.3,3,0.4c28.1,23.1,43.4,61.2,75.7,71.3
		c-1.6,1-3.2,1.9-4.7,2.7c-3.1-1-6-2.2-8.9-3.8c-4.2-2.1-8.1-4.9-11.8-7.7c-3.7-3-7.2-6.1-10.6-9.5c-3.4-3.3-6.6-6.8-9.9-10.3
		c-6.5-6.9-12.8-14-19.8-20.6c-1.7-1.6-3.5-3.3-5.3-4.9l-2.7-2.4l-2.8-2.2c-3.8-3-7.8-5.7-11.9-8.1c-2.1-1.2-4.3-2.2-6.4-3.3
		c-2.2-1-4.5-1.8-6.7-2.7c-2.3-0.7-4.6-1.4-7-2c-2.4-0.4-4.7-1-7.1-1.3c-2.4-0.2-4.8-0.6-7.2-0.6c-2.4,0-4.9-0.1-7.3,0l-7.2,0.6
		c-2.4,0.3-4.8,0.8-7.1,1.2c-2.4,0.3-4.7,1-7,1.6l-3.5,0.9c-1.2,0.3-2.3,0.7-3.4,1.1l-6.9,2.2l-6.7,2.6l-3.3,1.3l-3.3,1.5l-3.3,1.5
		c-3.3-3.5-6.5-6.9-9.5-10.2C-53.4,288.4-26.4,285.7-5.7,291.1z"/>
	<path fill="#726658" d="M43.6,297c-4.9,0.4-9.5,0.1-13.6-0.9c-0.1-0.1-0.1-0.3-0.2-0.5c-0.8-1.9-1.6-3.9-2.2-5.9
		c-0.6-2-1.2-4-1.7-6.1c-1.1-4.1-2.2-8.2-3.6-12.2c-0.7-2-1.4-4.1-2.4-6c-0.9-2-1.9-3.9-3.1-5.8c-0.6-0.9-1.3-1.8-1.9-2.7
		c-0.7-0.9-1.4-1.7-2.2-2.5c-0.8-0.7-1.6-1.5-2.4-2.3c-0.9-0.7-1.7-1.4-2.6-2c-0.9-0.6-1.8-1.2-2.8-1.8c-1-0.5-1.9-1-2.9-1.5l-3-1.2
		c-1-0.4-2.1-0.7-3.1-1c-1-0.4-2.1-0.5-3.2-0.8c-1.1-0.3-2.1-0.5-3.2-0.6l-3.2-0.5h-0.1c-1.5-4.5-2.8-8.9-3.9-12.9
		c25.4,1,37.1,8.9,43.3,19.2c0.2,0.8,0.4,1.6,0.6,2.4c0.6,2.3,1.1,4.6,1.8,6.8c0.6,2.3,1.3,4.5,2,6.7c0.7,2.2,1.4,4.5,2.3,6.7
		c0.6,1.5,1.1,3.1,1.7,4.6C35.8,284.2,38.1,291.6,43.6,297z"/>
	<path fill="#DECFB1" d="M-22.9,304.6c2.3,0.1,4.6,0.4,6.9,0.6c2.3,0.3,4.6,0.8,6.9,1.2c2.3,0.5,4.5,1.2,6.7,1.8
		c2.2,0.8,4.4,1.6,6.5,2.5c2.1,1,4.3,1.9,6.3,3.1c4.1,2.3,8,4.8,11.7,7.7l2.8,2.2l2.7,2.3c1.8,1.5,3.6,3.1,5.3,4.7
		c7,6.4,13.4,13.4,20.1,20.2c3.3,3.4,6.7,6.8,10.2,10c3.5,3.3,7.1,6.3,10.9,9.2c3.9,2.8,7.8,5.5,12.2,7.5c3.5,1.8,7.3,3.1,11.1,4.1
		c0.8,0.2,1.6,0.4,2.4,0.6l-5.9,3.8c-1.9,1.3-4.1,2.3-6.1,3.4c-2,1.2-4.2,2-6.3,3.1c-2.1,1-4.3,1.8-6.4,2.6
		c-1.1,0.4-2.2,0.9-3.3,1.2l-3.3,0.9c-1.1,0.3-2.2,0.7-3.3,0.9l-3.4,0.7c-1.1,0.2-2.3,0.5-3.4,0.7l-3.4,0.4
		c-1.2,0.1-2.3,0.3-3.4,0.4l-3.5,0.2c-1.2,0-2.3,0.1-3.4,0.1l-3.5-0.1c-1.2-0.1-2.3,0-3.5-0.1l-3.4-0.3c-2.3-0.1-4.6-0.5-6.9-0.9
		c-2.3-0.3-4.5-0.8-6.8-1.3c-2.3-0.4-4.5-1.1-6.7-1.7c-2.2-0.5-4.4-1.3-6.6-2c-2.2-0.7-4.3-1.6-6.5-2.4c-2.2-0.8-4.3-1.8-6.4-2.7
		c-2.1-0.9-4.2-1.9-6.3-2.9c-2.1-1-4.1-2.1-6.2-3.1c-2.1-1.1-4.1-2.2-6.1-3.4c-2-1.1-4-2.3-6-3.5c-2-1.2-4-2.4-5.9-3.7
		c-2-1.2-3.9-2.6-5.8-3.9c-1.9-1.3-3.8-2.6-5.7-4c-1.9-1.3-3.8-2.7-5.6-4.1c-14.2-10.6-27.5-22.4-40.6-34.4
		c3.4-1.8,6.8-3.7,10.3-5.4l6.4-3l3.2-1.5l3.3-1.3l6.5-2.6l6.7-2.2c1.1-0.4,2.2-0.8,3.4-1.1l3.4-0.9c2.3-0.5,4.5-1.3,6.8-1.6
		c2.3-0.4,4.6-0.8,6.9-1.2l7-0.6C-27.6,304.6-25.3,304.6-22.9,304.6z"/>
	<path fill="#594A42" d="M99.8,382.1l-2.8,1.9l-3,2.1c-1.9,1.3-4,2.4-6,3.7c-1.9,1.3-4.1,2.2-6.2,3.3c-2.1,1.1-4.3,1.9-6.4,2.8
		c-1.1,0.4-2.2,0.9-3.3,1.3l-3.4,1c-1.1,0.3-2.2,0.7-3.4,1l-3.4,0.8c-1.1,0.3-2.3,0.5-3.4,0.8l-3.5,0.5c-1.2,0.2-2.3,0.4-3.5,0.5
		l-3.5,0.3c-1.2,0.1-2.4,0.2-3.5,0.2l-3.5,0c-1.2,0-2.3,0-3.5,0l-3.5-0.3c-2.4-0.1-4.7-0.4-7-0.8c-2.3-0.3-4.6-0.8-6.9-1.2
		c-2.3-0.4-4.6-1-6.9-1.6c-0.1,0-0.1,0-0.2-0.1c-0.9-0.2-1.8-0.5-2.6-0.7c-1.3-0.4-2.6-0.8-4-1.2c-2.3-0.7-4.4-1.5-6.7-2.3
		c-0.5-0.2-0.9-0.3-1.4-0.5c-1.7-0.7-3.4-1.4-5.1-2.1c-2.2-0.9-4.3-1.9-6.4-2.9c-2.1-1-4.2-2-6.3-3.1c-2.1-1-4.2-2.2-6.2-3.3
		c-2.1-1.1-4.1-2.3-6.1-3.5c-1.4-0.8-2.8-1.7-4.2-2.6c-0.6-0.4-1.2-0.8-1.8-1.1c-2-1.2-4-2.5-5.9-3.9c-2-1.3-3.9-2.6-5.8-4
		c-1.9-1.3-3.8-2.7-5.7-4.1c-15.1-11.1-29.2-23.5-43-36.1l-1.9-1.7l2.2-1.2c4.2-2.2,8.4-4.5,12.7-6.6l9.8-4.5l3.3-1.3l6.7-2.6
		l6.9-2.2c1.2-0.4,2.3-0.8,3.4-1.1l3.5-0.9c2.3-0.5,4.6-1.3,7-1.6c2.4-0.4,4.7-0.8,7.1-1.2l7.2-0.6c2.4-0.1,4.8,0,7.3,0
		c2.4,0.1,4.8,0.4,7.2,0.6c2.4,0.3,4.8,0.9,7.1,1.3c2.4,0.6,4.7,1.3,7,2c2.3,0.9,4.5,1.8,6.7,2.7c2.1,1.1,4.4,2.1,6.4,3.3
		c4.2,2.4,8.2,5.1,11.9,8.1l2.8,2.2l2.7,2.4c1.8,1.6,3.6,3.2,5.3,4.9c6.9,6.6,13.3,13.7,19.8,20.6c3.2,3.5,6.5,7,9.9,10.3
		c3.4,3.3,6.9,6.5,10.6,9.5c3.8,2.8,7.6,5.6,11.8,7.7c2.8,1.6,5.8,2.8,8.8,3.8C96.8,381.3,98.3,381.7,99.8,382.1l-2.4-0.6
		c-0.8-0.2-1.5-0.4-2.2-0.6c-3-0.9-6-2-8.8-3.4c-4.4-2-8.3-4.7-12.2-7.5c-3.8-2.9-7.5-6-10.9-9.2c-3.5-3.2-6.8-6.6-10.2-10
		c-6.6-6.8-13.1-13.8-20.1-20.2c-1.7-1.6-3.5-3.2-5.3-4.7l-2.7-2.3l-2.8-2.2c-3.7-2.9-7.7-5.4-11.7-7.7c-2-1.2-4.2-2-6.3-3.1
		c-2.1-0.9-4.3-1.7-6.5-2.5c-2.3-0.6-4.5-1.3-6.7-1.8c-2.3-0.4-4.5-0.9-6.9-1.2c-2.3-0.2-4.6-0.5-6.9-0.6c-2.3,0-4.7,0-7,0.1l-7,0.6
		c-2.3,0.3-4.6,0.8-6.9,1.2c-2.3,0.3-4.6,1.1-6.9,1.6l-3.4,0.9c-1.1,0.3-2.3,0.7-3.4,1.1l-6.7,2.2l-6.5,2.6l-3.3,1.3l-3.2,1.5
		l-2.1,1l-4.3,2c-3.5,1.7-6.9,3.6-10.3,5.4c13.1,12,26.5,23.7,40.6,34.4c1.9,1.4,3.7,2.8,5.6,4.1c1.9,1.4,3.8,2.7,5.7,4
		c1.9,1.3,3.8,2.6,5.8,3.9c1.9,1.3,3.9,2.5,5.9,3.7c2,1.2,4,2.4,6,3.5c2,1.1,4,2.3,6.1,3.4c2,1.1,4.1,2.2,6.2,3.1
		c2.1,1,4.1,2,6.3,2.9c2.1,0.9,4.2,1.9,6.4,2.7c2.2,0.8,4.3,1.7,6.5,2.4c2.2,0.7,4.4,1.5,6.6,2c2.2,0.6,4.4,1.3,6.7,1.7
		c2.3,0.5,4.5,1,6.8,1.3c2.3,0.3,4.6,0.7,6.9,0.9l3.5,0.3c1.1,0.1,2.3,0.1,3.4,0.1l3.5,0.1c1.2,0,2.3-0.1,3.5-0.1l3.4-0.2
		c1.2-0.1,2.3-0.3,3.4-0.4l3.4-0.4c1.2-0.2,2.3-0.4,3.4-0.7l3.4-0.7c1.1-0.3,2.2-0.6,3.3-0.9l3.3-0.9c1.1-0.3,2.2-0.8,3.3-1.2
		c2.2-0.8,4.4-1.6,6.4-2.6c2.1-1,4.3-1.9,6.3-3.1c2-1.1,4.1-2.2,6.1-3.4L99.8,382.1z"/>
	<path fill="#594A42" d="M-23.3,242c2.1,0.1,4.3,0.1,6.4,0.3l3.1,0.3h0.1l3.2,0.5c1.1,0.1,2.1,0.4,3.2,0.6c1,0.3,2.1,0.4,3.2,0.8
		c1,0.3,2.1,0.7,3.1,1l3,1.2c1,0.5,2,1,2.9,1.5c1,0.5,1.9,1.2,2.8,1.8c0.9,0.6,1.7,1.3,2.6,2c0.8,0.7,1.6,1.5,2.4,2.3
		c0.7,0.8,1.5,1.7,2.2,2.5c0.6,0.9,1.3,1.8,1.9,2.7c1.2,1.9,2.2,3.8,3.1,5.8c0.9,2,1.7,4,2.4,6c1.4,4.1,2.4,8.2,3.5,12.2
		c0.5,2,1.1,4.1,1.7,6.1c0.6,2,1.4,4,2.2,5.9c0.1,0.1,0.1,0.3,0.2,0.5c0.8,1.7,1.7,3.5,2.8,5c1.1,1.8,2.6,3.3,4.1,4.8
		c-1.6-1.3-3.2-2.8-4.5-4.5c-1.4-1.7-2.4-3.5-3.4-5.4c-0.1-0.1-0.1-0.2-0.1-0.3c-0.9-1.8-1.8-3.7-2.5-5.6c-0.8-2-1.5-4-2.1-6
		c-1.3-4-2.5-8.1-4.1-11.9c-0.8-1.9-1.6-3.9-2.5-5.7c-0.9-1.8-2-3.6-3.1-5.3c-0.6-0.9-1.2-1.6-1.8-2.4c-0.7-0.8-1.4-1.5-2.1-2.2
		c-0.8-0.7-1.5-1.4-2.2-2c-0.8-0.6-1.6-1.2-2.4-1.8c-0.9-0.5-1.7-1.1-2.6-1.6c-0.9-0.4-1.8-0.9-2.7-1.3l-2.8-1.1
		c-1-0.3-1.9-0.6-2.9-0.9c-1-0.3-2-0.5-3-0.7c-1-0.2-2-0.5-3-0.6l-1.4-0.2l-1.6-0.3l-3.1-0.3c-2-0.2-4.1-0.2-6.2-0.3
		c-1.2,0-2.5,0-3.7,0c2.6,6.9,5.4,13.8,8.6,20.4c1.8,3.7,3.7,7.3,5.8,10.8c1,1.7,2.2,3.5,3.3,5.1c1.2,1.7,2.4,3.3,3.6,4.9
		c1.3,1.6,2.6,3.1,4,4.6c0.4,0.4,0.7,0.8,1.1,1.1c1.1,1.1,2.2,2.1,3.3,3.1c1.5,1.3,3.2,2.6,4.9,3.6c0.8,0.6,1.7,1.1,2.6,1.6
		c0.9,0.5,1.8,1,2.7,1.4c0.9,0.5,1.8,0.9,2.8,1.2c0.9,0.4,1.9,0.7,2.9,1c1,0.3,2,0.6,3,0.8c0.5,0.1,0.9,0.2,1.3,0.3
		c0.6,0.1,1.1,0.2,1.7,0.3c2,0.3,4.1,0.4,6.1,0.4c1,0,2.1,0,3.1-0.1l3.1-0.3l-3.1,0.5c-1,0.2-2.1,0.2-3.1,0.3
		c-2.1,0.1-4.2,0.1-6.2,0h-0.1c-1,0-2-0.2-3-0.4c-1-0.1-2.1-0.3-3.1-0.6c-1-0.2-2-0.5-3-0.8c-1-0.3-2-0.7-3-1.1
		c-1-0.4-1.9-0.8-2.9-1.3c-1-0.4-1.9-1-2.8-1.5c-1.8-1.1-3.6-2.3-5.2-3.6c-2.5-2-4.9-4.1-7-6.4c-0.7-0.8-1.4-1.5-2.1-2.3
		c-1.4-1.6-2.7-3.3-3.9-5c-1.3-1.7-2.4-3.4-3.6-5.2c-2.3-3.5-4.3-7.2-6.2-11c-3.8-7.5-6.9-15.3-9.9-23l-0.9-2.4l2.5,0
		C-27.6,242.1-25.5,242-23.3,242z"/>
	<path fill="#DECFB1" d="M-23.4,245.6c2.1,0.1,4.1,0,6.2,0.3l3.1,0.3l3,0.5c1,0.1,2,0.3,3,0.6c1,0.3,2,0.4,3,0.7
		c1,0.3,1.9,0.6,2.9,0.9l2.8,1.1c0.9,0.4,1.8,0.9,2.7,1.3c0.9,0.5,1.7,1,2.6,1.6c0.8,0.5,1.6,1.2,2.4,1.8c0.8,0.6,1.5,1.3,2.2,2
		c0.7,0.7,1.4,1.5,2.1,2.2c0.6,0.8,1.3,1.6,1.8,2.4c1.1,1.7,2.2,3.4,3.1,5.3c0.9,1.8,1.7,3.8,2.5,5.7c1.5,3.9,2.7,7.9,4.1,11.9
		c0.7,2,1.4,4,2.1,6c0.8,2,1.6,3.9,2.6,5.8c1,1.9,2.1,3.7,3.4,5.4c1.3,1.7,2.9,3.1,4.5,4.5l-3.1,0.3c-1,0.1-2.1,0-3.1,0.1
		c-2.1,0-4.1-0.1-6.1-0.4c-1-0.1-2-0.3-3-0.5c-1-0.2-2-0.5-3-0.8c-1-0.3-1.9-0.6-2.9-1c-1-0.3-1.9-0.8-2.8-1.2
		c-0.9-0.4-1.8-0.9-2.7-1.4c-0.9-0.5-1.7-1-2.6-1.6c-1.7-1.1-3.3-2.3-4.9-3.6c-1.6-1.3-3-2.7-4.4-4.2c-1.4-1.5-2.8-3-4-4.6
		c-1.3-1.6-2.5-3.2-3.6-4.9c-1.2-1.7-2.3-3.4-3.3-5.1c-2.1-3.5-4.1-7.1-5.8-10.8c-3.2-6.6-6-13.5-8.6-20.4
		C-25.8,245.6-24.6,245.6-23.4,245.6z"/>
	<path fill="#726658" d="M58.6,539.4c2.3-2.2,4.5-4.5,6.4-7.1c1.3-1.7,2.5-3.4,3.6-5.3c0.5-0.9,1.1-1.8,1.5-2.8
		c0.5-0.9,1-1.9,1.3-2.9c0.4-1,0.8-2,1.1-3c0.3-1,0.6-2,0.8-3.1c0.3-1,0.5-2.1,0.6-3.1c0.2-1,0.3-2,0.4-3.1c23-28.2,61-43.5,71.1-76
		c1,1.6,1.9,3.2,2.7,4.7c-1,3.1-2.2,6.1-3.8,8.9c-2.1,4.2-4.9,8.1-7.7,11.9c-3,3.7-6.1,7.3-9.4,10.6c-3.3,3.4-6.8,6.7-10.2,9.9
		c-6.9,6.5-14,12.9-20.6,19.8c-1.6,1.8-3.3,3.5-4.8,5.3l-2.3,2.7l-2.2,2.8c-3,3.8-5.6,7.8-8.1,12c-1.2,2.1-2.2,4.3-3.3,6.5
		c-1,2.2-1.8,4.5-2.7,6.8c-0.6,2.4-1.4,4.7-2,7c-0.4,2.4-1,4.8-1.3,7.2c-0.2,2.4-0.6,4.8-0.6,7.3c0,2.4-0.1,4.9,0,7.3l0.6,7.2
		c0.3,2.4,0.8,4.8,1.2,7.2c0.3,2.4,1,4.7,1.6,7.1l0.9,3.5c0.3,1.2,0.7,2.3,1.1,3.4l2.2,6.9l2.6,6.7l1.3,3.3l1.5,3.3l1.5,3.3
		c-3.5,3.3-6.9,6.5-10.1,9.5C56,587.3,53.3,560.2,58.6,539.4z"/>
	<path fill="#726658" d="M63.6,503.6c-0.1,0.1-0.3,0.1-0.5,0.2c-1.9,0.8-3.9,1.6-5.9,2.2c-2,0.7-4,1.2-6,1.7
		c-4,1.1-8.2,2.2-12.2,3.5c-2,0.7-4,1.4-6,2.4c-2,0.9-3.9,2-5.7,3.1c-0.9,0.6-1.8,1.3-2.7,1.9c-0.8,0.7-1.7,1.4-2.5,2.2
		c-0.7,0.8-1.5,1.6-2.3,2.4c-0.7,0.9-1.4,1.7-2,2.6c-0.6,0.9-1.2,1.8-1.8,2.8c-0.5,1-1,2-1.5,3l-1.2,3c-0.4,1-0.7,2.1-1,3.1
		c-0.4,1-0.5,2.1-0.8,3.2c-0.3,1.1-0.5,2.1-0.6,3.2l-0.5,3.2v0.1c-4.5,1.5-8.9,2.8-12.9,3.9c0.9-22.5,7.1-34.3,15.7-41
		c1.5-0.3,3.1-0.7,4.6-1.1c2.3-0.6,4.6-1.1,6.8-1.8c2.3-0.6,4.5-1.3,6.7-2c2.2-0.7,4.5-1.4,6.7-2.3c2.2-0.8,4.4-1.6,6.6-2.5
		c2.2-0.9,4.3-1.8,6.5-2.8c0.4-0.2,0.9-0.4,1.3-0.6c3.5-1.2,6.7-2.7,9.5-4.9c0.6-0.3,1.1-0.6,1.7-1c0.3-0.2,0.7-0.4,1.1-0.6
		C64.9,495.3,64.5,499.6,63.6,503.6z"/>
	<path fill="#DECFB1" d="M72.1,556.7c0.1-2.3,0.4-4.7,0.6-7c0.3-2.3,0.8-4.6,1.2-6.9c0.5-2.3,1.2-4.5,1.8-6.7
		c0.8-2.2,1.6-4.4,2.5-6.5c1-2.1,1.9-4.3,3.1-6.3c2.3-4.1,4.8-8.1,7.6-11.8l2.1-2.8l2.3-2.7c1.5-1.8,3.1-3.6,4.7-5.3
		c6.4-7,13.3-13.5,20.1-20.1c3.4-3.3,6.8-6.7,10-10.2c3.3-3.5,6.3-7.2,9.2-11c2.7-3.9,5.4-7.9,7.5-12.2c1.8-3.5,3-7.3,4.1-11.1
		c0.2-0.8,0.4-1.6,0.6-2.4l3.8,5.9c1.3,2,2.3,4.1,3.4,6.1c1.2,2,2,4.2,3,6.3c1,2.1,1.8,4.3,2.6,6.5c0.4,1.1,0.8,2.2,1.2,3.3l0.9,3.3
		c0.3,1.1,0.6,2.2,0.9,3.3l0.7,3.4c0.2,1.1,0.5,2.3,0.7,3.4l0.4,3.4c0.1,1.2,0.3,2.3,0.4,3.5l0.2,3.5c0,1.2,0.1,2.3,0.1,3.5
		l-0.1,3.5c-0.1,1.2,0,2.3-0.1,3.5l-0.3,3.5c-0.1,2.3-0.5,4.6-0.9,6.9c-0.3,2.3-0.8,4.6-1.3,6.8c-0.4,2.3-1.1,4.5-1.7,6.7
		c-0.5,2.2-1.3,4.4-2,6.6c-0.7,2.2-1.6,4.4-2.4,6.5c-0.8,2.2-1.8,4.3-2.7,6.4c-0.9,2.1-1.9,4.2-2.9,6.3c-1,2.1-2.1,4.1-3.1,6.2
		c-1.1,2.1-2.2,4.1-3.4,6.1c-1.1,2-2.3,4-3.5,6c-1.2,2-2.4,4-3.7,5.9c-1.2,2-2.5,3.9-3.9,5.8c-1.3,1.9-2.6,3.8-4,5.7
		c-1.3,1.9-2.7,3.8-4.1,5.6c-10.6,14.2-22.3,27.6-34.3,40.7c-1.8-3.5-3.7-6.9-5.4-10.4l-3-6.4l-1.5-3.2l-1.3-3.3l-2.6-6.6l-2.2-6.7
		c-0.4-1.1-0.8-2.2-1.1-3.4l-0.9-3.4c-0.5-2.3-1.3-4.5-1.6-6.9c-0.4-2.3-0.8-4.6-1.2-6.9l-0.6-7C72,561.4,72.1,559,72.1,556.7z"/>
	<path fill="#594A42" d="M169.5,492.5c0,1.2,0,2.4,0,3.5l-0.3,3.5c-0.1,2.4-0.4,4.7-0.8,7c-0.3,2.3-0.8,4.7-1.2,7
		c-0.4,2.3-1,4.6-1.6,6.9c0,0.1-0.1,0.2-0.1,0.3c-0.5,2.2-1.2,4.3-1.9,6.5c-0.6,2.3-1.5,4.5-2.3,6.7c-0.8,2.2-1.7,4.4-2.6,6.6
		c-0.9,2.2-1.9,4.3-2.9,6.4c-1,2.2-2,4.3-3.1,6.4c-1,2.1-2.2,4.2-3.3,6.2c-1.1,2.1-2.3,4.1-3.5,6.1c-1.2,2-2.4,4-3.7,6
		c0,0-0.1,0.1-0.1,0.1c-1.2,2-2.5,3.9-3.8,5.8c-1.3,2-2.6,3.9-4,5.8c-1.3,1.9-2.7,3.8-4.1,5.7c-11.1,15.1-23.4,29.3-36,43.1
		l-1.7,1.9l-1.2-2.2c-2.2-4.2-4.5-8.5-6.6-12.8l-1.5-3.3l-1.5-3.3l-1.5-3.3l-1.3-3.3l-2.6-6.7l-2.2-6.9c-0.4-1.2-0.8-2.3-1.1-3.4
		l-0.9-3.5c-0.5-2.4-1.3-4.7-1.6-7.1c-0.4-2.4-0.8-4.8-1.2-7.2l-0.6-7.2c-0.1-2.4,0-4.9,0-7.3c0.1-2.4,0.4-4.8,0.6-7.3
		c0.3-2.4,0.9-4.8,1.3-7.2c0.6-2.4,1.3-4.7,2-7c0.9-2.3,1.7-4.5,2.7-6.8c1.1-2.2,2.1-4.4,3.3-6.5c2.4-4.2,5.1-8.2,8.1-12l2.2-2.8
		l2.3-2.7c1.6-1.8,3.2-3.5,4.8-5.3c6.6-7,13.7-13.3,20.6-19.8c3.5-3.2,6.9-6.5,10.2-9.9c3.3-3.3,6.4-6.9,9.4-10.6
		c2.8-3.8,5.6-7.6,7.7-11.9c1.6-2.8,2.8-5.8,3.8-8.9c0.5-1.4,0.9-2.9,1.3-4.4c-0.2,0.8-0.4,1.6-0.6,2.4c-0.2,0.7-0.4,1.5-0.6,2.2
		c-0.9,3-2,6.1-3.4,8.9c-2,4.4-4.7,8.3-7.5,12.2c-2.9,3.8-5.9,7.5-9.2,11c-3.2,3.5-6.6,6.9-10,10.2c-6.8,6.7-13.7,13.1-20.1,20.1
		c-1.6,1.8-3.2,3.5-4.7,5.3l-2.3,2.7l-2.1,2.8c-2.9,3.7-5.4,7.7-7.6,11.8c-1.2,2-2,4.2-3.1,6.3c-0.9,2.2-1.7,4.3-2.5,6.5
		c-0.6,2.2-1.3,4.5-1.8,6.7c-0.4,2.3-0.9,4.6-1.2,6.9c-0.2,2.3-0.5,4.6-0.6,7c0,2.3,0,4.7,0.1,7l0.6,7c0.3,2.3,0.8,4.6,1.2,6.9
		c0.3,2.3,1.1,4.6,1.6,6.9l0.9,3.4c0.3,1.1,0.7,2.2,1.1,3.4l2.2,6.7l2.6,6.6l1.3,3.3l1.5,3.2l1,2.1l2,4.3c1.7,3.5,3.6,6.9,5.4,10.4
		c12-13.1,23.7-26.5,34.3-40.7c1.4-1.9,2.8-3.7,4.1-5.6c1.4-1.9,2.7-3.8,4-5.7c1.3-1.9,2.6-3.8,3.9-5.8c1.3-1.9,2.5-3.9,3.7-5.9
		c0.3-0.5,0.6-1,0.9-1.4c0.9-1.5,1.8-3,2.7-4.6c1.1-2,2.3-4,3.4-6.1c1.1-2,2.2-4.1,3.1-6.2c0.1-0.1,0.1-0.3,0.2-0.4
		c1-2,1.9-3.9,2.7-5.9c0.9-2.1,1.9-4.3,2.7-6.4c0.8-2.2,1.7-4.3,2.4-6.5c0.7-2.2,1.5-4.4,2-6.6c0.6-2.2,1.3-4.5,1.7-6.7
		c0.5-2.3,1-4.5,1.3-6.8c0.3-2.3,0.7-4.6,0.9-6.9l0.3-3.5c0.1-1.2,0.1-2.3,0.1-3.5l0.1-3.5c0-1.2-0.1-2.3-0.1-3.5l-0.2-3.5
		c-0.1-1.2-0.3-2.3-0.4-3.5l-0.4-3.4c-0.2-1.2-0.4-2.3-0.7-3.4l-0.7-3.4c-0.3-1.1-0.6-2.2-0.9-3.3l-0.9-3.3
		c-0.3-1.1-0.8-2.2-1.2-3.3c-0.8-2.2-1.6-4.4-2.6-6.5c-1-2.1-1.9-4.3-3-6.3c-1.1-2-2.1-4.1-3.4-6.1l-3.8-5.9l1.9,2.8l2.1,3
		c1.3,1.9,2.4,4,3.7,6c1.3,2,2.2,4.1,3.2,6.2c1.1,2.1,1.9,4.3,2.8,6.5c0.4,1.1,0.9,2.2,1.3,3.3l1,3.4c0.3,1.1,0.7,2.2,1,3.4l0.8,3.4
		c0.3,1.1,0.5,2.3,0.8,3.4l0.5,3.5c0.2,1.2,0.4,2.3,0.5,3.5l0.3,3.5c0.1,1.2,0.2,2.4,0.2,3.5L169.5,492.5z"/>
	<path fill="#594A42" d="M9.7,557.1c0.1-2.2,0.1-4.3,0.3-6.5l0.3-3.1v-0.1l0.5-3.2c0.1-1.1,0.4-2.1,0.6-3.2c0.3-1,0.4-2.1,0.8-3.2
		c0.3-1,0.6-2.1,1-3.1l1.2-3c0.5-1,1-2,1.5-3c0.5-1,1.2-1.9,1.8-2.8c0.6-0.9,1.3-1.8,2-2.6c0.7-0.9,1.5-1.6,2.3-2.4
		c0.8-0.7,1.7-1.5,2.5-2.2c0.9-0.6,1.7-1.3,2.7-1.9c1.9-1.2,3.8-2.2,5.7-3.1c1.9-0.9,4-1.7,6-2.4c4-1.4,8.2-2.4,12.2-3.5
		c2-0.5,4.1-1.1,6-1.7c2-0.6,4-1.4,5.9-2.2c0.1-0.1,0.3-0.1,0.5-0.2c1.7-0.8,3.5-1.7,5-2.8c1.8-1.1,3.3-2.6,4.8-4.1
		c-1.3,1.6-2.8,3.2-4.5,4.5c-1.7,1.4-3.5,2.4-5.4,3.5c-0.1,0.1-0.2,0.1-0.3,0.1c-1.8,0.9-3.7,1.8-5.6,2.5c-2,0.8-4,1.5-6,2.2
		c-4,1.3-8,2.6-11.9,4.1c-1.9,0.8-3.9,1.6-5.7,2.5c-1.8,0.9-3.6,2-5.3,3.1c-0.8,0.6-1.6,1.2-2.4,1.8c-0.8,0.7-1.5,1.4-2.2,2.1
		c-0.7,0.8-1.4,1.5-2,2.2c-0.6,0.8-1.2,1.6-1.8,2.4c-0.5,0.9-1.1,1.7-1.6,2.6c-0.4,0.9-0.9,1.8-1.3,2.7l-1.1,2.8
		c-0.3,1-0.6,2-0.9,2.9c-0.3,1-0.5,2-0.7,3c-0.2,1-0.5,2-0.6,3l-0.2,1.4l-0.3,1.6l-0.3,3.1c-0.2,2-0.2,4.1-0.3,6.2
		c0,1.2,0,2.5,0,3.7c6.9-2.6,13.7-5.4,20.3-8.7c3.7-1.8,7.3-3.7,10.8-5.9c1.7-1,3.4-2.2,5.1-3.3c1.7-1.2,3.3-2.4,4.9-3.7
		c1.6-1.3,3.1-2.6,4.6-4c0.4-0.4,0.8-0.7,1.1-1.1c1.1-1.1,2.1-2.2,3.1-3.3c1.3-1.5,2.5-3.2,3.6-4.9c0.6-0.9,1.1-1.7,1.6-2.6
		c0.5-0.9,1-1.8,1.4-2.7c0.5-0.9,0.9-1.8,1.2-2.8c0.4-0.9,0.7-1.9,1-2.9c0.3-1,0.6-2,0.8-3c0.1-0.5,0.2-0.9,0.3-1.3
		c0.1-0.6,0.2-1.1,0.3-1.7c0.3-2,0.4-4.1,0.4-6.2c0-1,0-2.1-0.1-3.1l-0.3-3.1l0.5,3.1c0.2,1,0.2,2.1,0.3,3.1c0.1,2.1,0.1,4.2,0,6.3
		v0.1c0,1-0.2,2-0.4,3.1c-0.1,1-0.3,2.1-0.6,3.1c-0.2,1-0.5,2-0.8,3.1c-0.3,1-0.7,2-1.1,3c-0.4,1-0.8,2-1.3,2.9
		c-0.4,1-1,1.9-1.5,2.8c-1.1,1.8-2.3,3.6-3.6,5.3c-1.9,2.5-4.1,4.9-6.4,7.1c-0.8,0.7-1.5,1.4-2.3,2.1c-1.6,1.4-3.2,2.7-4.9,3.9
		c-1.7,1.3-3.4,2.4-5.2,3.6c-3.5,2.3-7.2,4.3-10.9,6.2c-7.5,3.8-15.2,6.9-22.9,9.9L9.8,566l0-2.5C9.8,561.4,9.7,559.2,9.7,557.1z"/>
	<path fill="#DECFB1" d="M13.3,557.1c0.1-2.1,0-4.2,0.3-6.2l0.3-3.1l0.5-3c0.1-1,0.3-2,0.6-3c0.3-1,0.4-2,0.7-3c0.3-1,0.6-2,0.9-2.9
		l1.1-2.8c0.4-0.9,0.9-1.8,1.3-2.7c0.5-0.9,1-1.7,1.6-2.6c0.5-0.9,1.2-1.6,1.8-2.4c0.6-0.8,1.3-1.5,2-2.2c0.7-0.7,1.5-1.4,2.2-2.1
		c0.8-0.6,1.6-1.3,2.4-1.8c1.7-1.1,3.4-2.2,5.3-3.1c1.8-0.9,3.8-1.7,5.7-2.5c3.9-1.5,7.9-2.8,11.9-4.1c2-0.7,4-1.4,6-2.2
		c2-0.8,3.9-1.6,5.8-2.6c1.9-1,3.7-2.1,5.4-3.5c1.7-1.3,3.1-2.9,4.5-4.5l0.3,3.1c0.1,1,0,2.1,0.1,3.1c0,2.1-0.1,4.1-0.4,6.2
		c-0.1,1-0.3,2-0.5,3c-0.2,1-0.5,2-0.8,3c-0.3,1-0.6,1.9-1,2.9c-0.3,1-0.8,1.9-1.2,2.8c-0.4,0.9-0.9,1.8-1.4,2.7
		c-0.5,0.9-1,1.8-1.6,2.6c-1.1,1.7-2.3,3.3-3.6,4.9c-1.3,1.6-2.7,3-4.1,4.4c-1.5,1.4-3,2.8-4.6,4c-1.6,1.3-3.2,2.5-4.9,3.7
		c-1.7,1.2-3.4,2.3-5.1,3.3c-3.5,2.1-7.1,4.1-10.8,5.9c-6.6,3.2-13.4,6-20.3,8.7C13.3,559.6,13.3,558.4,13.3,557.1z"/>
	<path fill="#726658" d="M305.7,476.7c-2.2-2.3-4.5-4.5-7-6.4c-1.7-1.3-3.4-2.5-5.2-3.6c-0.9-0.5-1.8-1.1-2.8-1.5
		c-0.9-0.5-1.9-1-2.9-1.3c-1-0.4-2-0.8-3-1.1c-1-0.3-2-0.6-3-0.8c-1-0.3-2.1-0.5-3.1-0.6c-1-0.2-2-0.3-3-0.4
		c-28.1-23.1-43.4-61.2-75.7-71.3c1.6-1,3.2-1.9,4.7-2.7c3.1,1,6,2.2,8.9,3.8c4.2,2.1,8.1,4.9,11.8,7.7c3.7,3,7.2,6.1,10.6,9.5
		c3.4,3.3,6.6,6.8,9.9,10.3c6.5,6.9,12.8,14,19.8,20.6c1.7,1.6,3.5,3.3,5.3,4.9l2.7,2.4l2.8,2.2c3.8,3,7.8,5.7,11.9,8.1
		c2.1,1.2,4.3,2.2,6.4,3.3c2.2,1,4.5,1.8,6.7,2.7c2.3,0.7,4.6,1.4,7,2c2.4,0.4,4.7,1,7.1,1.3c2.4,0.2,4.8,0.6,7.2,0.6
		c2.4,0,4.9,0.1,7.3,0l7.2-0.6c2.4-0.3,4.8-0.8,7.1-1.2c2.4-0.3,4.7-1,7-1.6l3.5-0.9c1.2-0.3,2.3-0.7,3.4-1.1l6.9-2.2l6.7-2.6
		l3.3-1.3l3.3-1.5l3.3-1.5c3.3,3.5,6.5,6.9,9.5,10.2C353.4,479.3,326.4,482,305.7,476.7z"/>
	<path fill="#726658" d="M317.7,537.9c-22.4-0.9-34.2-7.2-40.9-15.7c0,0,0-0.1,0-0.1c-0.5-2.3-1-4.6-1.6-6.9
		c-0.6-2.3-1.1-4.6-1.8-6.8c-0.6-2.3-1.3-4.5-2-6.7c-0.7-2.2-1.4-4.5-2.3-6.7c-0.8-2.2-1.6-4.4-2.5-6.6c-0.9-2.2-1.8-4.4-2.8-6.5
		c-1-2.1-1.9-4.3-3.1-6.4c-0.9-1.6-1.7-3.3-2.6-4.9c4.3-0.2,8.3,0.2,12,1c0.1,0.1,0.1,0.3,0.2,0.5c0.8,1.9,1.6,3.9,2.2,5.9
		c0.6,2,1.2,4,1.7,6.1c1.1,4.1,2.2,8.2,3.5,12.2c0.7,2,1.4,4.1,2.4,6c0.9,2,1.9,3.9,3.1,5.8c0.6,0.9,1.3,1.8,1.9,2.7
		c0.7,0.9,1.4,1.7,2.2,2.5c0.8,0.7,1.6,1.5,2.4,2.3c0.9,0.7,1.7,1.4,2.6,2c0.9,0.6,1.8,1.2,2.8,1.8c1,0.5,1.9,1,2.9,1.5l3,1.2
		c1,0.4,2.1,0.7,3.1,1c1,0.4,2.1,0.5,3.2,0.8c1.1,0.3,2.1,0.5,3.2,0.6l3.2,0.5h0.1C315.3,529.6,316.6,533.9,317.7,537.9z"/>
	<path fill="#DECFB1" d="M322.9,463.1c-2.3-0.1-4.6-0.4-6.9-0.6c-2.3-0.3-4.6-0.8-6.9-1.2c-2.3-0.5-4.5-1.2-6.7-1.8
		c-2.2-0.8-4.4-1.6-6.5-2.5c-2.1-1-4.3-1.9-6.3-3.1c-4.1-2.3-8-4.8-11.7-7.7l-2.8-2.2l-2.7-2.3c-1.8-1.5-3.6-3.1-5.3-4.7
		c-7-6.4-13.4-13.4-20.1-20.2c-3.3-3.4-6.7-6.8-10.2-10c-3.5-3.3-7.1-6.3-10.9-9.2c-3.9-2.8-7.8-5.5-12.2-7.5
		c-3.5-1.8-7.3-3.1-11.1-4.1c-0.8-0.2-1.6-0.4-2.4-0.6l5.9-3.8c1.9-1.3,4.1-2.3,6.1-3.4c2-1.2,4.2-2,6.3-3.1c2.1-1,4.3-1.8,6.4-2.6
		c1.1-0.4,2.2-0.9,3.3-1.2l3.3-0.9c1.1-0.3,2.2-0.7,3.3-0.9l3.4-0.7c1.1-0.2,2.3-0.5,3.4-0.7l3.4-0.4c1.2-0.1,2.3-0.3,3.4-0.4
		l3.5-0.2c1.2,0,2.3-0.1,3.4-0.1l3.5,0.1c1.2,0.1,2.3,0,3.5,0.1l3.4,0.3c2.3,0.1,4.6,0.5,6.9,0.9c2.3,0.3,4.5,0.8,6.8,1.3
		c2.3,0.4,4.5,1.1,6.7,1.7c2.2,0.5,4.4,1.3,6.6,2c2.2,0.7,4.3,1.6,6.5,2.4c2.2,0.8,4.3,1.8,6.4,2.7c2.1,0.9,4.2,1.9,6.3,2.9
		c2.1,1,4.1,2.1,6.2,3.1c2.1,1.1,4.1,2.2,6.1,3.4c2,1.1,4,2.3,6,3.5c2,1.2,4,2.4,5.9,3.7c2,1.2,3.9,2.6,5.8,3.9
		c1.9,1.3,3.8,2.6,5.7,4c1.9,1.3,3.8,2.7,5.6,4.1c14.2,10.6,27.5,22.4,40.6,34.4c-3.4,1.8-6.8,3.7-10.3,5.4l-6.4,3l-3.2,1.5
		l-3.3,1.3l-6.5,2.6l-6.7,2.2c-1.1,0.4-2.2,0.8-3.4,1.1l-3.4,0.9c-2.3,0.5-4.5,1.3-6.8,1.6c-2.3,0.4-4.6,0.8-6.9,1.2l-7,0.6
		C327.6,463.2,325.3,463.1,322.9,463.1z"/>
	<path fill="#594A42" d="M400,442.5l-2.2,1.2c-4.2,2.2-8.4,4.5-12.7,6.6l-3.2,1.5l-3.3,1.5l-3.3,1.5l-3.3,1.3l-6.7,2.6l-6.9,2.2
		c-1.2,0.4-2.3,0.8-3.4,1.1l-3.5,0.9c-2.3,0.5-4.7,1.3-7,1.6c-2.4,0.4-4.7,0.8-7.1,1.2l-7.2,0.6c-2.4,0.1-4.8,0-7.3,0
		c-2.4-0.1-4.8-0.4-7.2-0.6c-2.4-0.3-4.8-0.9-7.1-1.3c-2.4-0.6-4.7-1.3-7-2c-2.3-0.9-4.5-1.8-6.7-2.7c-2.1-1.1-4.4-2.1-6.4-3.3
		c-4.2-2.4-8.2-5.1-11.9-8.1l-2.8-2.2l-2.7-2.4c-1.8-1.6-3.5-3.2-5.3-4.9c-6.9-6.6-13.3-13.7-19.8-20.6c-3.2-3.5-6.5-7-9.9-10.3
		c-3.3-3.3-6.9-6.5-10.6-9.5c-3.8-2.8-7.6-5.6-11.8-7.7c-2.8-1.6-5.8-2.8-8.9-3.8c-1.4-0.5-2.9-0.9-4.3-1.3c0.8,0.2,1.6,0.4,2.4,0.6
		c0.7,0.2,1.5,0.4,2.2,0.6c3,0.9,6,2,8.9,3.4c4.3,2,8.3,4.7,12.2,7.5c3.8,2.9,7.5,6,10.9,9.2c3.5,3.2,6.9,6.6,10.2,10
		c6.6,6.8,13.1,13.8,20.1,20.2c1.7,1.6,3.5,3.2,5.3,4.7l2.7,2.3l2.8,2.2c3.7,2.9,7.7,5.4,11.7,7.7c2,1.2,4.2,2,6.3,3.1
		c2.1,0.9,4.3,1.7,6.5,2.5c2.2,0.6,4.5,1.3,6.7,1.8c2.3,0.4,4.6,0.9,6.9,1.2c2.3,0.2,4.6,0.5,6.9,0.6c2.3,0,4.7,0,7-0.1l7-0.6
		c2.3-0.3,4.6-0.8,6.9-1.2c2.3-0.3,4.6-1.1,6.8-1.6l3.4-0.9c1.1-0.3,2.2-0.7,3.4-1.1l6.7-2.2l6.5-2.6l3.3-1.3l3.2-1.5l2.1-1l4.3-2
		c3.5-1.7,6.9-3.6,10.3-5.4c-13.1-12-26.4-23.7-40.6-34.4c-1.9-1.4-3.7-2.8-5.6-4.1c-1.9-1.4-3.8-2.7-5.7-4
		c-1.9-1.3-3.8-2.6-5.8-3.9c-1.9-1.3-3.9-2.5-5.9-3.7c-2-1.2-4-2.4-6-3.5c-2-1.1-4-2.3-6.1-3.4c-2-1.1-4.1-2.2-6.2-3.1
		c-2.1-1-4.1-2-6.3-2.9c-2.1-0.9-4.2-1.9-6.4-2.7c-2.2-0.8-4.3-1.7-6.5-2.4c-2.2-0.7-4.4-1.5-6.6-2c-2.2-0.6-4.5-1.3-6.7-1.7
		c-2.3-0.5-4.5-1-6.8-1.3c-2.3-0.3-4.6-0.7-6.9-0.9l-3.4-0.3c-1.2-0.1-2.3-0.1-3.5-0.1l-3.5-0.1c-1.2,0-2.3,0.1-3.4,0.1l-3.5,0.2
		c-1.2,0.1-2.3,0.3-3.4,0.4l-3.4,0.4c-1.2,0.2-2.3,0.4-3.4,0.7l-3.4,0.7c-1.1,0.3-2.2,0.6-3.3,0.9l-3.3,0.9
		c-1.1,0.3-2.2,0.8-3.3,1.2c-2.2,0.8-4.4,1.6-6.4,2.6c-2.1,1-4.3,1.9-6.3,3.1c-2,1.1-4.1,2.2-6.1,3.4l-5.9,3.8l2.7-1.9l3-2.1
		c1.9-1.3,4-2.4,6-3.7c2-1.3,4.1-2.2,6.2-3.3c2.1-1.1,4.3-1.9,6.4-2.8c1.1-0.4,2.2-0.9,3.3-1.3l3.4-1c1.1-0.3,2.2-0.7,3.4-1l3.4-0.8
		c1.1-0.3,2.3-0.5,3.4-0.8l3.5-0.5c1.2-0.2,2.3-0.4,3.5-0.5l3.5-0.3c1.2-0.1,2.3-0.2,3.5-0.2l3.5,0c1.2,0,2.3,0,3.5,0l3.5,0.3
		c2.4,0.1,4.7,0.4,7,0.8c2.3,0.3,4.6,0.8,6.9,1.2c2.3,0.4,4.6,1,6.9,1.6c0,0,0.1,0,0.1,0c1.1,0.3,2.1,0.6,3.2,0.9c0,0,0,0,0.1,0
		c1.2,0.3,2.3,0.7,3.4,1.1c2.3,0.7,4.5,1.5,6.7,2.3c0.1,0,0.2,0.1,0.3,0.1c2.1,0.7,4.2,1.6,6.3,2.5c2.2,0.9,4.3,1.9,6.4,2.9
		c2.1,1,4.2,2,6.3,3.1c2.1,1,4.1,2.2,6.2,3.3c2.1,1.1,4.1,2.3,6.1,3.5c1.5,0.9,3,1.8,4.4,2.7c0.5,0.3,1,0.7,1.6,1
		c2,1.2,3.9,2.5,5.9,3.9c2,1.3,3.9,2.6,5.8,4c1.9,1.3,3.8,2.7,5.7,4.1c15.1,11.1,29.2,23.5,43,36.1L400,442.5z"/>
	<path fill="#594A42" d="M323.3,525.7c-2.1-0.1-4.3-0.1-6.4-0.3l-3.1-0.3h-0.1l-3.2-0.5c-1.1-0.1-2.1-0.4-3.2-0.6
		c-1-0.3-2.1-0.4-3.2-0.8c-1-0.3-2.1-0.7-3.1-1l-3-1.2c-1-0.5-2-1-2.9-1.5c-1-0.5-1.9-1.2-2.8-1.8c-0.9-0.6-1.7-1.3-2.6-2
		c-0.8-0.7-1.6-1.5-2.4-2.3c-0.7-0.8-1.5-1.7-2.2-2.5c-0.6-0.9-1.3-1.8-1.9-2.7c-1.2-1.9-2.2-3.8-3.1-5.8c-0.9-2-1.7-4-2.4-6
		c-1.4-4.1-2.4-8.2-3.5-12.2c-0.5-2-1.1-4.1-1.7-6.1c-0.6-2-1.4-4-2.2-5.9c-0.1-0.1-0.1-0.3-0.2-0.5c-0.8-1.7-1.7-3.5-2.8-5
		c-1.1-1.8-2.6-3.3-4.1-4.8c1.6,1.3,3.2,2.8,4.5,4.5c1.4,1.7,2.4,3.5,3.4,5.4c0.1,0.1,0.1,0.2,0.1,0.3c0.9,1.8,1.8,3.7,2.5,5.6
		c0.8,2,1.5,4,2.1,6c1.3,4,2.5,8.1,4.1,11.9c0.8,1.9,1.6,3.9,2.5,5.7c0.9,1.8,2,3.6,3.1,5.3c0.6,0.9,1.2,1.6,1.8,2.4
		c0.7,0.8,1.4,1.5,2.1,2.2c0.8,0.7,1.5,1.4,2.2,2c0.8,0.6,1.6,1.2,2.4,1.8c0.9,0.5,1.7,1.1,2.6,1.6c0.9,0.4,1.8,0.9,2.7,1.3l2.8,1.1
		c1,0.3,1.9,0.6,2.9,0.9c1,0.3,2,0.5,3,0.7c1,0.2,2,0.5,3,0.6l1.4,0.2l1.6,0.3l3.1,0.3c2,0.2,4.1,0.2,6.2,0.3c1.2,0,2.5,0,3.7,0
		c-2.6-6.9-5.4-13.8-8.6-20.4c-1.8-3.7-3.7-7.3-5.8-10.8c-1-1.7-2.2-3.5-3.3-5.1c-1.2-1.7-2.4-3.3-3.6-4.9c-1.3-1.6-2.6-3.1-4-4.6
		c-0.4-0.4-0.7-0.8-1.1-1.1c-1.1-1.1-2.2-2.1-3.3-3.1c-1.5-1.3-3.2-2.6-4.9-3.6c-0.8-0.6-1.7-1.1-2.6-1.6c-0.9-0.5-1.8-1-2.7-1.4
		c-0.9-0.5-1.8-0.9-2.8-1.2c-0.9-0.4-1.9-0.7-2.9-1c-1-0.3-2-0.6-3-0.8c-0.5-0.1-0.9-0.2-1.3-0.3c-0.6-0.1-1.1-0.2-1.7-0.3
		c-2-0.3-4.1-0.4-6.1-0.4c-1,0-2.1,0-3.1,0.1l-3.1,0.3l3.1-0.5c1-0.2,2.1-0.2,3.1-0.3c2.1-0.1,4.2-0.1,6.2,0h0.1c1,0,2,0.2,3,0.4
		c1,0.1,2.1,0.3,3.1,0.6c1,0.2,2,0.5,3,0.8c1,0.3,2,0.7,3,1.1c1,0.4,1.9,0.8,2.9,1.3c1,0.4,1.9,1,2.8,1.5c1.8,1.1,3.6,2.3,5.2,3.6
		c2.5,2,4.9,4.1,7,6.4c0.7,0.8,1.4,1.5,2.1,2.3c1.4,1.6,2.7,3.3,3.9,5c1.3,1.7,2.4,3.4,3.6,5.2c2.3,3.5,4.3,7.2,6.2,11
		c3.8,7.5,6.9,15.3,9.9,23l0.9,2.4l-2.5,0C327.6,525.6,325.5,525.7,323.3,525.7z"/>
	<path fill="#DECFB1" d="M323.4,522.1c-2.1-0.1-4.1,0-6.2-0.3l-3.1-0.3l-3-0.5c-1-0.1-2-0.3-3-0.6c-1-0.3-2-0.4-3-0.7
		c-1-0.3-1.9-0.6-2.9-0.9l-2.8-1.1c-0.9-0.4-1.8-0.9-2.7-1.3c-0.9-0.5-1.7-1-2.6-1.6c-0.8-0.5-1.6-1.2-2.4-1.8
		c-0.8-0.6-1.5-1.3-2.2-2c-0.7-0.7-1.4-1.5-2.1-2.2c-0.6-0.8-1.3-1.6-1.8-2.4c-1.1-1.7-2.2-3.4-3.1-5.3c-0.9-1.8-1.7-3.8-2.5-5.7
		c-1.5-3.9-2.7-7.9-4.1-11.9c-0.7-2-1.4-4-2.1-6c-0.8-2-1.6-3.9-2.6-5.8c-1-1.9-2.1-3.7-3.4-5.4c-1.3-1.7-2.9-3.1-4.5-4.5l3.1-0.3
		c1-0.1,2.1,0,3.1-0.1c2.1,0,4.1,0.1,6.1,0.4c1,0.1,2,0.3,3,0.5c1,0.2,2,0.5,3,0.8c1,0.3,1.9,0.6,2.9,1c1,0.3,1.9,0.8,2.8,1.2
		c0.9,0.4,1.8,0.9,2.7,1.4c0.9,0.5,1.7,1,2.6,1.6c1.7,1.1,3.3,2.3,4.9,3.6c1.6,1.3,3,2.7,4.4,4.2c1.4,1.5,2.8,3,4,4.6
		c1.3,1.6,2.5,3.2,3.6,4.9c1.2,1.7,2.3,3.4,3.3,5.1c2.1,3.5,4.1,7.1,5.8,10.8c3.2,6.6,6,13.5,8.6,20.4
		C325.8,522.1,324.6,522.1,323.4,522.1z"/>
	<path fill="#726658" d="M106.5,207.9c-0.1,3.2,0,6.4,0.4,9.5c0.3,2.1,0.7,4.2,1.2,6.2c0.3,1,0.5,2,0.9,3c0.3,1,0.7,2,1.1,3
		c0.4,1,0.8,1.9,1.4,2.9c0.5,0.9,1,1.9,1.6,2.8c0.5,0.9,1.1,1.8,1.8,2.6c0.6,0.8,1.2,1.7,1.9,2.4c3.6,36.3-12.5,74.1,3.3,104.2
		c-1.8-0.4-3.6-0.9-5.3-1.4c-1.5-2.9-2.7-5.9-3.6-9c-1.5-4.5-2.2-9.2-2.9-13.9c-0.5-4.7-0.8-9.5-0.8-14.2c-0.1-4.8,0.1-9.5,0.3-14.3
		c0.3-9.5,0.8-19,0.6-28.6c-0.1-2.4-0.1-4.8-0.3-7.2l-0.3-3.6l-0.4-3.6c-0.5-4.8-1.5-9.5-2.7-14.2c-0.6-2.4-1.5-4.6-2.2-6.9
		c-0.9-2.3-1.9-4.5-2.8-6.7c-1.2-2.1-2.3-4.3-3.6-6.4c-1.4-2-2.6-4.1-4.1-6c-1.6-1.9-3-3.8-4.7-5.6c-1.7-1.7-3.4-3.5-5.1-5.1
		l-5.5-4.7c-1.9-1.5-3.9-2.8-5.9-4.2c-1.9-1.5-4.1-2.6-6.1-3.9l-3.1-1.9c-1-0.6-2.1-1.1-3.2-1.7l-6.4-3.3l-6.6-2.9l-3.3-1.4
		l-3.4-1.3l-3.4-1.3c0.1-4.8,0.3-9.5,0.4-13.9C74.6,172.2,95.6,189.4,106.5,207.9z"/>
	<path fill="#726658" d="M158.8,197.7c-1,1.6-2,3.1-2.9,4.7c-1.2,2-2.4,4-3.5,6.1c-1.2,2-2.3,4.1-3.3,6.2c-1.1,2.1-2.1,4.2-3.1,6.4
		c-1,2.1-2,4.3-2.9,6.4c-0.6,1.6-1.4,3.2-2,4.9c0,0,0,0,0,0c-1.8,3.5-3.2,7.2-3.7,11c-0.3,1-0.6,2.1-0.9,3.1
		c-3.4-3.1-6.2-6.3-8.4-9.7c0.1-0.1,0.1-0.3,0.2-0.5c0.8-2,1.6-3.9,2.6-5.7c1-1.9,2-3.7,3-5.5c2.1-3.7,4.2-7.3,6.1-11.1
		c0.9-1.9,1.8-3.9,2.6-5.9c0.8-2,1.4-4.1,1.8-6.3c0.3-1.1,0.4-2.2,0.5-3.2c0.1-1.1,0.2-2.2,0.3-3.3c-0.1-1.1,0-2.2-0.1-3.3
		c-0.1-1.1-0.2-2.2-0.5-3.3c-0.2-1.1-0.4-2.2-0.7-3.2c-0.3-1-0.6-2.1-1-3.2l-1.3-3c-0.5-1-1-2-1.5-2.9c-0.5-1-1.1-1.9-1.7-2.8
		c-0.6-0.9-1.2-1.9-1.8-2.7l-1.9-2.6l-0.1-0.1c2.1-4.3,4.3-8.3,6.3-11.9C157.1,173.4,160.7,186.6,158.8,197.7z"/>
	<path fill="#DECFB1" d="M84.8,205.2c1.6,1.7,3,3.6,4.5,5.3c1.5,1.8,2.7,3.8,4,5.7c1.2,2,2.3,4.1,3.4,6.1c1,2.1,2,4.2,2.8,6.4
		c0.7,2.2,1.7,4.4,2.3,6.6c1.3,4.5,2.3,9.1,2.9,13.8l0.5,3.5l0.3,3.5c0.3,2.4,0.3,4.7,0.4,7.1c0.4,9.5,0.1,19-0.1,28.5
		c0,4.8-0.1,9.5,0.2,14.3c0.1,4.8,0.6,9.5,1.2,14.3c0.8,4.7,1.7,9.4,3.4,13.9c1.2,3.8,3,7.3,4.9,10.7c0.4,0.7,0.8,1.4,1.3,2.1
		l-6.8-1.5c-2.3-0.5-4.5-1.3-6.7-1.9c-2.2-0.6-4.4-1.5-6.6-2.3c-2.2-0.7-4.3-1.8-6.4-2.7c-1.1-0.5-2.1-0.9-3.2-1.5l-3-1.7
		c-1-0.6-2-1.1-3-1.7l-2.9-1.9c-1-0.6-1.9-1.3-2.9-1.9l-2.7-2.1c-0.9-0.7-1.8-1.4-2.7-2.2l-2.6-2.3c-0.8-0.8-1.7-1.5-2.5-2.4
		l-2.4-2.5c-0.8-0.9-1.6-1.7-2.4-2.5l-2.2-2.7c-1.5-1.7-2.9-3.6-4.2-5.5c-1.4-1.8-2.6-3.8-3.9-5.7c-1.3-1.9-2.4-3.9-3.5-6
		c-1.2-2-2.2-4.1-3.2-6.1c-1.1-2-2-4.2-2.9-6.3c-1-2.1-1.8-4.3-2.6-6.4c-0.9-2.1-1.6-4.3-2.4-6.5c-0.8-2.2-1.5-4.4-2.1-6.6
		c-0.7-2.2-1.3-4.5-1.9-6.7c-0.6-2.2-1.2-4.5-1.7-6.7c-0.6-2.3-1.1-4.5-1.6-6.8c-0.5-2.3-1-4.6-1.4-6.8c-0.5-2.3-0.9-4.6-1.2-6.9
		c-0.4-2.3-0.7-4.6-1.1-6.9c-2.5-17.6-3.7-35.3-4.5-53.1c3.7,1.2,7.4,2.2,11.1,3.5l6.6,2.4l3.3,1.2l3.2,1.4l6.5,2.8l6.3,3.2
		c1,0.5,2.1,1,3.1,1.6l3,1.8c2,1.2,4.1,2.3,6,3.7c1.9,1.4,3.8,2.7,5.7,4.1l5.4,4.5C81.5,201.9,83.1,203.6,84.8,205.2z"/>
	<path fill="#594A42" d="M116.9,347.1l-3.3-0.6l-3.6-0.6c-2.3-0.4-4.5-1.1-6.8-1.6c-2.3-0.5-4.5-1.4-6.7-2.1
		c-2.2-0.7-4.4-1.7-6.5-2.6c-1.1-0.5-2.2-0.9-3.2-1.4l-3.1-1.6c-1-0.6-2.1-1.1-3.1-1.7l-3-1.9c-1-0.6-2-1.2-3-1.9l-2.8-2.1
		c-1-0.7-1.9-1.4-2.8-2.1l-2.7-2.3c-0.9-0.8-1.8-1.5-2.7-2.3l-2.5-2.5c-0.8-0.9-1.7-1.6-2.5-2.5l-2.3-2.7c-1.6-1.8-3-3.6-4.4-5.5
		c-1.5-1.8-2.7-3.8-4.1-5.8c-1.4-1.9-2.5-4-3.7-6c-1.2-2-2.3-4.1-3.4-6.2c-1.1-2.1-2.1-4.2-3.1-6.4c-1-2.1-1.9-4.3-2.8-6.5
		c-0.3-0.7-0.6-1.3-0.8-2c-0.6-1.5-1.2-3.1-1.7-4.6c-0.8-2.2-1.6-4.5-2.3-6.7c-0.8-2.2-1.4-4.5-2-6.7c-0.7-2.3-1.2-4.5-1.8-6.8
		c-0.2-0.8-0.4-1.6-0.6-2.4c-0.4-1.5-0.7-3-1-4.5c-0.5-2.3-1-4.6-1.4-6.9c-0.5-2.3-0.9-4.6-1.3-7c-0.4-2.3-0.8-4.6-1.1-7
		c-2.8-18.6-4.1-37.3-4.9-56l-0.1-2.6l2.4,0.8c4.5,1.4,9.1,2.8,13.7,4.3l3.4,1.2l3.4,1.2l3.4,1.3l3.3,1.4l6.6,2.9l6.4,3.3
		c1.1,0.6,2.1,1.1,3.2,1.7l3.1,1.9c2,1.3,4.2,2.4,6.1,3.9c2,1.4,3.9,2.8,5.9,4.3l5.5,4.7c1.7,1.6,3.4,3.4,5.1,5.1
		c1.7,1.8,3.1,3.7,4.7,5.6c1.5,1.9,2.7,4,4.1,6c1.3,2.1,2.3,4.2,3.6,6.4c1,2.2,1.9,4.5,2.9,6.7c0.7,2.3,1.6,4.6,2.2,6.9
		c1.2,4.7,2.2,9.4,2.7,14.2l0.4,3.6l0.3,3.6c0.2,2.4,0.2,4.8,0.3,7.2c0.2,9.6-0.3,19.1-0.6,28.6c-0.2,4.8-0.3,9.5-0.3,14.3
		c0,4.7,0.3,9.5,0.8,14.2c0.7,4.7,1.4,9.4,2.9,13.9c0.9,3.1,2.1,6.1,3.6,9C115.4,344.4,116.1,345.8,116.9,347.1
		c-0.4-0.7-0.8-1.4-1.3-2.1c-0.4-0.7-0.8-1.3-1.1-2c-1.5-2.8-2.9-5.7-3.8-8.7c-1.7-4.5-2.5-9.2-3.4-13.9c-0.6-4.8-1.1-9.5-1.2-14.3
		c-0.2-4.8-0.2-9.5-0.1-14.3c0.1-9.6,0.5-19,0.1-28.5c-0.1-2.4-0.2-4.7-0.5-7.1l-0.3-3.5l-0.5-3.5c-0.6-4.7-1.6-9.3-2.9-13.8
		c-0.6-2.3-1.5-4.4-2.3-6.6c-0.9-2.2-1.9-4.3-2.8-6.4c-1.2-2-2.2-4.1-3.4-6.1c-1.4-1.9-2.6-3.9-4-5.7c-1.5-1.8-2.9-3.6-4.5-5.3
		c-1.7-1.6-3.3-3.3-5-4.9l-5.4-4.5c-1.9-1.4-3.8-2.7-5.7-4.1c-1.9-1.4-4-2.5-6-3.7l-3-1.8c-1-0.6-2.1-1.1-3.1-1.6l-6.3-3.2l-6.5-2.8
		l-3.2-1.4l-3.3-1.2l-2.2-0.8l-4.4-1.6c-3.7-1.2-7.4-2.3-11.1-3.5c0.8,17.8,2,35.6,4.5,53.1c0.3,2.3,0.7,4.6,1.1,6.9
		c0.4,2.3,0.8,4.6,1.2,6.9c0.4,2.3,0.8,4.6,1.4,6.8c0.5,2.3,1,4.5,1.6,6.8c0.5,2.2,1.1,4.5,1.7,6.7c0.6,2.2,1.2,4.5,1.9,6.7
		c0.7,2.2,1.3,4.5,2.1,6.6c0.8,2.2,1.5,4.4,2.4,6.5c0.8,2.2,1.7,4.3,2.6,6.4c1,2.1,1.8,4.2,2.9,6.3c1,2,2,4.1,3.2,6.1
		c1.2,2,2.3,4.1,3.6,6c1.2,1.9,2.5,3.9,3.9,5.7c1.4,1.9,2.7,3.7,4.2,5.5l2.2,2.7c0.8,0.9,1.6,1.7,2.4,2.5l2.4,2.5
		c0.8,0.8,1.7,1.6,2.5,2.4l2.6,2.3c0.9,0.8,1.8,1.4,2.7,2.2l2.7,2.1c0.9,0.7,1.9,1.3,2.9,1.9l2.9,2c1,0.6,2,1.1,3,1.7l3,1.7
		c1,0.6,2.1,1,3.1,1.5c2.1,1,4.2,2,6.4,2.8c2.2,0.8,4.3,1.7,6.6,2.3c2.2,0.6,4.4,1.4,6.7,1.9L116.9,347.1z"/>
	<path fill="#594A42" d="M128.6,160.7c1.4,1.6,3,3.1,4.3,4.8l2,2.4l0.1,0.1l1.9,2.6c0.7,0.9,1.2,1.8,1.8,2.7
		c0.5,0.9,1.2,1.8,1.7,2.8c0.5,1,1,1.9,1.5,2.9l1.3,3c0.4,1,0.7,2.1,1,3.2c0.3,1.1,0.5,2.2,0.7,3.2c0.2,1.1,0.3,2.2,0.4,3.3
		c0.1,1.1,0.1,2.2,0.1,3.3c-0.1,1.1-0.1,2.2-0.2,3.3c-0.2,1.1-0.3,2.2-0.5,3.3c-0.5,2.2-1.1,4.2-1.8,6.3c-0.7,2-1.6,4-2.6,5.9
		c-1.9,3.8-4.1,7.5-6.1,11.2c-1.1,1.8-2.1,3.6-3,5.5c-1,1.9-1.8,3.8-2.6,5.7c-0.1,0.2-0.1,0.3-0.2,0.5c-0.7,1.8-1.3,3.6-1.6,5.5
		c-0.5,2-0.5,4.2-0.5,6.3c-0.2-2.1-0.3-4.2,0-6.4c0.2-2.1,0.8-4.2,1.4-6.3c0-0.1,0.1-0.2,0.1-0.3c0.6-1.9,1.4-3.8,2.2-5.7
		c0.9-2,1.8-3.9,2.7-5.8c1.9-3.8,3.9-7.5,5.5-11.3c0.8-1.9,1.6-3.8,2.3-5.8c0.7-1.9,1.1-3.9,1.5-5.9c0.2-1,0.3-2,0.4-3
		c0.1-1,0.1-2,0.1-3c-0.1-1-0.1-2-0.2-3c-0.2-1-0.2-2-0.5-3c-0.3-1-0.4-2-0.7-2.9c-0.3-0.9-0.6-1.9-1-2.9l-1.2-2.8
		c-0.5-0.9-1-1.8-1.4-2.7c-0.4-0.9-1.1-1.7-1.6-2.6c-0.5-0.9-1.1-1.7-1.7-2.5l-0.9-1.2l-1-1.3l-2-2.4c-1.3-1.6-2.8-3.1-4.2-4.6
		c-0.9-0.9-1.7-1.8-2.7-2.6c-3,6.7-5.9,13.6-8.3,20.5c-1.3,3.9-2.5,7.8-3.5,11.8c-0.5,2-0.9,4-1.3,6c-0.4,2-0.7,4-0.9,6.1
		c-0.2,2-0.4,4-0.4,6.1c0,0.5,0,1,0,1.5c0,1.5,0,3,0.2,4.5c0.2,2,0.4,4,0.9,6c0.2,1,0.4,2,0.7,3c0.3,1,0.6,2,0.9,2.9
		c0.3,1,0.7,1.9,1.1,2.8c0.4,0.9,0.8,1.9,1.3,2.7c0.5,0.9,1,1.8,1.5,2.6c0.3,0.4,0.5,0.8,0.8,1.1c0.3,0.5,0.6,0.9,1,1.4
		c1.2,1.7,2.6,3.2,4,4.7c0.7,0.7,1.4,1.5,2.2,2.2l2.4,2l-2.5-1.8c-0.8-0.6-1.6-1.3-2.4-2c-1.6-1.4-3-2.9-4.4-4.5l-0.1-0.1
		c-0.7-0.8-1.3-1.6-1.9-2.4c-0.7-0.8-1.2-1.7-1.8-2.6c-0.6-0.9-1.1-1.8-1.6-2.8c-0.5-0.9-0.9-1.9-1.4-2.9c-0.4-1-0.8-2-1.1-3
		c-0.4-1-0.7-2-0.9-3c-0.5-2.1-0.9-4.1-1.2-6.2c-0.4-3.2-0.5-6.4-0.4-9.5c0-1,0.1-2.1,0.2-3.1c0.2-2.1,0.4-4.2,0.7-6.3
		c0.3-2.1,0.7-4.2,1.2-6.2c0.9-4.1,2-8.2,3.3-12.2c2.6-8,5.9-15.7,9.2-23.3l1.1-2.3l1.8,1.8C125.5,157.7,127.1,159.2,128.6,160.7z"
		/>
	<path fill="#DECFB1" d="M126,163.2c1.4,1.5,2.9,3,4.2,4.6l2,2.4l1.8,2.5c0.6,0.8,1.2,1.7,1.7,2.5c0.5,0.9,1.1,1.7,1.6,2.6
		c0.5,0.9,1,1.8,1.4,2.7l1.2,2.8c0.3,0.9,0.6,1.9,1,2.9c0.3,1,0.5,2,0.7,2.9c0.2,1,0.3,2,0.5,3c0.1,1,0.1,2,0.2,3c0,1-0.1,2-0.1,3
		c-0.1,1-0.2,2-0.4,3c-0.4,2-0.9,4-1.5,5.9c-0.6,2-1.4,3.9-2.3,5.8c-1.7,3.8-3.6,7.5-5.5,11.3c-0.9,1.9-1.9,3.8-2.7,5.8
		c-0.9,1.9-1.6,4-2.3,6c-0.6,2-1.1,4.1-1.4,6.3c-0.3,2.1-0.2,4.3,0,6.4l-2.4-2c-0.8-0.7-1.5-1.4-2.2-2.2c-1.4-1.5-2.8-3-4-4.7
		c-0.6-0.8-1.2-1.7-1.7-2.5c-0.6-0.8-1.1-1.7-1.5-2.6c-0.5-0.9-0.9-1.8-1.3-2.7c-0.4-0.9-0.8-1.9-1.1-2.8c-0.4-0.9-0.7-1.9-0.9-2.9
		c-0.3-1-0.5-2-0.7-3c-0.4-2-0.7-4-0.9-6c-0.2-2-0.2-4-0.2-6.1c0-2,0.2-4.1,0.4-6.1c0.2-2,0.5-4,0.9-6.1c0.4-2,0.8-4,1.3-6
		c1-4,2.1-7.9,3.5-11.8c2.4-7,5.2-13.8,8.3-20.5C124.3,161.5,125.1,162.3,126,163.2z"/>
	<path fill="#726658" d="M-25.6,428.7c3.2,0.1,6.4,0,9.5-0.4c2.1-0.3,4.2-0.7,6.2-1.2c1-0.3,2-0.5,3-0.9c1-0.3,2-0.7,3-1.1
		c1-0.4,1.9-0.8,2.9-1.4c0.9-0.5,1.9-1,2.7-1.6c0.9-0.6,1.8-1.1,2.6-1.8c0.8-0.6,1.6-1.2,2.4-1.9c36.2-3.6,73.8,12.5,103.8-3.3
		c-0.4,1.8-0.9,3.6-1.4,5.3c-2.9,1.5-5.8,2.7-9,3.6c-4.5,1.5-9.2,2.2-13.8,2.9c-4.7,0.5-9.4,0.8-14.1,0.8c-4.7,0.1-9.5-0.1-14.2-0.3
		c-9.5-0.3-19-0.8-28.5-0.6c-2.4,0.1-4.8,0.1-7.2,0.3l-3.6,0.3l-3.6,0.4c-4.8,0.5-9.5,1.5-14.1,2.8c-2.3,0.6-4.6,1.5-6.9,2.2
		c-2.2,0.9-4.5,1.9-6.7,2.9c-2.1,1.2-4.3,2.3-6.3,3.6c-2,1.4-4.1,2.6-6,4.2c-1.8,1.6-3.8,3-5.5,4.7c-1.7,1.7-3.5,3.4-5.1,5.1
		l-4.7,5.6c-1.5,1.9-2.8,3.9-4.2,5.9c-1.5,1.9-2.6,4.1-3.9,6.1l-1.9,3.1c-0.6,1-1.1,2.1-1.7,3.2l-3.3,6.4l-2.9,6.6l-1.4,3.3
		l-1.3,3.4l-1.3,3.4c-4.8-0.1-9.5-0.3-13.9-0.4C-61.2,460.7-44,439.7-25.6,428.7z"/>
	<path fill="#726658" d="M13,398.4c-3.1,3.5-6.4,6.3-9.8,8.5c-0.1-0.1-0.3-0.1-0.5-0.2c-1.9-0.8-3.8-1.6-5.7-2.6
		c-1.9-1-3.7-2-5.5-3.1c-3.6-2.1-7.3-4.3-11.1-6.2c-1.9-0.9-3.9-1.8-5.9-2.6c-2-0.8-4.1-1.4-6.3-1.9c-1-0.2-2.1-0.3-3.2-0.5
		c-1.1-0.1-2.2-0.2-3.3-0.3c-1.1,0.1-2.2,0-3.3,0.1c-1.1,0.1-2.2,0.2-3.3,0.4c-1.1,0.2-2.2,0.4-3.2,0.7c-1,0.3-2.1,0.6-3.2,1l-3,1.3
		c-1,0.5-1.9,1-2.9,1.5c-1,0.5-1.9,1.1-2.8,1.7c-0.9,0.6-1.9,1.2-2.7,1.8l-2.6,1.9l-0.1,0.1c-4.3-2.2-8.3-4.3-11.9-6.4
		c17.2-15.8,30.2-19.5,41.2-17.7c1.4,0.9,2.8,1.7,4.2,2.6c2,1.2,4,2.4,6.1,3.5c2,1.2,4.1,2.3,6.2,3.3c2.1,1.1,4.2,2.2,6.3,3.1
		c2.1,1,4.2,2,6.4,2.9c1.7,0.7,3.4,1.4,5.1,2.1c3.9,2,7.8,3.6,12,4C11.2,398,12.1,398.2,13,398.4z"/>
	<path fill="#DECFB1" d="M-28.3,450.5c1.7-1.6,3.5-3,5.3-4.5c1.8-1.5,3.8-2.7,5.7-4c2-1.2,4-2.3,6-3.5c2.1-1,4.2-2,6.4-2.9
		c2.2-0.7,4.4-1.7,6.6-2.3c4.5-1.3,9.1-2.3,13.7-2.9L19,430l3.5-0.3c2.3-0.3,4.7-0.3,7.1-0.4c9.4-0.4,18.9-0.1,28.4,0.1
		c4.7,0,9.5,0.1,14.3-0.2c4.8-0.1,9.5-0.6,14.2-1.2c4.7-0.8,9.4-1.7,13.9-3.4c3.8-1.2,7.3-3,10.7-5c0.7-0.4,1.4-0.8,2.1-1.3
		l-1.5,6.9c-0.5,2.3-1.3,4.5-1.9,6.7c-0.6,2.3-1.5,4.4-2.3,6.6c-0.7,2.2-1.8,4.3-2.7,6.4c-0.5,1.1-0.9,2.1-1.5,3.2l-1.7,3
		c-0.6,1-1.1,2-1.7,3L98,457c-0.6,1-1.3,1.9-1.9,2.9l-2.1,2.7c-0.7,0.9-1.4,1.8-2.2,2.7l-2.3,2.6c-0.8,0.8-1.5,1.7-2.3,2.5l-2.5,2.4
		c-0.9,0.8-1.6,1.6-2.5,2.4l-2.7,2.2c-1.7,1.5-3.6,2.9-5.5,4.2c-1.8,1.4-3.8,2.6-5.7,3.9c-1.9,1.3-3.9,2.4-5.9,3.6
		c-2,1.2-4.1,2.2-6.1,3.2c-2,1.1-4.2,2-6.3,2.9c-2.1,1-4.3,1.8-6.4,2.6c-2.1,0.9-4.3,1.6-6.5,2.4c-2.2,0.8-4.4,1.5-6.6,2.2
		c-2.2,0.7-4.4,1.3-6.7,1.9c-2.2,0.6-4.5,1.2-6.7,1.7c-2.2,0.6-4.5,1.1-6.8,1.6c-2.3,0.5-4.6,1-6.8,1.4c-2.3,0.5-4.6,0.9-6.8,1.2
		c-2.3,0.4-4.6,0.7-6.9,1.1c-17.5,2.5-35.2,3.7-53,4.5c1.2-3.7,2.2-7.5,3.5-11.1l2.4-6.7l1.2-3.3l1.4-3.3l2.8-6.5l3.2-6.3
		c0.5-1,1-2.1,1.6-3.1l1.8-3c1.2-2,2.3-4.1,3.7-6c1.4-1.9,2.7-3.9,4.1-5.7l4.5-5.4C-31.6,453.8-29.9,452.2-28.3,450.5z"/>
	<path fill="#594A42" d="M113.2,418.3l-0.6,3.3l-0.6,3.6c-0.4,2.3-1.1,4.5-1.6,6.8c-0.5,2.3-1.4,4.5-2.1,6.7
		c-0.7,2.2-1.7,4.4-2.6,6.6c-0.5,1.1-0.9,2.2-1.4,3.2l-1.6,3.1c-0.6,1-1.1,2.1-1.7,3.1l-1.9,3c-0.6,1-1.2,2-1.9,3l-2.1,2.8
		c-0.7,1-1.4,1.9-2.1,2.8l-2.3,2.7c-0.8,0.9-1.5,1.8-2.3,2.7l-2.5,2.5c-0.8,0.8-1.6,1.7-2.5,2.5l-2.7,2.3c-1.8,1.6-3.6,3-5.5,4.4
		c-1.8,1.5-3.8,2.8-5.8,4.1c-1.6,1.1-3.2,2.1-4.9,3.1c-0.4,0.2-0.7,0.4-1.1,0.6c-0.6,0.3-1.1,0.7-1.7,1c-1.5,0.9-3,1.6-4.5,2.4
		c-1.6,0.9-3.3,1.7-5,2.5c-0.5,0.2-0.9,0.4-1.3,0.6c-2.1,1-4.3,1.9-6.5,2.8c-2.2,0.9-4.4,1.7-6.6,2.5c-2.2,0.9-4.4,1.6-6.7,2.3
		c-2.2,0.8-4.5,1.4-6.7,2c-2.3,0.7-4.5,1.2-6.8,1.8c-1.5,0.4-3,0.8-4.6,1.1c-0.7,0.2-1.5,0.3-2.3,0.5c-2.3,0.5-4.6,1-6.9,1.4
		c-2.3,0.5-4.6,0.9-6.9,1.3c-2.3,0.4-4.6,0.8-6.9,1.1c-18.5,2.8-37.2,4.1-55.8,4.9l-2.6,0.1l0.8-2.4c1.4-4.6,2.8-9.2,4.3-13.7
		l1.2-3.4l1.2-3.4l1.3-3.4l1.4-3.3l2.9-6.6l3.3-6.4c0.6-1.1,1.1-2.2,1.7-3.2l1.9-3.1c1.3-2,2.4-4.2,3.8-6.1c1.4-2,2.8-3.9,4.2-5.9
		l4.7-5.6c1.6-1.8,3.4-3.4,5.1-5.1c1.7-1.7,3.7-3.1,5.6-4.7c1.9-1.5,4-2.8,6-4.2c2.1-1.3,4.2-2.4,6.3-3.6c2.2-1,4.4-2,6.7-2.9
		c2.3-0.7,4.6-1.6,6.9-2.2c4.7-1.2,9.4-2.2,14.1-2.8l3.6-0.4l3.6-0.3c2.4-0.2,4.8-0.2,7.1-0.3c9.6-0.3,19.1,0.3,28.5,0.6
		c4.7,0.2,9.5,0.3,14.2,0.3c4.7,0,9.4-0.3,14.1-0.8c4.7-0.7,9.4-1.4,13.8-2.9c3.1-0.9,6.1-2.1,8.9-3.6
		C110.5,419.8,111.8,419.1,113.2,418.3c-0.7,0.4-1.4,0.9-2.1,1.3c-0.7,0.4-1.3,0.8-2,1.1c-2.8,1.5-5.7,2.9-8.7,3.9
		c-4.5,1.7-9.2,2.5-13.9,3.4c-4.7,0.6-9.5,1.1-14.2,1.2c-4.8,0.2-9.5,0.2-14.3,0.1c-9.5-0.1-19-0.5-28.4-0.1
		c-2.4,0.1-4.7,0.2-7.1,0.5L19,430l-3.5,0.5c-4.7,0.6-9.2,1.6-13.7,2.9c-2.3,0.6-4.4,1.5-6.6,2.3c-2.1,0.9-4.2,1.9-6.4,2.8
		c-2,1.2-4.1,2.2-6,3.5c-1.9,1.4-3.9,2.6-5.7,4c-1.8,1.5-3.6,2.9-5.3,4.5c-1.6,1.7-3.3,3.3-4.9,5l-4.5,5.4c-1.4,1.9-2.7,3.8-4.1,5.7
		c-1.4,1.9-2.5,4-3.7,6l-1.8,3c-0.6,1-1.1,2.1-1.6,3.1l-3.2,6.3l-2.8,6.5l-1.4,3.3l-1.2,3.3l-0.8,2.2l-1.6,4.5
		c-1.2,3.7-2.3,7.4-3.5,11.1c17.7-0.8,35.4-2,53-4.5c2.3-0.3,4.6-0.7,6.9-1.1c2.3-0.4,4.6-0.8,6.8-1.2c2.3-0.4,4.5-0.9,6.8-1.4
		c2.3-0.5,4.5-1,6.8-1.6c2.2-0.5,4.5-1.1,6.7-1.7c0.3-0.1,0.6-0.2,0.9-0.3c0.1,0,0.1,0,0.1,0c1.9-0.5,3.8-1,5.6-1.6
		c0.5-0.1,0.9-0.3,1.3-0.4c1.7-0.5,3.5-1.1,5.2-1.7c2.2-0.8,4.4-1.5,6.5-2.4c2.2-0.9,4.3-1.7,6.4-2.6c2.1-1,4.2-1.8,6.3-3
		c2-1,4.1-2,6.1-3.2c2-1.2,4-2.3,6-3.6c1.9-1.2,3.9-2.5,5.7-3.9c1.9-1.4,3.7-2.7,5.5-4.3l2.7-2.2c0.9-0.8,1.7-1.6,2.5-2.4l2.5-2.4
		c0.8-0.8,1.6-1.7,2.3-2.5l2.3-2.6c0.8-0.9,1.4-1.8,2.2-2.7l2.1-2.7c0.7-0.9,1.3-1.9,1.9-2.9l1.9-2.9c0.6-1,1.1-2,1.7-3l1.7-3
		c0.6-1,1-2.1,1.5-3.1c1-2.1,2-4.2,2.7-6.4c0.8-2.2,1.7-4.3,2.3-6.6c0.6-2.2,1.4-4.5,1.9-6.7L113.2,418.3z"/>
	<path fill="#594A42" d="M-72.6,406.6c1.6-1.4,3.1-3,4.8-4.3l2.4-2l0.1-0.1l2.6-1.9c0.9-0.7,1.8-1.2,2.7-1.8
		c0.9-0.6,1.8-1.2,2.8-1.7c1-0.5,1.9-1,2.9-1.5l3-1.3c1-0.4,2.1-0.7,3.2-1c1.1-0.3,2.2-0.5,3.2-0.7c1.1-0.2,2.2-0.3,3.3-0.4
		c1.1-0.1,2.2-0.1,3.3-0.1c1.1,0.1,2.2,0.1,3.3,0.2c1.1,0.2,2.2,0.3,3.2,0.5c2.1,0.5,4.2,1.1,6.3,1.9c2,0.7,4,1.6,5.9,2.6
		c3.8,1.9,7.5,4.1,11.1,6.1c1.8,1.1,3.6,2.1,5.5,3.1c1.8,1,3.8,1.8,5.7,2.6c0.2,0.1,0.3,0.1,0.5,0.2c1.8,0.7,3.6,1.3,5.5,1.6
		c2,0.5,4.1,0.5,6.3,0.5c-2.1,0.2-4.2,0.3-6.3,0c-2.1-0.2-4.2-0.8-6.2-1.4c-0.1,0-0.2-0.1-0.3-0.1c-1.9-0.6-3.8-1.4-5.7-2.2
		c-2-0.9-3.9-1.8-5.8-2.7c-3.8-1.9-7.5-3.9-11.3-5.6c-1.9-0.8-3.8-1.6-5.8-2.3c-1.9-0.7-3.9-1.2-5.9-1.5c-1-0.2-2-0.3-3-0.4
		c-1-0.1-2-0.1-3-0.1c-1,0.1-2,0.1-3,0.2c-1,0.2-2,0.2-3,0.5c-1,0.3-2,0.4-2.9,0.7c-0.9,0.3-1.9,0.6-2.9,1l-2.8,1.2
		c-0.9,0.5-1.8,1-2.7,1.4c-0.9,0.4-1.7,1.1-2.6,1.6c-0.9,0.5-1.7,1.1-2.5,1.7l-1.2,0.9l-1.3,1l-2.4,2c-1.6,1.3-3,2.8-4.6,4.2
		c-0.9,0.9-1.7,1.8-2.6,2.7c6.7,3.1,13.5,5.9,20.5,8.3c3.9,1.3,7.8,2.5,11.7,3.5c2,0.5,4,0.9,6,1.3c2,0.4,4,0.7,6,0.9
		c2,0.2,4,0.4,6.1,0.4c0.5,0,1,0,1.5,0c1.5,0,3,0,4.5-0.2c2-0.2,4-0.4,6-0.9c1-0.2,2-0.4,2.9-0.7c1-0.3,2-0.6,2.9-0.9
		c1-0.3,1.9-0.7,2.8-1.1c0.9-0.4,1.8-0.8,2.7-1.3c0.9-0.5,1.8-1,2.6-1.5c0.4-0.3,0.8-0.5,1.1-0.8c0.5-0.3,0.9-0.6,1.4-1
		c1.7-1.2,3.2-2.6,4.6-4c0.7-0.7,1.5-1.4,2.1-2.2l2-2.4l-1.8,2.5c-0.6,0.8-1.3,1.6-2,2.4c-1.4,1.6-2.8,3.1-4.4,4.4l-0.1,0.1
		c-0.8,0.7-1.6,1.3-2.4,1.9c-0.8,0.7-1.7,1.2-2.6,1.8c-0.9,0.6-1.8,1.1-2.7,1.6c-0.9,0.5-1.9,0.9-2.9,1.4c-1,0.4-2,0.8-3,1.1
		c-1,0.4-2,0.7-3,0.9c-2.1,0.6-4.1,0.9-6.2,1.2c-3.2,0.4-6.3,0.5-9.5,0.4c-1,0-2.1-0.1-3.1-0.2c-2.1-0.2-4.2-0.4-6.3-0.7
		c-2.1-0.3-4.1-0.7-6.2-1.2c-4.1-0.9-8.1-2-12.1-3.4c-8-2.6-15.6-5.9-23.2-9.3l-2.3-1.1l1.8-1.8C-75.6,409.6-74.1,408.1-72.6,406.6z
		"/>
	<path fill="#DECFB1" d="M-70.1,409.2c1.5-1.4,3-2.9,4.6-4.2l2.4-2l2.5-1.8c0.8-0.6,1.7-1.2,2.5-1.7c0.9-0.5,1.7-1.2,2.6-1.6
		c0.9-0.5,1.8-1,2.7-1.4l2.8-1.2c0.9-0.3,1.9-0.6,2.9-1c1-0.3,2-0.5,2.9-0.7c1-0.2,2-0.3,3-0.5c1-0.1,2-0.1,3-0.2c1,0,2,0.1,3,0.1
		c1,0.1,2,0.2,3,0.4c2,0.4,4,0.9,5.9,1.5c2,0.6,3.9,1.4,5.8,2.3c3.8,1.7,7.5,3.6,11.3,5.6c1.9,0.9,3.8,1.9,5.8,2.7
		c1.9,0.9,3.9,1.6,6,2.3c2,0.6,4.1,1.2,6.2,1.4c2.1,0.3,4.2,0.2,6.3,0l-2,2.4c-0.7,0.8-1.4,1.5-2.1,2.2c-1.5,1.4-3,2.8-4.6,4
		c-0.8,0.6-1.7,1.2-2.5,1.8C2.8,420,2,420.5,1,421c-0.9,0.5-1.8,0.9-2.7,1.3c-0.9,0.4-1.9,0.8-2.8,1.1c-0.9,0.4-1.9,0.7-2.9,0.9
		c-1,0.3-2,0.5-2.9,0.7c-2,0.4-4,0.7-6,0.9c-2,0.2-4,0.2-6.1,0.2c-2,0-4.1-0.2-6.1-0.4c-2-0.2-4-0.5-6-0.9c-2-0.4-4-0.8-6-1.3
		c-4-1-7.9-2.2-11.7-3.5c-6.9-2.4-13.8-5.2-20.5-8.3C-71.9,410.9-71,410-70.1,409.2z"/>
	<path fill="#726658" d="M194.9,558.7c0.1-3.2,0-6.4-0.4-9.5c-0.3-2.1-0.7-4.2-1.2-6.2c-0.3-1-0.5-2-0.9-3c-0.3-1-0.7-2-1.1-3
		c-0.4-1-0.8-1.9-1.4-2.9c-0.5-0.9-1-1.9-1.6-2.8c-0.5-0.9-1.1-1.8-1.8-2.6c-0.6-0.8-1.2-1.7-1.9-2.4c-3.6-36.3,12.5-74.1-3.3-104.2
		c1.8,0.4,3.6,0.9,5.3,1.4c1.5,2.9,2.7,5.9,3.6,9c1.5,4.5,2.2,9.2,2.9,13.9c0.5,4.7,0.8,9.5,0.8,14.2c0.1,4.8-0.1,9.5-0.3,14.3
		c-0.3,9.5-0.8,19-0.6,28.6c0.1,2.4,0.1,4.8,0.3,7.2l0.3,3.6l0.4,3.6c0.5,4.8,1.5,9.5,2.7,14.2c0.6,2.4,1.5,4.6,2.2,6.9
		c0.9,2.3,1.9,4.5,2.8,6.7c1.2,2.1,2.3,4.3,3.6,6.4c1.4,2,2.6,4.1,4.1,6c1.6,1.9,3,3.8,4.7,5.6c1.7,1.7,3.4,3.5,5.1,5.1l5.5,4.7
		c1.9,1.5,3.9,2.8,5.9,4.2c1.9,1.5,4.1,2.6,6.1,3.9l3.1,1.9c1,0.6,2.1,1.1,3.2,1.7l6.4,3.3l6.6,2.9l3.3,1.4l3.4,1.3l3.4,1.3
		c-0.1,4.8-0.3,9.5-0.4,13.9C226.8,594.4,205.8,577.2,194.9,558.7z"/>
	<path fill="#726658" d="M173.2,529.8c0,0.1-0.1,0.3-0.2,0.5c-0.8,2-1.6,3.9-2.6,5.7c-0.9,1.9-2,3.7-3,5.5
		c-2.1,3.7-4.2,7.3-6.1,11.1c-1,1.9-1.8,3.9-2.6,5.9c-0.8,2-1.4,4.1-1.9,6.3c-0.2,1.1-0.3,2.2-0.5,3.3c-0.1,1.1-0.2,2.2-0.2,3.3
		c0.1,1.1,0,2.2,0.1,3.3c0.2,1.1,0.2,2.2,0.5,3.3c0.2,1.1,0.4,2.2,0.7,3.2c0.3,1,0.6,2.1,1,3.2l1.3,3c0.5,1,1,2,1.5,2.9
		c0.5,1,1.1,1.9,1.7,2.8c0.6,0.9,1.2,1.9,1.8,2.7l1.9,2.6l0.1,0.1c-2.1,4.3-4.3,8.3-6.4,11.9c-14.6-15.9-18.8-28.3-18-38.8
		c0,0,0.1-0.1,0.1-0.1c1.3-2,2.5-4,3.7-6c1.2-2,2.4-4,3.5-6.1c1.2-2,2.3-4.1,3.3-6.2c1.1-2.1,2.1-4.2,3.1-6.4c1-2.1,2-4.3,2.9-6.4
		c0.9-2.2,1.8-4.3,2.6-6.6c0.8-2.2,1.6-4.4,2.3-6.7c0.6-2.1,1.4-4.3,1.9-6.5C168.7,523.6,171.2,526.7,173.2,529.8z"/>
	<path fill="#DECFB1" d="M216.6,561.4c-1.6-1.7-3-3.6-4.5-5.3c-1.5-1.8-2.7-3.8-4-5.7c-1.2-2-2.3-4.1-3.4-6.1c-1-2.1-2-4.2-2.8-6.4
		c-0.7-2.2-1.7-4.4-2.3-6.6c-1.3-4.5-2.3-9.1-2.9-13.8l-0.5-3.5l-0.3-3.5c-0.3-2.4-0.3-4.7-0.4-7.1c-0.4-9.5-0.1-19,0.1-28.5
		c0-4.8,0.1-9.5-0.2-14.3c-0.1-4.8-0.6-9.5-1.2-14.3c-0.8-4.7-1.7-9.4-3.4-13.9c-1.2-3.8-3-7.3-4.9-10.7c-0.4-0.7-0.8-1.4-1.3-2.1
		l6.8,1.5c2.3,0.5,4.5,1.3,6.7,1.9c2.2,0.6,4.4,1.5,6.6,2.3c2.2,0.7,4.3,1.8,6.4,2.7c1.1,0.5,2.1,0.9,3.2,1.5l3,1.7
		c1,0.6,2,1.1,3,1.7l2.9,1.9c1,0.6,1.9,1.3,2.9,1.9l2.7,2.1c0.9,0.7,1.8,1.4,2.7,2.2l2.6,2.3c0.8,0.8,1.7,1.5,2.5,2.4l2.4,2.5
		c0.8,0.9,1.6,1.7,2.4,2.5l2.2,2.7c1.5,1.7,2.9,3.6,4.2,5.5c1.4,1.8,2.6,3.8,3.9,5.7c1.3,1.9,2.4,3.9,3.5,6c1.2,2,2.2,4.1,3.2,6.1
		c1.1,2,2,4.2,2.9,6.3c1,2.1,1.8,4.3,2.6,6.4c0.9,2.1,1.6,4.3,2.4,6.5c0.8,2.2,1.5,4.4,2.1,6.6c0.7,2.2,1.3,4.5,1.9,6.7
		c0.6,2.2,1.2,4.5,1.7,6.7c0.6,2.3,1.1,4.5,1.6,6.8c0.5,2.3,1,4.6,1.4,6.8c0.5,2.3,0.9,4.6,1.2,6.9c0.4,2.3,0.7,4.6,1.1,6.9
		c2.5,17.6,3.7,35.3,4.5,53.1c-3.7-1.2-7.4-2.2-11.1-3.5l-6.6-2.4l-3.3-1.2l-3.2-1.4l-6.5-2.8l-6.3-3.2c-1-0.5-2.1-1-3.1-1.6l-3-1.8
		c-2-1.2-4.1-2.3-6-3.7c-1.9-1.4-3.8-2.7-5.7-4.1l-5.4-4.5C219.9,564.7,218.3,563,216.6,561.4z"/>
	<path fill="#594A42" d="M285.6,601.5l-2.4-0.8c-4.6-1.4-9.1-2.8-13.7-4.3l-3.4-1.2l-3.4-1.2l-3.4-1.3l-3.3-1.4l-6.6-2.9l-6.4-3.3
		c-1.1-0.6-2.2-1.1-3.2-1.7l-3.1-1.9c-2-1.3-4.2-2.4-6.1-3.9c-2-1.4-4-2.8-5.9-4.3l-5.5-4.7c-1.7-1.6-3.4-3.4-5.1-5.1
		c-1.7-1.8-3.1-3.7-4.7-5.6c-1.5-1.9-2.8-4-4.1-6c-1.3-2.1-2.4-4.2-3.6-6.4c-1-2.2-1.9-4.5-2.9-6.7c-0.7-2.3-1.6-4.6-2.2-6.9
		c-1.2-4.7-2.2-9.4-2.7-14.2l-0.4-3.6l-0.3-3.6c-0.2-2.4-0.2-4.8-0.3-7.2c-0.3-9.6,0.3-19.1,0.6-28.6c0.2-4.8,0.3-9.5,0.3-14.3
		c0-4.7-0.3-9.5-0.8-14.2c-0.7-4.7-1.4-9.4-2.9-13.9c-0.9-3.1-2.1-6.1-3.6-9c-0.7-1.4-1.4-2.7-2.1-4c0.4,0.7,0.8,1.4,1.3,2.1
		c0.4,0.7,0.8,1.3,1.1,2c1.5,2.8,2.9,5.7,3.8,8.7c1.7,4.5,2.5,9.2,3.4,13.9c0.6,4.8,1.1,9.5,1.2,14.3c0.2,4.8,0.2,9.5,0.2,14.3
		c-0.1,9.6-0.5,19-0.1,28.5c0.1,2.4,0.2,4.7,0.5,7.1l0.3,3.5l0.5,3.5c0.6,4.7,1.6,9.3,2.9,13.8c0.6,2.3,1.5,4.4,2.3,6.6
		c0.9,2.2,1.9,4.3,2.9,6.4c1.2,2,2.2,4.1,3.4,6.1c1.4,1.9,2.6,3.9,4,5.7c1.5,1.8,2.9,3.6,4.5,5.3c1.7,1.6,3.3,3.3,5,4.9l5.4,4.5
		c1.9,1.4,3.8,2.7,5.7,4.1c1.9,1.4,4,2.5,6,3.7l3,1.8c1,0.6,2.1,1.1,3.1,1.6l6.3,3.2l6.5,2.8l3.2,1.4l3.3,1.2l2.2,0.8l4.4,1.6
		c3.7,1.2,7.4,2.3,11.1,3.5c-0.8-17.8-1.9-35.6-4.5-53.1c-0.3-2.3-0.6-4.6-1-6.9c-0.4-2.3-0.8-4.6-1.2-6.9c-0.4-2.3-0.9-4.6-1.4-6.8
		c-0.5-2.3-1-4.5-1.6-6.8c-0.3-1.3-0.6-2.6-1-3.9c-0.2-0.9-0.5-1.9-0.8-2.8c-0.6-2.2-1.2-4.5-1.9-6.7c-0.2-0.6-0.4-1.3-0.6-1.9
		c-0.5-1.6-1-3.2-1.6-4.7c-0.8-2.2-1.5-4.4-2.4-6.5c-0.9-2.2-1.7-4.3-2.7-6.4c-1-2.1-1.8-4.2-2.9-6.3c-1-2.1-2-4.2-3.2-6.1
		c-1.2-2-2.3-4.1-3.6-6c-1.2-1.9-2.5-3.9-3.9-5.7c-1.4-1.9-2.7-3.7-4.2-5.5l-2.2-2.7c-0.8-0.9-1.6-1.7-2.4-2.5l-2.4-2.5
		c-0.8-0.8-1.7-1.6-2.5-2.4l-2.6-2.3c-0.9-0.8-1.8-1.4-2.7-2.2l-2.7-2.1c-0.9-0.7-1.9-1.3-2.9-1.9l-2.9-2c-1-0.6-2-1.1-3-1.7l-3-1.7
		c-1-0.6-2.1-1-3.2-1.5c-2.1-1-4.2-2-6.4-2.8c-2.2-0.8-4.3-1.7-6.6-2.3c-2.2-0.6-4.4-1.4-6.7-1.9l-6.8-1.5l3.3,0.6l3.6,0.6
		c2.3,0.4,4.5,1.1,6.8,1.6c2.3,0.5,4.5,1.4,6.7,2.1c2.3,0.7,4.4,1.7,6.5,2.6c1.1,0.5,2.2,0.9,3.2,1.4l3.1,1.6c1,0.5,2.1,1.1,3.1,1.6
		l3,1.9c1,0.6,2,1.2,3,1.9l2.8,2.1c0.9,0.7,1.9,1.4,2.8,2.1l2.7,2.3c0.9,0.8,1.8,1.5,2.7,2.3l2.5,2.5c0.8,0.9,1.7,1.6,2.5,2.5
		l2.3,2.7c1.6,1.8,3,3.6,4.4,5.5c1.5,1.8,2.7,3.8,4.1,5.8c1.4,1.9,2.5,4,3.7,6c0.3,0.4,0.5,0.9,0.8,1.3c0.9,1.6,1.8,3.3,2.6,4.9
		c1.2,2.1,2.1,4.2,3.1,6.4c1,2.1,1.9,4.3,2.8,6.5c0.9,2.2,1.7,4.4,2.5,6.6c0.8,2.2,1.6,4.5,2.3,6.7c0.8,2.2,1.4,4.5,2,6.7
		c0.7,2.3,1.2,4.5,1.8,6.8c0.6,2.3,1.1,4.6,1.6,6.9c0,0,0,0.1,0,0.1c0.5,2.2,1,4.5,1.4,6.8c0.5,2.3,0.9,4.6,1.3,7
		c0.4,2.3,0.8,4.6,1.1,7c2.8,18.6,4.1,37.3,4.9,56L285.6,601.5z"/>
	<path fill="#594A42" d="M172.8,605.9c-1.4-1.6-3-3.1-4.3-4.8l-2-2.4l-0.1-0.1l-1.9-2.6c-0.7-0.9-1.2-1.8-1.8-2.7
		c-0.5-0.9-1.2-1.8-1.7-2.8c-0.5-1-1-1.9-1.5-2.9l-1.3-3c-0.4-1-0.7-2.1-1-3.2c-0.3-1.1-0.5-2.2-0.7-3.2c-0.2-1.1-0.3-2.2-0.4-3.3
		c-0.1-1.1-0.1-2.2-0.1-3.3c0.1-1.1,0.1-2.2,0.2-3.3c0.2-1.1,0.3-2.2,0.5-3.3c0.5-2.2,1.1-4.2,1.8-6.3c0.7-2,1.6-4,2.6-5.9
		c1.9-3.8,4.1-7.5,6.1-11.2c1.1-1.8,2.1-3.6,3-5.5c1-1.9,1.8-3.8,2.6-5.7c0.1-0.2,0.1-0.3,0.2-0.5c0.7-1.8,1.3-3.6,1.6-5.5
		c0.5-2,0.5-4.2,0.5-6.3c0.2,2.1,0.3,4.2,0,6.4c-0.2,2.1-0.8,4.2-1.4,6.3c0,0.1-0.1,0.2-0.1,0.3c-0.6,1.9-1.4,3.8-2.2,5.7
		c-0.9,2-1.8,3.9-2.7,5.8c-1.9,3.8-3.9,7.5-5.5,11.3c-0.8,1.9-1.6,3.8-2.3,5.8c-0.7,1.9-1.1,3.9-1.5,5.9c-0.2,1-0.3,2-0.4,3
		c-0.1,1-0.1,2-0.1,3c0.1,1,0.1,2,0.2,3c0.2,1,0.2,2,0.5,3c0.3,1,0.4,2,0.7,2.9c0.3,0.9,0.6,1.9,1,2.9l1.2,2.8
		c0.5,0.9,1,1.8,1.4,2.7c0.4,0.9,1.1,1.7,1.6,2.6c0.5,0.9,1.1,1.7,1.7,2.5l0.9,1.2l1,1.3l2,2.4c1.3,1.6,2.8,3.1,4.2,4.6
		c0.9,0.9,1.7,1.8,2.7,2.6c3-6.7,5.9-13.6,8.3-20.5c1.3-3.9,2.5-7.8,3.5-11.8c0.5-2,0.9-4,1.3-6c0.4-2,0.7-4,0.9-6.1
		c0.2-2,0.4-4,0.4-6.1c0-0.5,0-1,0-1.5c0-1.5,0-3-0.2-4.5c-0.2-2-0.4-4-0.9-6c-0.2-1-0.4-2-0.7-3c-0.3-1-0.6-2-0.9-2.9
		c-0.3-1-0.7-1.9-1.1-2.8c-0.4-0.9-0.8-1.9-1.3-2.7c-0.5-0.9-1-1.8-1.5-2.6c-0.3-0.4-0.5-0.8-0.8-1.1c-0.3-0.5-0.6-0.9-1-1.4
		c-1.2-1.7-2.6-3.2-4-4.7c-0.7-0.7-1.4-1.5-2.2-2.2l-2.4-2l2.5,1.8c0.8,0.6,1.6,1.3,2.4,2c1.6,1.4,3,2.9,4.4,4.5l0.1,0.1
		c0.7,0.8,1.3,1.6,1.9,2.4c0.7,0.8,1.2,1.7,1.8,2.6c0.6,0.9,1.1,1.8,1.6,2.8c0.5,0.9,0.9,1.9,1.4,2.9c0.4,1,0.8,2,1.1,3
		c0.4,1,0.7,2,0.9,3c0.5,2.1,0.9,4.1,1.2,6.2c0.4,3.2,0.5,6.4,0.4,9.5c0,1-0.1,2.1-0.2,3.1c-0.2,2.1-0.4,4.2-0.7,6.3
		c-0.3,2.1-0.7,4.2-1.2,6.2c-0.9,4.1-2,8.2-3.3,12.2c-2.6,8-5.9,15.7-9.2,23.3l-1.1,2.3l-1.8-1.8
		C175.9,608.9,174.3,607.4,172.8,605.9z"/>
	<path fill="#DECFB1" d="M175.4,603.4c-1.4-1.5-2.9-3-4.2-4.6l-2-2.4l-1.8-2.5c-0.6-0.8-1.2-1.7-1.7-2.5c-0.5-0.9-1.1-1.7-1.6-2.6
		c-0.5-0.9-1-1.8-1.4-2.7l-1.2-2.8c-0.3-0.9-0.6-1.9-1-2.9c-0.3-1-0.5-2-0.7-2.9c-0.2-1-0.3-2-0.5-3c-0.1-1-0.1-2-0.2-3
		c0-1,0.1-2,0.1-3c0.1-1,0.2-2,0.4-3c0.4-2,0.9-4,1.5-5.9c0.6-2,1.4-3.9,2.3-5.8c1.7-3.8,3.6-7.5,5.5-11.3c0.9-1.9,1.9-3.8,2.7-5.8
		c0.9-1.9,1.6-4,2.3-6c0.6-2,1.1-4.1,1.4-6.3c0.3-2.1,0.2-4.3,0-6.4l2.4,2c0.8,0.7,1.5,1.4,2.2,2.2c1.4,1.5,2.8,3,4,4.7
		c0.6,0.8,1.2,1.7,1.7,2.5c0.6,0.8,1.1,1.7,1.5,2.6c0.5,0.9,0.9,1.8,1.3,2.7c0.4,0.9,0.8,1.9,1.1,2.8c0.4,0.9,0.7,1.9,0.9,2.9
		c0.3,1,0.5,2,0.7,3c0.4,2,0.7,4,0.9,6c0.2,2,0.2,4,0.2,6.1c0,2-0.2,4.1-0.4,6.1c-0.2,2-0.5,4-0.9,6.1c-0.4,2-0.8,4-1.3,6
		c-1,4-2.1,7.9-3.5,11.8c-2.4,7-5.2,13.8-8.3,20.5C177.1,605.1,176.2,604.3,175.4,603.4z"/>
	<path fill="#726658" d="M325.4,339.1c-3.2-0.1-6.4,0-9.5,0.4c-2.1,0.3-4.2,0.7-6.2,1.2c-1,0.3-2,0.5-3,0.9c-1,0.3-2,0.7-3,1.1
		c-1,0.4-1.9,0.8-2.9,1.4c-0.9,0.5-1.9,1-2.7,1.6c-0.9,0.6-1.8,1.1-2.6,1.8c-0.8,0.6-1.6,1.2-2.4,1.9c-36.2,3.6-73.8-12.5-103.8,3.3
		c0.4-1.8,0.9-3.6,1.4-5.3c2.9-1.5,5.8-2.7,9-3.6c4.5-1.5,9.2-2.2,13.8-2.9c4.7-0.5,9.4-0.8,14.1-0.8c4.7-0.1,9.5,0.1,14.2,0.3
		c9.5,0.3,19,0.8,28.5,0.6c2.4-0.1,4.8-0.1,7.2-0.3l3.6-0.3l3.6-0.4c4.8-0.5,9.5-1.5,14.1-2.8c2.3-0.6,4.6-1.5,6.9-2.2
		c2.2-0.9,4.5-1.9,6.7-2.9c2.1-1.2,4.3-2.3,6.3-3.6c2-1.4,4.1-2.6,6-4.2c1.8-1.6,3.8-3,5.5-4.7c1.7-1.7,3.5-3.4,5.1-5.1l4.7-5.6
		c1.5-1.9,2.8-3.9,4.2-5.9c1.5-1.9,2.6-4.1,3.9-6.1l1.9-3.1c0.6-1,1.1-2.1,1.7-3.2l3.3-6.4l2.9-6.6l1.4-3.3l1.3-3.4l1.3-3.4
		c4.8,0.1,9.5,0.3,13.9,0.4C361,307,343.8,328.1,325.4,339.1z"/>
	<path fill="#726658" d="M377.1,373.9c-16.9,15.6-29.9,19.4-40.8,17.8c-1.5-0.9-2.9-1.8-4.4-2.7c-2-1.2-4-2.4-6.1-3.5
		c-2-1.2-4.1-2.3-6.2-3.3c-2.1-1.1-4.2-2.2-6.3-3.1c-2.1-1-4.2-2-6.4-2.9c-2.1-0.9-4.1-1.8-6.3-2.5c-3.4-1.7-6.8-3-10.4-3.5
		c0,0,0,0-0.1,0c-1.1-0.3-2.1-0.6-3.2-0.9c3-3.5,6.3-6.2,9.7-8.4c0.2,0,0.3,0.1,0.5,0.2c1.9,0.8,3.8,1.6,5.7,2.6
		c1.9,0.9,3.7,2,5.5,3.1c3.7,2.1,7.3,4.2,11.1,6.1c1.9,0.9,3.9,1.8,5.9,2.6c2,0.8,4.1,1.4,6.3,1.9c1,0.2,2.1,0.3,3.2,0.5
		c1.1,0.1,2.2,0.2,3.3,0.3c1.1-0.1,2.2,0,3.3-0.1c1.1-0.2,2.2-0.2,3.3-0.5c1.1-0.2,2.2-0.4,3.2-0.7c1-0.3,2.1-0.6,3.2-1l3-1.3
		c1-0.5,2-1,2.9-1.5c1-0.5,1.9-1.1,2.8-1.7c0.9-0.6,1.8-1.2,2.7-1.8l2.6-1.9l0.1-0.1C369.5,369.7,373.4,371.9,377.1,373.9z"/>
	<path fill="#DECFB1" d="M328.1,317.3c-1.7,1.6-3.5,3-5.3,4.5c-1.8,1.5-3.8,2.7-5.7,4c-2,1.2-4,2.3-6,3.5c-2.1,1-4.2,2-6.4,2.9
		c-2.2,0.7-4.4,1.7-6.6,2.3c-4.5,1.3-9.1,2.3-13.7,2.9l-3.5,0.5l-3.5,0.3c-2.3,0.3-4.7,0.3-7.1,0.4c-9.4,0.4-18.9,0.1-28.4-0.1
		c-4.7,0-9.5-0.1-14.3,0.2c-4.8,0.1-9.5,0.6-14.2,1.2c-4.7,0.8-9.4,1.7-13.9,3.4c-3.8,1.2-7.3,3-10.7,5c-0.7,0.4-1.4,0.8-2.1,1.3
		l1.5-6.9c0.5-2.3,1.3-4.5,1.9-6.7c0.6-2.3,1.5-4.4,2.3-6.6c0.7-2.2,1.8-4.3,2.7-6.4c0.5-1.1,0.9-2.1,1.5-3.2l1.7-3
		c0.6-1,1.1-2,1.7-3l1.9-2.9c0.6-1,1.3-1.9,1.9-2.9l2.1-2.7c0.7-0.9,1.4-1.8,2.2-2.7l2.3-2.6c0.8-0.8,1.5-1.7,2.3-2.5l2.5-2.4
		c0.9-0.8,1.6-1.6,2.5-2.4l2.7-2.2c1.7-1.5,3.6-2.9,5.5-4.2c1.8-1.4,3.8-2.6,5.7-3.9c1.9-1.3,3.9-2.4,5.9-3.6c2-1.2,4.1-2.2,6.1-3.2
		c2-1.1,4.2-2,6.3-2.9c2.1-1,4.3-1.8,6.4-2.6c2.1-0.9,4.3-1.6,6.5-2.4c2.2-0.8,4.4-1.5,6.6-2.2c2.2-0.7,4.4-1.3,6.7-1.9
		c2.2-0.6,4.5-1.2,6.7-1.7c2.2-0.6,4.5-1.1,6.8-1.6c2.3-0.5,4.6-1,6.8-1.4c2.3-0.5,4.6-0.9,6.8-1.2c2.3-0.4,4.6-0.7,6.9-1.1
		c17.5-2.5,35.2-3.7,53-4.5c-1.2,3.7-2.2,7.5-3.5,11.1l-2.4,6.7L356,273l-1.4,3.3l-2.8,6.5l-3.2,6.3c-0.5,1-1,2.1-1.6,3.1l-1.8,3
		c-1.2,2-2.3,4.1-3.7,6c-1.4,1.9-2.7,3.9-4.1,5.7l-4.5,5.4C331.4,314,329.7,315.6,328.1,317.3z"/>
	<path fill="#594A42" d="M368,248l-0.8,2.4c-1.4,4.6-2.8,9.2-4.3,13.7l-1.2,3.4l-1.2,3.4l-1.3,3.4l-1.4,3.3l-2.9,6.6l-3.3,6.4
		c-0.6,1.1-1.1,2.2-1.7,3.2l-1.9,3.1c-1.3,2-2.4,4.2-3.9,6.1c-1.4,2-2.8,4-4.2,5.9l-4.7,5.6c-1.6,1.8-3.4,3.4-5.1,5.2
		c-1.7,1.7-3.7,3.1-5.6,4.7c-1.9,1.5-4,2.8-6,4.2c-2.1,1.3-4.2,2.4-6.4,3.6c-2.2,1-4.4,2-6.7,2.9c-2.3,0.7-4.6,1.6-6.9,2.2
		c-4.7,1.2-9.4,2.2-14.1,2.8l-3.6,0.4l-3.6,0.3c-2.4,0.2-4.8,0.2-7.1,0.3c-9.6,0.3-19.1-0.3-28.5-0.6c-4.7-0.2-9.5-0.3-14.2-0.3
		c-4.7,0-9.4,0.3-14.1,0.8c-4.7,0.7-9.4,1.4-13.8,2.9c-3.1,0.9-6.1,2.1-8.9,3.6c-1.4,0.7-2.7,1.4-4,2.1c0.7-0.4,1.4-0.9,2.1-1.3
		c0.6-0.4,1.3-0.8,2-1.1c2.8-1.5,5.7-2.9,8.7-3.8c4.5-1.7,9.2-2.6,13.9-3.4c4.7-0.6,9.5-1.1,14.2-1.2c4.8-0.2,9.5-0.2,14.3-0.2
		c9.5,0.1,19,0.5,28.4,0.1c2.3-0.1,4.7-0.2,7.1-0.5l3.5-0.3l3.5-0.5c4.7-0.6,9.2-1.6,13.7-2.9c2.3-0.6,4.4-1.5,6.6-2.3
		c2.1-0.9,4.2-1.9,6.4-2.9c2-1.2,4.1-2.2,6.1-3.5c1.9-1.4,3.9-2.6,5.7-4c1.7-1.5,3.6-2.9,5.3-4.5c1.6-1.7,3.3-3.3,4.9-5l4.5-5.4
		c1.4-1.9,2.7-3.8,4.1-5.7c1.4-1.9,2.5-4,3.7-6l1.8-3c0.6-1,1.1-2.1,1.6-3.1l3.2-6.3l2.8-6.5l1.4-3.2l1.2-3.3l0.8-2.2l1.6-4.5
		c1.3-3.7,2.3-7.4,3.5-11.1c-17.7,0.8-35.4,2-52.9,4.5c-2.3,0.3-4.6,0.7-6.9,1c-2.3,0.4-4.6,0.8-6.8,1.2c-2.3,0.4-4.5,0.9-6.8,1.4
		c-2.3,0.5-4.5,1-6.8,1.6c-0.1,0-0.3,0.1-0.4,0.1c0,0,0,0,0,0c-2.1,0.5-4.2,1-6.2,1.6c-2.2,0.6-4.5,1.2-6.7,1.9
		c-2.2,0.7-4.4,1.3-6.6,2.2c-0.3,0.1-0.6,0.2-0.9,0.3c-1.9,0.7-3.8,1.3-5.6,2.1c-2.2,0.9-4.3,1.7-6.4,2.7c-2.1,1-4.2,1.8-6.3,2.9
		c-2.1,1-4.1,2-6.1,3.2c-2,1.2-4.1,2.3-6,3.6c-1.9,1.2-3.9,2.5-5.7,3.9c-1.9,1.4-3.8,2.7-5.5,4.2l-2.7,2.2c-0.9,0.8-1.7,1.6-2.5,2.4
		l-2.5,2.4c-0.8,0.8-1.6,1.7-2.3,2.5l-2.3,2.6c-0.7,0.9-1.4,1.8-2.1,2.7l-2.1,2.7c-0.7,0.9-1.3,1.9-1.9,2.9l-1.9,2.9
		c-0.6,1-1.1,2-1.7,3l-1.7,3c-0.6,1-1,2.1-1.5,3.2c-1,2.1-2,4.2-2.7,6.4c-0.8,2.2-1.7,4.4-2.3,6.6c-0.6,2.2-1.4,4.5-1.9,6.7
		l-1.5,6.9l0.6-3.3l0.6-3.6c0.4-2.3,1.1-4.5,1.6-6.8c0.5-2.3,1.4-4.5,2.1-6.7c0.7-2.3,1.6-4.4,2.6-6.6c0.5-1.1,0.9-2.2,1.4-3.2
		l1.6-3.1c0.6-1,1.1-2.1,1.7-3.1l1.9-3c0.6-1,1.2-2,1.9-3l2.1-2.8c0.7-0.9,1.4-1.9,2.1-2.8l2.3-2.7c0.8-0.9,1.5-1.8,2.3-2.7l2.5-2.5
		c0.8-0.8,1.6-1.7,2.5-2.5l2.7-2.3c1.7-1.6,3.6-3,5.5-4.4c1.8-1.5,3.8-2.8,5.8-4.1c1.9-1.4,4-2.5,6-3.7c0.3-0.2,0.7-0.4,1-0.6
		c1.7-1,3.4-1.9,5.2-2.8c2.1-1.2,4.2-2.1,6.4-3.1c2.1-1,4.3-1.9,6.5-2.8c2.2-0.9,4.4-1.7,6.6-2.5c2.2-0.9,4.4-1.6,6.7-2.3
		c2.2-0.8,4.5-1.4,6.7-2c2.3-0.7,4.5-1.2,6.8-1.8c2.3-0.6,4.5-1.1,6.8-1.6c0.3-0.1,0.7-0.2,1-0.2c1.9-0.5,3.9-0.9,5.8-1.2
		c2.3-0.5,4.6-0.9,6.9-1.3c2.3-0.4,4.6-0.8,6.9-1.1c18.5-2.8,37.2-4.1,55.8-5L368,248z"/>
	<path fill="#594A42" d="M372.4,361.2c-1.6,1.4-3.1,3-4.8,4.3l-2.4,2l-0.1,0.1l-2.6,1.9c-0.9,0.7-1.8,1.2-2.7,1.8
		c-0.9,0.6-1.8,1.2-2.8,1.7c-1,0.5-1.9,1-2.9,1.5l-3,1.3c-1,0.4-2.1,0.7-3.2,1c-1.1,0.3-2.2,0.5-3.2,0.7c-1.1,0.2-2.2,0.3-3.3,0.4
		c-1.1,0.1-2.2,0.1-3.3,0.1c-1.1-0.1-2.2-0.1-3.3-0.2c-1.1-0.2-2.2-0.3-3.2-0.5c-2.1-0.5-4.2-1.1-6.3-1.9c-2-0.7-4-1.6-5.9-2.6
		c-3.8-1.9-7.5-4.1-11.1-6.1c-1.8-1.1-3.6-2.1-5.5-3.1c-1.8-1-3.8-1.8-5.7-2.6c-0.2-0.1-0.3-0.1-0.5-0.2c-1.8-0.7-3.6-1.3-5.5-1.6
		c-2-0.5-4.1-0.5-6.3-0.5c2.1-0.2,4.2-0.3,6.3,0c2.1,0.2,4.2,0.8,6.2,1.4c0.1,0,0.2,0.1,0.3,0.1c1.9,0.6,3.8,1.4,5.7,2.2
		c2,0.9,3.9,1.8,5.8,2.7c3.8,1.9,7.5,3.9,11.3,5.6c1.9,0.8,3.8,1.6,5.8,2.3c1.9,0.7,3.9,1.2,5.9,1.5c1,0.2,2,0.3,3,0.4
		c1,0.1,2,0.1,3,0.1c1-0.1,2-0.1,3-0.2c1-0.2,2-0.2,3-0.5c1-0.3,2-0.4,2.9-0.7c0.9-0.3,1.9-0.6,2.9-1l2.8-1.2c0.9-0.5,1.8-1,2.7-1.4
		c0.9-0.4,1.7-1.1,2.6-1.6c0.9-0.5,1.7-1.1,2.5-1.7l1.2-0.9l1.3-1l2.4-2c1.6-1.3,3-2.8,4.6-4.2c0.9-0.9,1.7-1.8,2.6-2.7
		c-6.7-3.1-13.5-5.9-20.5-8.3c-3.9-1.3-7.8-2.5-11.7-3.5c-2-0.5-4-0.9-6-1.3c-2-0.4-4-0.7-6-0.9c-2-0.2-4-0.4-6.1-0.4
		c-0.5,0-1,0-1.5,0c-1.5,0-3,0-4.5,0.2c-2,0.2-4,0.4-6,0.9c-1,0.2-2,0.4-2.9,0.7c-1,0.3-2,0.6-2.9,0.9c-1,0.3-1.9,0.7-2.8,1.1
		c-0.9,0.4-1.8,0.8-2.7,1.3c-0.9,0.5-1.8,1-2.6,1.5c-0.4,0.3-0.8,0.5-1.1,0.8c-0.5,0.3-0.9,0.6-1.4,1c-1.7,1.2-3.2,2.6-4.6,4
		c-0.7,0.7-1.5,1.4-2.1,2.2l-2,2.4l1.8-2.5c0.6-0.8,1.3-1.6,2-2.4c1.4-1.6,2.8-3.1,4.4-4.4l0.1-0.1c0.8-0.7,1.6-1.3,2.4-1.9
		c0.8-0.7,1.7-1.2,2.6-1.8c0.9-0.6,1.8-1.1,2.7-1.6c0.9-0.5,1.9-0.9,2.9-1.4c1-0.4,2-0.8,3-1.1c1-0.4,2-0.7,3-0.9
		c2.1-0.6,4.1-0.9,6.2-1.2c3.2-0.4,6.3-0.5,9.5-0.4c1,0,2.1,0.1,3.1,0.2c2.1,0.2,4.2,0.4,6.3,0.7c2.1,0.3,4.1,0.7,6.2,1.2
		c4.1,0.9,8.1,2,12.1,3.4c8,2.6,15.6,5.9,23.2,9.3l2.3,1.1l-1.8,1.8C375.4,358.1,373.9,359.7,372.4,361.2z"/>
	<path fill="#DECFB1" d="M369.9,358.6c-1.5,1.4-3,2.9-4.6,4.2l-2.4,2l-2.5,1.8c-0.8,0.6-1.7,1.2-2.5,1.7c-0.9,0.5-1.7,1.2-2.6,1.6
		c-0.9,0.5-1.8,1-2.7,1.4l-2.8,1.2c-0.9,0.3-1.9,0.6-2.9,1c-1,0.3-2,0.5-2.9,0.7c-1,0.2-2,0.3-3,0.5c-1,0.1-2,0.1-3,0.2
		c-1,0-2-0.1-3-0.1c-1-0.1-2-0.2-3-0.4c-2-0.4-4-0.9-5.9-1.5c-2-0.6-3.9-1.4-5.8-2.3c-3.8-1.7-7.5-3.6-11.3-5.6
		c-1.9-0.9-3.8-1.9-5.8-2.7c-1.9-0.9-3.9-1.6-6-2.3c-2-0.6-4.1-1.2-6.2-1.4c-2.1-0.3-4.2-0.2-6.3,0l2-2.4c0.7-0.8,1.4-1.5,2.1-2.2
		c1.5-1.4,3-2.8,4.6-4c0.8-0.6,1.7-1.2,2.5-1.8c0.8-0.6,1.7-1.1,2.6-1.5c0.9-0.5,1.8-0.9,2.7-1.3c0.9-0.4,1.9-0.8,2.8-1.1
		c0.9-0.4,1.9-0.7,2.9-0.9c1-0.3,2-0.5,2.9-0.7c2-0.4,4-0.7,6-0.9c2-0.2,4-0.2,6.1-0.2c2,0,4.1,0.2,6.1,0.4c2,0.2,4,0.5,6,0.9
		c2,0.4,4,0.8,6,1.3c4,1,7.9,2.2,11.7,3.5c6.9,2.4,13.8,5.2,20.5,8.3C371.7,356.9,370.8,357.8,369.9,358.6z"/>
</g>
</svg>
