<?xml version="1.0" encoding="utf-8"?>
<!-- Generator: Adobe Illustrator 21.1.0, SVG Export Plug-In . SVG Version: 6.00 Build 0)  -->
<svg version="1.1" id="icon-user" xmlns="http://www.w3.org/2000/svg" xmlns:xlink="http://www.w3.org/1999/xlink" x="0px" y="0px"
	 viewBox="0 0 10 10" style="enable-background:new 0 0 10 10;" xml:space="preserve">
<g id="icon-user-account">
	<g>
		<path d="M5,5.3c1.4,0,2.5-1.2,2.5-2.6C7.5,1.2,6.4,0,5,0S2.5,1.2,2.5,2.6C2.5,4.1,3.6,5.3,5,5.3z M5,0.6c1.1,0,1.9,0.9,1.9,2.1
			c0,1.1-0.9,2.1-1.9,2.1S3.1,3.8,3.1,2.6C3.1,1.5,3.9,0.6,5,0.6z M8.1,7C7.4,6.3,6.5,5.9,5.5,5.9H4.5c-1,0-1.8,0.4-2.5,1.1
			c-0.7,0.7-1,1.7-1,2.7C0.9,9.9,1,10,1.2,10h7.7C9,10,9.1,9.9,9.1,9.7C9.1,8.7,8.7,7.7,8.1,7z M1.4,9.4c0.1-1.7,1.4-3,3-3h1.1
			c1.6,0,2.9,1.3,3,3H1.4z"/>
	</g>
</g>
</svg>
