<svg xmlns="http://www.w3.org/2000/svg" xmlns:xlink="http://www.w3.org/1999/xlink" width="14" height="14" viewBox="0 0 14 14">
  <defs>
    <style>
      .cls-1 {
        fill-rule: evenodd;
        filter: url(#filter);
      }
    </style>
    <filter id="filter" x="0" y="0" width="14" height="14" filterUnits="userSpaceOnUse">
      <feFlood result="flood" flood-color="#10b3f1"/>
      <feComposite result="composite" operator="in" in2="SourceGraphic"/>
      <feBlend result="blend" in2="SourceGraphic"/>
    </filter>
  </defs>
  <path id="icon_settings" class="cls-1" d="M13.279,5.444H12.756A5.907,5.907,0,0,0,12.17,4.03l0.37-.37a0.721,0.721,0,0,0,0-1.02l-1.18-1.18a0.739,0.739,0,0,0-1.02,0l-0.37.37a5.924,5.924,0,0,0-1.414-.586V0.721A0.722,0.722,0,0,0,7.835,0H6.165a0.722,0.722,0,0,0-.721.721V1.244A5.92,5.92,0,0,0,4.03,1.83L3.66,1.46a0.738,0.738,0,0,0-1.02,0L1.46,2.64a0.721,0.721,0,0,0,0,1.02L1.83,4.03a5.9,5.9,0,0,0-.586,1.414H0.721A0.722,0.722,0,0,0,0,6.165V7.834a0.722,0.722,0,0,0,.721.721H1.244A5.92,5.92,0,0,0,1.83,9.97l-0.37.37a0.721,0.721,0,0,0,0,1.02l1.18,1.18a0.738,0.738,0,0,0,1.02,0l0.37-.37a5.932,5.932,0,0,0,1.415.586v0.523A0.722,0.722,0,0,0,6.165,14H7.835a0.722,0.722,0,0,0,.721-0.721V12.756A5.922,5.922,0,0,0,9.97,12.17l0.37,0.37a0.738,0.738,0,0,0,1.02,0l1.18-1.18a0.721,0.721,0,0,0,0-1.02l-0.37-.37a5.931,5.931,0,0,0,.586-1.415h0.523A0.722,0.722,0,0,0,14,7.835V6.165A0.722,0.722,0,0,0,13.279,5.444Zm0.2,2.39a0.2,0.2,0,0,1-.2.2H12.348l-0.047.2a5.413,5.413,0,0,1-.678,1.636l-0.109.175,0.658,0.658a0.2,0.2,0,0,1,0,.286l-1.18,1.18a0.2,0.2,0,0,1-.286,0l-0.658-.658-0.175.109a5.4,5.4,0,0,1-1.636.677l-0.2.047v0.931a0.2,0.2,0,0,1-.2.2H6.165a0.2,0.2,0,0,1-.2-0.2V12.348l-0.2-.047a5.416,5.416,0,0,1-1.636-.677l-0.175-.109-0.658.658a0.2,0.2,0,0,1-.286,0l-1.18-1.18a0.2,0.2,0,0,1,0-.286l0.658-.658L2.376,9.873A5.4,5.4,0,0,1,1.7,8.237l-0.047-.2H0.721a0.2,0.2,0,0,1-.2-0.2V6.165a0.2,0.2,0,0,1,.2-0.2H1.652l0.047-.2a5.411,5.411,0,0,1,.677-1.636l0.109-.175L1.827,3.293a0.2,0.2,0,0,1,0-.286l1.18-1.18a0.2,0.2,0,0,1,.286,0L3.951,2.485l0.175-.109A5.4,5.4,0,0,1,5.762,1.7l0.2-.047V0.721a0.2,0.2,0,0,1,.2-0.2H7.834a0.2,0.2,0,0,1,.2.2V1.652L8.237,1.7a5.416,5.416,0,0,1,1.636.677l0.175,0.109,0.658-.658a0.2,0.2,0,0,1,.286,0l1.18,1.18a0.2,0.2,0,0,1,0,.286l-0.658.658,0.109,0.175A5.4,5.4,0,0,1,12.3,5.762l0.047,0.2h0.931a0.2,0.2,0,0,1,.2.2v1.67ZM7,4.407A2.593,2.593,0,1,0,9.592,7,2.6,2.6,0,0,0,7,4.407ZM7,9.074A2.074,2.074,0,1,1,9.074,7,2.076,2.076,0,0,1,7,9.074Z"/>
</svg>
