<svg xmlns="http://www.w3.org/2000/svg" width="5" height="9" viewBox="0 0 5 9">
  <defs>
    <style>
      .cls-1 {
        fill: #30bdf3;
        fill-rule: evenodd;
      }
    </style>
  </defs>
  <path id="Arrow" class="cls-1" d="M0.16,0.157a0.608,0.608,0,0,1,.847,0L4.821,3.89a0.578,0.578,0,0,1,0,.83,0.609,0.609,0,0,1-.848,0L0.16,0.986A0.578,0.578,0,0,1,.16.157ZM4.821,4.263a0.609,0.609,0,0,0-.848,0L0.16,8a0.578,0.578,0,0,0,0,.83,0.608,0.608,0,0,0,.847,0L4.821,5.092A0.578,0.578,0,0,0,4.821,4.263Z"/>
</svg>
