<svg xmlns="http://www.w3.org/2000/svg" xmlns:xlink="http://www.w3.org/1999/xlink" width="12" height="14" viewBox="0 0 12 14">
  <defs>
    <style>
      .cls-1 {
        fill-rule: evenodd;
        filter: url(#filter);
      }
    </style>
    <filter id="filter" x="0" y="0" width="12" height="14" filterUnits="userSpaceOnUse">
      <feFlood result="flood" flood-color="#c3c9d5"/>
      <feComposite result="composite" operator="in" in2="SourceGraphic"/>
      <feBlend result="blend" in2="SourceGraphic"/>
    </filter>
  </defs>
  <path id="icon_user_gray" class="cls-1" d="M6,0A3.651,3.651,0,0,0,2.4,3.691,3.651,3.651,0,0,0,6,7.383,3.651,3.651,0,0,0,9.6,3.691,3.651,3.651,0,0,0,6,0ZM6,6.562A2.839,2.839,0,0,1,3.2,3.691,2.839,2.839,0,0,1,6,.82,2.839,2.839,0,0,1,8.8,3.691,2.839,2.839,0,0,1,6,6.562Zm4.479,3.232A5.07,5.07,0,0,0,6.8,8.2H5.2A5.07,5.07,0,0,0,1.521,9.794,5.45,5.45,0,0,0,0,13.59,0.405,0.405,0,0,0,.4,14H11.6a0.405,0.405,0,0,0,.4-0.41A5.45,5.45,0,0,0,10.479,9.794ZM0.817,13.18A4.474,4.474,0,0,1,5.2,9.023H6.8a4.473,4.473,0,0,1,4.382,4.156H0.817Z"/>
</svg>
