<?xml version="1.0" encoding="utf-8"?>
<!-- Generator: Adobe Illustrator 21.1.0, SVG Export Plug-In . SVG Version: 6.00 Build 0)  -->
<svg version="1.1" id="sprite" xmlns="http://www.w3.org/2000/svg" xmlns:xlink="http://www.w3.org/1999/xlink" x="0px" y="0px"
	 viewBox="0 0 10 10" style="enable-background:new 0 0 10 20;" xml:space="preserve">
<symbol id="icon-print" viewbox="0 0 10 10">
		<path d="M9.3,1.8H7.4V0.6c0-0.1-0.1-0.2-0.2-0.2H2.8c-0.1,0-0.2,0.1-0.2,0.2v1.1H0.7C0.3,1.8,0,2.1,0,2.6v3.7C0,6.7,0.3,7,0.7,7
			h1.9v2.2c0,0.1,0.1,0.2,0.2,0.2h4.4c0.1,0,0.2-0.1,0.2-0.2V7h1.9C9.7,7,10,6.7,10,6.2V2.6C10,2.1,9.7,1.8,9.3,1.8z M7.4,2.2h0.5
			v0.6H7.4V2.2z M3,0.9h4v2H3V0.9z M2.1,2.2h0.5v0.6H2.1V2.2z M7,9H3V6h4V9z M9.6,6.2c0,0.2-0.1,0.3-0.3,0.3H7.4V6h0.4
			C7.9,6,8,5.8,8,5.7c0-0.1-0.1-0.2-0.2-0.2H2.2C2.1,5.5,2,5.6,2,5.7C2,5.8,2.1,6,2.2,6h0.4v0.6H0.7c-0.2,0-0.3-0.1-0.3-0.3V2.6
			c0-0.2,0.1-0.3,0.3-0.3h0.9v0.9c0,0.1,0.1,0.2,0.2,0.2h6.3c0.1,0,0.2-0.1,0.2-0.2V2.2h0.9c0.2,0,0.3,0.1,0.3,0.3V6.2z M1.3,3.9
			C1.2,3.9,1.1,4,1.1,4.1c0,0.2,0.1,0.3,0.3,0.3c0.1,0,0.3-0.1,0.3-0.3C1.6,4,1.5,3.9,1.3,3.9z M3.9,8.2h1c0.1,0,0.2-0.1,0.2-0.2
			c0-0.1-0.1-0.2-0.2-0.2h-1c-0.1,0-0.2,0.1-0.2,0.2C3.7,8.1,3.8,8.2,3.9,8.2z M3.9,7h2.1c0.1,0,0.2-0.1,0.2-0.2S6.2,6.5,6.1,6.5
			H3.9c-0.1,0-0.2,0.1-0.2,0.2S3.8,7,3.9,7z"/>
</symbol> 
<symbol id="icon-user-account" viewbox="0 10 10 10">
		<path d="M5,15.3c1.4,0,2.5-1.2,2.5-2.6S6.4,10,5,10s-2.5,1.2-2.5,2.6S3.6,15.3,5,15.3z M5,10.6c1.1,0,1.9,0.9,1.9,2.1
			S6.1,14.7,5,14.7s-1.9-0.9-1.9-2.1S3.9,10.6,5,10.6z M8.1,17c-0.7-0.7-1.6-1.1-2.5-1.1H4.5c-1,0-1.8,0.4-2.5,1.1
			c-0.7,0.7-1,1.7-1,2.7C0.9,19.9,1,20,1.2,20h7.7c0.2,0,0.3-0.1,0.3-0.3C9.1,18.7,8.7,17.7,8.1,17z M1.4,19.4c0.1-1.7,1.4-3,3-3
			h1.1c1.6,0,2.9,1.3,3,3H1.4z"/>
</symbol>
</svg>
