<svg xmlns="http://www.w3.org/2000/svg" xmlns:xlink="http://www.w3.org/1999/xlink" width="14" height="17" viewBox="0 0 14 17">
  <defs>
    <style>
      .cls-1 {
        fill-rule: evenodd;
        filter: url(#filter);
      }
    </style>
    <filter id="filter" x="0" y="0" width="14" height="17" filterUnits="userSpaceOnUse">
      <feFlood result="flood" flood-color="#fff"/>
      <feComposite result="composite" operator="in" in2="SourceGraphic"/>
      <feBlend result="blend" in2="SourceGraphic"/>
    </filter>
  </defs>
  <path id="Icon_User" data-name="Icon User" class="cls-1" d="M7,0A4.353,4.353,0,0,0,2.8,4.482,4.353,4.353,0,0,0,7,8.965a4.353,4.353,0,0,0,4.2-4.482A4.353,4.353,0,0,0,7,0ZM7,7.969A3.386,3.386,0,0,1,3.733,4.482,3.386,3.386,0,0,1,7,1a3.386,3.386,0,0,1,3.267,3.486A3.386,3.386,0,0,1,7,7.969Zm5.226,3.924A5.808,5.808,0,0,0,7.933,9.961H6.067a5.808,5.808,0,0,0-4.292,1.932A6.764,6.764,0,0,0,0,16.5a0.483,0.483,0,0,0,.467.5H13.533A0.483,0.483,0,0,0,14,16.5,6.765,6.765,0,0,0,12.226,11.893ZM0.954,16a5.314,5.314,0,0,1,5.113-5.047H7.933A5.314,5.314,0,0,1,13.046,16H0.954Z"/>
</svg>
