<?xml version="1.0" encoding="utf-8"?>
<!-- Generator: Adobe Illustrator 18.1.1, SVG Export Plug-In . SVG Version: 6.00 Build 0)  -->
<svg version="1.1" id="Шар_1" xmlns="http://www.w3.org/2000/svg" xmlns:xlink="http://www.w3.org/1999/xlink" x="0px" y="0px"
	 viewBox="0 0 569 354.1" enable-background="new 0 0 569 354.1" xml:space="preserve">
<path fill="#AD171A" d="M151.7,141.6v21l-16.3-6c-1.3,1.5-3.2,2.5-5.4,2.5c-2.1,0-4.1-1-5.4-2.5l-16.3,6v-21l16.3,6
	c1.3-1.5,3.2-2.5,5.4-2.5c2.2,0,4.1,1,5.4,2.5L151.7,141.6z"/>
<circle cx="130.1" cy="173.1" r="5"/>
<circle cx="130.1" cy="190.1" r="5"/>
<circle cx="130.1" cy="207.1" r="5"/>
<circle cx="130.1" cy="224.1" r="5"/>
<path d="M302.7,206.5l-8.5,10.2c-13.7-4.4-21.8-11.9-26.3-21.3v-8c-9.7,11.3-17.4,24.3-23.5,38.5c-3.4,7.8-6.3,16-8.8,24.5
	c-0.2,0.7-0.8,1.1-1.5,1.1c-0.9,0-1.6-0.8-1.6-1.6c0-0.2,0-0.3,0.1-0.4l3.1-10.6l-7.5,4.6c-0.7,0.4-1.6,0.3-2.1-0.3l-0.1-0.2
	c-0.6-0.8-0.4-2,0.6-2.5c5.8-2.8,10.2-7,12.5-13.5c1.5-4.3,1.7-8.9,0.7-13.3c-0.3-1.5-0.8-2.9-1.3-4.3L218.7,160
	c-1.2-3.5-2.2-7.5-5.3-10.1c-2.8-2.3-6.4-2.5-10.1-3.2l-1.2-0.3l-13.5-2.9c-3.6-0.7-7.2-1-10.8-1h-6.3c-0.8,22.8-4.9,44.6-12.2,65.4
	c-0.2,0.5-0.6,0.7-1,0.7c-0.6,0-1.1-0.5-1.1-1.1c0-0.1,0-0.2,0-0.3c2.4-7.7,3.6-17.9,5.2-28.7c1.6-11.1,0.3-17.3,1.9-26.1l1.2-6.5
	c0,0,0,0,0-0.1l0.1-0.9c0.9-5.8-1.4-9.8-9.4-9.8v0c0,1.5,0.9,2.9,2.1,3.7c5.3,3.3,4.1,9.9-1.6,18.8c-1.8,2.8-2.7,6.1-2.7,9.4l0,0
	c2.7-3.5,5.1-7.2,7.1-10.7l-0.1,2.6c0,6.2-0.3,12.5-1.6,18.6c-6.4,30.4-14.8,56.5-29.3,69.7c-4.6-2-10-9.3-15.3-16.7v43.1
	c3.2,2.5,7.4,4.5,12.4,5.8c4.9,1.3,10,1.9,15,1.9h21.3c1.1,0,2.3-0.1,3.4-0.1c10-0.4,19.8,2.9,29.5,6.3v-44.3h2
	c6.7,19.5,16.6,35.6,30.1,47.7c3.2,2.9,7.5,4.5,11.8,4.5c2.4,0,4.8-0.5,7-1.6c33.1-16.2,44.3-60.4,57.1-72.2v-6.3
	C304.6,211.8,304.4,208.2,302.7,206.5z M166.2,236.7c-0.5,0.8-1.6,0.6-1.9-0.2L164,236c-0.1-0.3-0.1-0.6,0-0.9
	c7.7-15.4,15.2-30.6,15.8-38.7C191.8,196.3,187.5,204,166.2,236.7z M162.9,218.5c-0.4,0.7-1.5,0.8-1.9,0l-0.2-0.4
	c-0.2-0.3-0.2-0.7-0.1-1c10.7-22.8,18.6-43.3,19.6-58C196.1,159,183.4,181,162.9,218.5z"/>
<path d="M274.7,194.6L274.7,194.6c0,1.3,0.7,2.5,1.9,3.1l10.2,5.4h8c1,0,1.9-0.8,1.9-1.9l0,0C289.3,201.4,282,198.8,274.7,194.6z"/>
<path d="M273.2,174.5L273.2,174.5c-1.5,3.7-1.6,7.7-0.4,11.5l0.4,1.2l5.2,2.3C275.6,186.3,274.2,180.9,273.2,174.5z"/>
<path d="M280.4,169.6L280.4,169.6c-1.5,1.7-2.3,3.9-2.3,6.2l0,0.7l2.4,2.2C279.5,176.5,279.7,173.3,280.4,169.6z"/>
<path d="M302,121.8v3.1h79.5c-3.3,1.1-6.7,1.9-10.1,2.4c-3.4,0.5-6.9,0.8-10.4,0.8h-16.5l-4,3.4c-2,1.7-4.6,2.7-7.3,2.7H325
	l-11.8,15.5l-5.7,2l2-6L325,131h-2.3c-3.4,3.3-8.1,4.7-13.2,5.5l3.5-3.5c1.3-1.3,2-3,2-4.8h-37c2.5,1.6,4.4,3.8,5.8,6.5
	c0.2,0.5,1,0.4,1.1-0.1l0.8-3.7v8.8c0.6,2.1,0.9,4.5,1.1,7v2c0,6.1-2.3,12-6.4,16.5v-19.5c0-8.5-6.9-15.5-15.5-15.5h-2.6
	c-2.4,0-4.8-0.5-7-1.5l-0.7-0.3h-2c-7,0-13.9-1.1-20.5-3.3h44.3v-3.1h-54.3v0c0-1.3,1-2.3,2.3-2.3h12.3c44.8-3.7,91.4-3.6,139.8,0
	h12c1.3,0,2.3,1,2.3,2.3v0H302z"/>
<path d="M108.5,90.8c0.8-10.5-0.7-18.8-4.4-24.9c14.4-13.6,55.7-6.6,73.1,3.8c0.6,0.4,0.9,1,0.9,1.7l0,0c0,0.7-0.4,1.3-1,1.7
	c-6.9,4.3-12.5,12.4-17.7,21.7c-0.7,1.3-1.1,2.7-1.1,4.1v0c0,2.2,0.9,4.4,2.5,6c3.6,3.3,8.3,4.2,14.6,2c0.9-0.3,1.9-0.1,2.6,0.5
	c3.3,2.8,1.8,4.9-2.3,6.5c-2.9,1.1-6,1.6-9.2,1.6h-0.6c-2.4,0-4.7-0.3-6.9-0.9c-16-4.3-29.6-12.6-41.3-14.7
	c-1.3-0.2-2.6-0.3-3.9-0.3l-10.9,0c-2.9,0-5.9,0.5-8.5,1.7c-12.9,5.8-4.1,18.6,15.7,4.4l1.6-1.1l0,0c-0.9,1.2-1.8,2.3-2.9,3.4
	c-3,2.8-5.8,5-10.4,6.3c-1.1,0.3-2.2,0.4-3.3,0.4l-2.7,0c-4.1,0-8.1-1.9-10.3-5.4c-3.5-5.4-0.2-10.7,8.9-16c2.9-1.7,6.3-2.6,9.7-2.6
	L108.5,90.8z"/>
<path fill="#AD171A" d="M321.7,168.6v35.8c0,0.8,0.3,1.5,0.9,2c0,0,0,0,0,0c0.6,0.5,1.6,0.9,3,1.1h1.6v1.4h-18.2v-1.4h0.9
	c2.2,0,3.5-0.8,3.8-2.2c0-0.1,0-0.2,0.1-0.3v-35.8c-0.2-1.7-0.5-2.9-0.8-3.5c-0.6-1-1.8-1.6-3.6-1.9h-1v-1.4h18.7v1.4h-1.4h0
	C323.4,164.3,321.7,166.3,321.7,168.6z"/>
<path fill="#AD171A" d="M378.4,162.5v12h-1.3c-1.3-4.8-5.5-9.3-12.5-9.6c-0.9,0-2,0-2.9,0.2c-0.8,0.2-1.6,0.5-2.3,1.1
	c-0.5,0.5-1.3,1.3-1.5,3v34.1c0.1,2.9,3.2,3.9,7.5,4.2v1.4h-23v-1.4c4.3-0.3,7.4-1.3,7.5-4.2v-34.1c-0.2-1.7-1-2.6-1.5-3
	c-0.7-0.7-1.5-1-2.3-1.1c-0.9-0.2-2-0.2-2.9-0.2c-6.9,0.2-11.2,4.8-12.5,9.6h-1.3v-12H378.4z"/>
<path fill="#AD171A" d="M392.8,207.5v1.5h-14.5v-1.5h1.7c1.3,0,2.4-1,2.5-2.3c0-0.1,0-0.2,0-0.3v-22c0-0.1,0-0.3,0-0.4
	c-0.1-1.8-1.5-2.6-4.2-2.6v-1.6h10.2v26.8c0.1,1.3,1.2,2.3,2.5,2.3H392.8z"/>
<circle fill="#AD171A" cx="384.5" cy="165" r="3.5"/>
<path fill="#AD171A" d="M419.8,199.6c0,2.7-1,5.1-3,7c-2,2-4.4,2.9-7.2,2.9c-1.6,0-3.6-0.5-5.9-1.6c-1.2-0.6-2-0.8-2.2-0.8
	c-0.4,0-0.7,0.2-1.1,0.7c-0.2,0.3-0.1,1.2-0.1,1.2h-1.7v-11.1h1.3l0.7,2.2c0.2,0.6,0.4,1.2,0.7,1.7c0.7,1.4,1.5,2.6,2.5,3.7
	c1.6,1.9,3.6,2.8,5.8,2.8c1.6,0,2.9-0.5,4.2-1.5c1.2-1,1.8-2.3,1.8-4c0-2.6-2.2-4.9-6.7-6.9c-3.1-1.4-5.1-2.4-6.1-3
	c-1-0.6-1.8-1.5-2.4-2.6c-0.6-1.1-0.9-2.3-0.9-3.5c0-2.4,0.9-4.4,2.8-6.1c1.8-1.6,4-2.5,6.7-2.5c1.9,0,4,0.6,6.3,1.8
	c0.4,0.2,0.7,0.3,1,0.3c0.6,0,1-0.8,1-1.4h1.5v9.4h-1.9v-0.6c0-1-0.2-1.9-0.7-2.8c-0.2-0.4-0.4-0.7-0.6-1.1c-0.9-1.8-2-2.9-3.1-3.4
	c-1.1-0.5-2.2-0.7-3.3-0.7c-1.7,0-3.1,0.4-4.2,1.2c-1.1,0.8-1.6,1.9-1.6,3.2c0,0.8,0.2,1.6,0.7,2.2c0.4,0.7,0.9,1.1,1.3,1.5
	c0.4,0.3,2.6,1.4,6.7,3.3c2.5,1.1,4.2,2,5,2.6c0.8,0.6,1.5,1.5,2,2.5C419.5,197.3,419.8,198.4,419.8,199.6z"/>
<path fill="#AD171A" d="M451,199.2v0.7c0,0.1,0,0.2,0,0.3c-0.1,2.2-1.1,4.2-3.2,6.2c-2.1,2-5,3-8.5,3c-3.9,0-7.2-1.5-9.8-4.4
	c-2.6-3-4-6.4-4-10.3c0-4.3,1.4-8.1,4.1-11.3c2.8-3.2,6.1-4.8,10.1-4.8c2.6,0,5,0.6,7.3,1.9c2.2,1.2,3.3,2.6,3.5,4.3
	c0,0.4,0.1,0.6,0.1,0.8c0,0.1,0,0.3,0,0.6c-0.1,1-1,1.8-2,1.8c0,0,0,0,0,0h-0.9c-1,0-1.8-0.8-2-1.8c-0.1-0.5-0.4-1.3-0.5-1.7
	c-0.8-2.3-3-3.7-5.4-3.7h-0.2c-1.9,0-3.7,0.7-5.1,2h0c-1.1,1.1-2,2.4-2.4,3.9c-0.5,1.7-0.7,3.6-0.7,5.7c0,3,0.4,5.6,1.3,7.8
	c0.6,1.5,1.6,2.8,2.8,3.8c1.2,1,2.7,1.5,4.2,1.5l1.1,0c3.3,0,6.3-1.6,8.1-4.3l0,0c0.4-0.6,0.7-1.3,0.8-2l0,0H451z"/>
<path fill="#AD171A" d="M488.3,208.1v1.5h-14.5v-1.5h1.7c1,0,1.8-0.5,2.3-1.3c0.2-0.3,0.3-0.6,0.3-1c0-0.1,0-0.2,0-0.3v-19.7
	c-0.3-1.2-0.6-2.1-1.1-2.7c-1.3-1.8-2.9-2.7-5-2.7c-2,0-3.8,0.8-5.3,2.3c-1.5,1.5-2.4,3.7-2.7,6.6v16.4c0,0.2,0,0.3,0.1,0.5
	c0.3,1.1,1.3,1.8,2.5,1.8h1.7v1.5h-14.5v-1.5h1.7c0.8,0,1.5-0.4,2-1c0,0,0,0,0,0c0.3-0.4,0.5-0.8,0.5-1.3c0-0.1,0-0.2,0-0.3V166
	c0-0.1,0-0.3,0-0.4c-0.1-1.8-1.5-2.6-4.2-2.6v-1.5H464v21.3c2.8-3.4,5.8-4.2,9.6-4.2c1.5,0,3.3,0.3,4.5,0.7c1.2,0.4,2.2,1.1,3,2
	c1.7,1.8,3,4.9,3,9.4v15.1c0.1,0.6,0.3,1,0.6,1.4l0,0c0.5,0.5,1.2,0.9,1.9,0.9H488.3z"/>
<path fill="#AD171A" d="M267.8,187.3c-9.7,11.3-17.4,24.3-23.5,38.5l-4.7-12.2c-0.3-1.5-0.8-2.9-1.3-4.3L218.7,160
	c-1.2-3.5-2.2-7.5-5.3-10.1c-2.8-2.3-6.4-2.5-10.1-3.2l-1.2-0.3c0-1.3,1.1-2.4,2.4-2.4c12.9,1.1,25.1,1.2,36.4,0
	c0.6,0,1.2,0.3,1.6,0.7c0.4,0.4,0.7,1,0.7,1.6c0,1.2-1,2.2-2.3,2.2h-3.6c-0.5,0-1,0.1-1.5,0.1c-3.2,0.6-5,3.7-3,10.1
	c6,17.5,11.5,35,15.7,45.7c0.3,0.9,1.5,1,2,0.2l16.1-23.4C267.1,183.5,267.4,185.7,267.8,187.3z"/>
</svg>
