<?xml version="1.0" encoding="utf-8"?>
<!-- Generator: Adobe Illustrator 21.1.0, SVG Export Plug-In . SVG Version: 6.00 Build 0)  -->
<svg version="1.1" id="no-photo" xmlns="http://www.w3.org/2000/svg" xmlns:xlink="http://www.w3.org/1999/xlink" x="0px" y="0px"
	 viewBox="-7 -7 25 25" style="enable-background:new 0 0 10 10;" xml:space="preserve">
<style type="text/css">
	.st0{fill:#ECF2F5;}
</style>
<path class="st0" d="M4.1,3C4.2,3,4.3,3,4.4,3C4.6,3,4.8,2.9,5,2.9c1.1,0,2.1,0.9,2.1,2.1c0,0.2,0,0.4-0.1,0.6C7,5.7,7,5.8,7,5.9
	L9.1,8C9.2,8,9.2,8,9.3,8c0,0,0,0,0,0c0.1,0,0.1,0,0.2-0.1c0.1-0.1,0.1-0.3,0.1-0.4V2.9c0-0.5-0.4-0.8-0.8-0.8h-1
	C7.6,2.1,7.5,2,7.5,2L6.6,1.1C6.4,0.9,6.2,0.8,6,0.8H4c-0.2,0-0.4,0.1-0.6,0.2L3,1.5C2.9,1.6,2.9,1.7,3,1.8L4.1,3z M8.3,2.9
	c0.2,0,0.4,0.2,0.4,0.4S8.6,3.7,8.3,3.7S7.9,3.6,7.9,3.3S8.1,2.9,8.3,2.9z"/>
<path class="st0" d="M9.9,9.3L0.7,0.1C0.6,0,0.4,0,0.4,0.1L0.1,0.4C0,0.4,0,0.6,0.1,0.7l1.4,1.4H1.3c-0.5,0-0.8,0.4-0.8,0.8v4.6
	c0,0.5,0.4,0.8,0.8,0.8h6.5l1.6,1.6c0.1,0.1,0.2,0.1,0.3,0l0.3-0.3C10,9.6,10,9.4,9.9,9.3z M5,7.1C3.9,7.1,2.9,6.1,2.9,5
	c0-0.4,0.1-0.8,0.3-1.1l0.3,0.3C3.4,4.4,3.3,4.7,3.3,5c0,0.9,0.7,1.7,1.7,1.7c0.3,0,0.6-0.1,0.8-0.2l0.3,0.3C5.8,7,5.4,7.1,5,7.1z"
	/>
<path class="st0" d="M5,3.3c-0.1,0-0.2,0-0.2,0.1c0,0.1,0,0.2,0,0.2l1.4,1.4c0,0,0.1,0.1,0.1,0.1c0,0,0.1,0,0.1,0
	c0.1,0,0.1-0.1,0.1-0.2C6.7,4.1,5.9,3.3,5,3.3z"/>
</svg>
