<svg xmlns="http://www.w3.org/2000/svg" xmlns:xlink="http://www.w3.org/1999/xlink" width="400" height="1078"><symbol id="icon-wall" viewBox="0 0 10 10"><title>wall</title><g id="wall"><path d="M7.2 5.3h1.7v2.3H7.2zM5.2 2.6h3.7v2.3H5.2zM7.4 0h1.5v2.3H7.4zM5.2 7.9h3.7V10H5.2zM3 5.3h3.8v2.3H3zM1.1 7.9h3.7V10H1.1zM1.1 5.3h1.6v2.3H1.1zM3 0h4v2.3H3zM1.1 0h1.6v2.3H1.1zM1.1 2.6h3.7v2.3H1.1z"/></g></symbol><symbol id="icon-user" viewBox="0 0 10 10"><title>user</title><path id="user_1_" d="M5 5.3c1.4 0 2.5-1.2 2.5-2.6C7.5 1.2 6.4 0 5 0S2.5 1.2 2.5 2.6c0 1.5 1.1 2.7 2.5 2.7zM5 .6c1.1 0 1.9.9 1.9 2.1C6.9 3.8 6 4.8 5 4.8s-1.9-1-1.9-2.2c0-1.1.8-2 1.9-2zM8.1 7c-.7-.7-1.6-1.1-2.6-1.1h-1c-1 0-1.8.4-2.5 1.1S1 8.7 1 9.7c-.1.2 0 .3.2.3h7.7c.1 0 .2-.1.2-.3 0-1-.4-2-1-2.7zM1.4 9.4c.1-1.7 1.4-3 3-3h1.1c1.6 0 2.9 1.3 3 3H1.4z"/></symbol><symbol id="icon-tiles-view" viewBox="0 0 10 10"><title>tiles-view</title><style>.st0{fill-rule:evenodd;clip-rule:evenodd}</style><path class="st0" d="M0 0h4.4v4.4H0V0zM5.6 0H10v4.4H5.6V0zM0 5.6h4.4V10H0V5.6zM5.6 5.6H10V10H5.6V5.6z"/></symbol><symbol id="icon-thin-cross" viewBox="0 0 10 10"><title>thin-cross</title><style>.st0{fill-rule:evenodd;clip-rule:evenodd}</style><path class="st0" d="M10 4.7v.6H5.3V10h-.6V5.3H0v-.6h4.7V0h.6v4.7z"/></symbol><symbol id="icon-tables-view" viewBox="0 0 10 10"><title>tables-view</title><path id="tables-view_1_" d="M9.9 2.7c-.1 0-.2 0-.2.1l-.5 3H8.1v-.5c.1 0 .1 0 .1-.1V3.9c0-.1-.1-.1-.2-.1H6.7v-.6c.2-.1.3-.2.3-.4v-.6c0-.1-.1-.1-.2-.1h-.5c-.1 0-.2.1-.2.1v.5c0 .2.1.4.3.4v.5h-.8V2.2c0-.3-.2-.5-.4-.5V.8c0-.1-.1-.1-.2-.1s-.2.1-.2.1v.9c-.2.1-.4.3-.4.5v1.5h-.8v-.5c.2-.1.3-.2.3-.4v-.6c0-.1-.1-.1-.2-.1h-.6c-.1 0-.2.1-.2.1v.5c0 .2.1.4.3.4v.5H1.9c-.1 0-.1.1-.2.1v1.4s0 .1.1.1l.1.1H2v.5H.8l-.5-3c0-.1-.1-.1-.2-.1s-.1.1-.1.2l.5 3v3.3c0 .1.1.1.2.1s.2-.1.2-.1V6.7h1l-.2 1.9s0 .1.1.1h.1c.2 0 .3 0 .5-.1v.5c0 .1.1.1.2.1s.2-.1.2-.1v-.6c.2-.1.3-.2.5-.2v.9c0 .1.1.1.2.1s.2-.1.2-.1v-.9c.2 0 .4.1.5.2.1.1.4.2.8.2s.6-.1.8-.2c.2-.1.3-.1.6-.2v.9c0 .1.1.1.2.1s.1-.1.1-.1v-.9c.2 0 .4.1.5.2h.1v.7c0 .1.1.1.2.1s.2-.1.2-.1v-.5c.1 0 .3.1.5.1h.1v-.1l-.1-2h1v2.5c0 .1.1.1.2.1s.2-.1.2-.1V5.9l.5-3-.2-.2zm-8 3.7H.8v-.3h1.1v.3zm4.5-4h.3v.3c0 .1-.1.2-.1.2-.1 0-.2-.1-.2-.2v-.3zm-1.7-.2c0-.1.2-.2.3-.2.1 0 .3.1.3.3v1.5h-.6V2.2zm-1.5.2h.3v.3c0 .1-.1.2-.2.2s-.2-.1-.2-.2v-.3zm4.1 2.9h.5l.1 3.2c-.2 0-.4-.1-.5-.2-.2-.2-.4-.3-.9-.3-.4 0-.6.1-.8.3-.2 0-.4.1-.7.1-.3 0-.5-.1-.7-.2-.2-.1-.4-.2-.8-.2s-.7.1-.9.3c0 0-.1 0-.1.1-.1 0-.2.1-.4.1l.1-3.2h4.4c.1 0 .1-.1.1-.1 0-.1-.1-.2-.1-.2H2v-.9h5.9V5h-.6c-.1-.1-.2 0-.2.1s.1.2.2.2zm1.9 1.1h-1v-.3h1.1v.3z"/></symbol><symbol id="icon-table" viewBox="0 0 10 10"><title>table</title><path id="table_1_" d="M4.8.6H2.3L0 2.6v.6c0 .2.1.4.4.4v4.8c0 1 0 .9.8.9.2 0 .4-.2.4-.4V3.7h6.9V9c0 .4.5.4.8.4.4 0 .3-.5.3-.9V3.7c.3 0 .4-.2.4-.4v-.7L8.1.6H4.8zM2 4v3.2c0 .2.1.3.3.3h.4c.2 0 .3-.1.3-.3V4H2zm5.1 0v3.2c0 .2.1.3.3.3h.4c.1 0 .2-.1.2-.3V4h-.9z"/></symbol><symbol id="icon-settings" viewBox="0 0 10 10"><title>settings</title><path id="author-circle" d="M6.2 10c-.3 0-.5-.2-.7-.3-.2-.1-.4-.3-.5-.3-.1 0-.3.1-.5.2-.2.3-.5.5-.8.4-.4-.1-.5-.4-.7-.7 0-.2-.1-.4-.2-.5-.1-.1-.3 0-.5 0-.3 0-.7.1-.9-.2-.3-.2-.2-.6-.2-.9v-.5C1.1 7.1.9 7 .7 7c-.3-.2-.6-.3-.7-.7-.1-.3.1-.6.3-.8.1-.2.3-.4.3-.5 0-.1-.1-.3-.2-.5-.3-.2-.5-.5-.4-.8.1-.4.4-.5.7-.7.2 0 .4-.1.5-.2.1-.1 0-.3 0-.5 0-.3-.1-.7.2-.9.2-.3.6-.2.9-.2h.5c.1-.1.2-.3.2-.5.2-.3.3-.6.7-.7.3-.1.6.1.8.3.2.1.4.3.5.3.1 0 .3-.1.5-.2.2-.3.5-.5.8-.4.4.1.5.4.7.7 0 .2.1.4.2.5.1.1.3 0 .5 0 .3 0 .7-.1.9.2s.2.6.2.9v.5c.1.1.3.2.5.2.3.2.6.3.7.7.1.3-.1.6-.3.8-.1.2-.3.4-.3.5 0 .1.1.3.2.5.3.2.5.5.4.8-.1.4-.4.5-.7.7-.2 0-.4.1-.5.2-.1.1 0 .3 0 .5 0 .3.1.7-.2.9s-.6.2-.9.2h-.5c-.1.1-.2.3-.2.5-.2.3-.3.6-.7.7h-.1zM5 8.9c.3 0 .5.2.8.3.1.1.4.3.5.2.1 0 .2-.3.3-.4 0-.2.1-.5.4-.6.2-.1.5-.1.8-.1h.5c.1-.1 0-.3 0-.5 0-.3 0-.6.1-.8.1-.3.4-.4.6-.5.2-.1.4-.2.4-.3 0-.1-.1-.3-.2-.5s-.3-.4-.3-.7c0-.3.2-.5.3-.8.1-.1.3-.4.2-.5 0-.1-.3-.2-.4-.3-.2 0-.5-.1-.6-.4-.1-.2-.1-.5-.1-.8v-.5c-.1-.1-.3 0-.5 0-.3 0-.6 0-.8-.1-.3-.1-.4-.4-.5-.6-.1-.2-.2-.5-.3-.5-.1 0-.3.1-.5.2-.2.2-.4.4-.7.4-.3 0-.5-.2-.8-.3-.1-.2-.3-.3-.4-.3-.1 0-.2.3-.3.5-.1.2-.2.5-.5.6-.2.1-.5.1-.8.1h-.5c-.1.1 0 .3 0 .5 0 .3 0 .6-.1.8-.1.3-.4.4-.6.5-.2.1-.5.2-.5.3 0 .1.1.3.2.5.2.2.4.4.4.7 0 .3-.2.5-.3.8-.2.1-.3.3-.3.4 0 .1.3.2.4.3.3.1.6.2.7.5.1.2.1.5.1.8v.5c.1.1.3 0 .5 0 .3 0 .6 0 .8.1.3.1.4.4.5.6.1.2.2.4.3.4.1 0 .3-.1.5-.2s.4-.3.7-.3z"/><path id="circle" d="M5 7.5C3.6 7.5 2.5 6.4 2.5 5S3.6 2.5 5 2.5 7.5 3.6 7.5 5 6.4 7.5 5 7.5zM5 3c-1.1 0-2 .9-2 2s.9 2 2 2 2-.9 2-2-.9-2-2-2z"/></symbol><symbol id="icon-print" viewBox="0 0 10 10"><title>print</title><path id="print" d="M9.3 1.8H7.4V.6c0-.1-.1-.2-.2-.2H2.8c-.1 0-.2.1-.2.2v1.1H.7c-.4.1-.7.4-.7.9v3.7c0 .4.3.7.7.7h1.9v2.2c0 .1.1.2.2.2h4.4c.1 0 .2-.1.2-.2V7h1.9c.4 0 .7-.3.7-.8V2.6c0-.5-.3-.8-.7-.8zm-1.9.4h.5v.6h-.5v-.6zM3 .9h4v2H3v-2zm-.9 1.3h.5v.6h-.5v-.6zM7 9H3V6h4v3zm2.6-2.8c0 .2-.1.3-.3.3H7.4V6h.4c.1 0 .2-.2.2-.3s-.1-.2-.2-.2H2.2c-.1 0-.2.1-.2.2s.1.3.2.3h.4v.6H.7c-.2 0-.3-.1-.3-.3V2.6c0-.2.1-.3.3-.3h.9v.9c0 .1.1.2.2.2h6.3c.1 0 .2-.1.2-.2v-1h.9c.2 0 .3.1.3.3v3.7h.1zM1.3 3.9c-.1 0-.2.1-.2.2s.1.3.3.3c.1 0 .3-.1.3-.3s-.2-.2-.4-.2zm2.6 4.3h1c.1 0 .2-.1.2-.2s-.1-.2-.2-.2h-1c-.1 0-.2.1-.2.2s.1.2.2.2zm0-1.2H6c.1 0 .2-.1.2-.2s-.1-.2-.2-.2H3.9c-.1 0-.2.1-.2.2s.1.2.2.2z"/></symbol><symbol id="icon-plant" viewBox="0 0 10 10"><title>plant</title><path id="plant_1_" d="M4.3 2.8c.4.3.6 1.3.7 1.9h.4c.1-.6.3-1.2.6-1.4 2.2.8 2-1.5 2.7-3C7.1 1 4.5.2 5.4 2.9 6 1.8 6.7 1.4 8.2.6c-1.4.8-2.6 2-3 3.3-.2-.5-.4-.9-.6-1.3C5.1.2 3.9-.1 1.2 0c1 1.2 0 3.1 3.1 2.8zm-1 7.2L1.5 6.6V4.9h7.3v1.7L6.9 10H3.3z"/></symbol><symbol id="icon-plan-table" viewBox="0 0 10 10"><title>plan-table</title><path d="M4.8 0H2.5L.4 2.9v.7c0 .2.2.6.8.6V10h1.6V4.2H7V10h1.6V4.2c.3 0 .8-.3.8-.6v-.7L7.9 0H4.8z"/></symbol><symbol id="icon-plan-person" viewBox="0 0 10 10"><title>plan-person</title><path d="M5 5c1.1 0 2.5-1.4 2.5-2.5S6.1 0 5 0 2.5 1.4 2.5 2.5 3.9 5 5 5zm.8.8H4.2c-1.4 0-2.5 1-2.5 2.4V10h6.7V8.2c-.1-1.4-1.2-2.4-2.6-2.4z"/></symbol><symbol id="icon-pillar" viewBox="0 0 10 10"><title>pillar</title><path d="M5.2 5.5h1.6v4.1H5.2zM1.9 5.5h.8v4.1h-.8zM8.3.4H1.7C.7.5 0 1.2 0 2.2c0 .9.7 1.6 1.6 1.7.3 0 1.1-.1 1.1-.9 0-.5-.4-.9-.8-.9v-.5c.4 0 .7.2.9.4.2.3.4.7.4 1 0 .7-.5 1.2-1.3 1.3V5h6.2v-.6c-.3 0-.6-.1-.8-.3-.3-.3-.5-.6-.5-1.1 0-.4.1-.7.4-1 .2-.3.6-.4.9-.4v.5c-.2 0-.4.1-.6.3-.1.2-.2.4-.2.6 0 .3.1.5.3.6.2.1.5.2.7.2.9 0 1.6-.8 1.6-1.7C10 1.2 9.3.5 8.3.4zM7.3 5.5h.8v4.1h-.8zM3.2 5.5h1.6v4.1H3.2z"/></symbol><symbol id="icon-no-photo" viewBox="0 0 10 10"><title>no-photo</title><path d="M4.1 3h.3c.2 0 .4-.1.6-.1 1.1 0 2.1.9 2.1 2.1 0 .2 0 .4-.1.6v.3L9.1 8h.2c.1 0 .1 0 .2-.1s.1-.3.1-.4V2.9c0-.5-.4-.8-.8-.8h-1c-.2 0-.3-.1-.3-.1l-.9-.9C6.4.9 6.2.8 6 .8H4c-.2 0-.4.1-.6.2l-.4.5c-.1.1-.1.2 0 .3L4.1 3zm4.2-.1c.2 0 .4.2.4.4s-.1.4-.4.4-.4-.1-.4-.4.2-.4.4-.4zM9.9 9.3L.7.1C.6 0 .4 0 .4.1L.1.4C0 .4 0 .6.1.7l1.4 1.4h-.2c-.5 0-.8.4-.8.8v4.6c0 .5.4.8.8.8h6.5l1.6 1.6c.1.1.2.1.3 0l.3-.3s0-.2-.1-.3zM5 7.1c-1.1 0-2.1-1-2.1-2.1 0-.4.1-.8.3-1.1l.3.3c-.1.2-.2.5-.2.8 0 .9.7 1.7 1.7 1.7.3 0 .6-.1.8-.2l.3.3c-.3.2-.7.3-1.1.3z"/><path d="M5 3.3c-.1 0-.2 0-.2.1v.2L6.2 5l.1.1h.1c.1 0 .1-.1.1-.2.2-.8-.6-1.6-1.5-1.6z"/></symbol><symbol id="icon-logout" viewBox="0 0 10 10"><title>logout</title><path id="arrow-right" d="M10 5c0 .1 0 .1-.1.2L7.8 7.3c-.1 0-.1.1-.2.1s-.1 0-.2-.1c0-.1 0-.3.1-.3l1.7-1.7H2.7c-.1 0-.2-.2-.2-.3s.1-.3.3-.3h6.4L7.5 3.1c-.1-.1-.1-.3 0-.4.1-.1.3-.1.4 0L10 4.8V5z"/><path id="line" d="M4.7 9.9H2.3C1 9.9 0 8.9 0 7.7V2.3C0 1.1 1 0 2.3 0h2.5c.1.1.2.2.2.3s-.1.3-.3.3H2.3C1.3.6.5 1.4.5 2.4v5.4c0 1 .8 1.8 1.8 1.8h2.5c.1-.2.2 0 .2.1s-.1.2-.3.2z"/></symbol><symbol id="icon-logo" viewBox="0 0 400 400"><title>logo</title><path fill="#AD171A" d="M69.7 165.3v20.6l-16-5.9c-1.3 1.5-3.1 2.5-5.3 2.5-2.1 0-4-1-5.3-2.5l-15.9 5.9v-20.6l15.9 5.9c1.3-1.5 3.2-2.5 5.3-2.5 2.1 0 4 1 5.3 2.5l16-5.9z"/><circle cx="48.5" cy="196.2" r="4.9"/><circle cx="48.5" cy="212.8" r="4.9"/><circle cx="48.5" cy="229.5" r="4.9"/><circle cx="48.5" cy="246.2" r="4.9"/><path d="M217.8 228.9l-8.3 10c-13.5-4.3-21.4-11.7-25.8-20.9v-7.9c-9.5 11.1-17.1 23.8-23.1 37.8-3.3 7.6-6.1 15.7-8.6 24-.2.7-.8 1.1-1.5 1.1-.9 0-1.6-.7-1.6-1.6 0-.1 0-.3.1-.4l3-10.4-7.3 4.5c-.7.4-1.6.3-2.1-.3l-.1-.1c-.6-.8-.4-2 .5-2.4 5.7-2.8 10-6.9 12.3-13.2 1.5-4.2 1.7-8.7.7-13.1-.3-1.4-.7-2.9-1.3-4.3l-19.3-48.4c-1.1-3.5-2.2-7.4-5.2-9.9-2.7-2.3-6.3-2.5-9.9-3.1l-1.2-.3-13.3-2.8c-3.5-.6-7.1-1-10.6-1H89c-.7 22.4-4.8 43.8-12 64.2-.2.4-.6.7-1 .7-.6 0-1.1-.5-1.1-1.1v-.3c2.4-7.5 3.6-17.6 5.1-28.1 1.6-10.9.3-17 1.9-25.6l1.2-6.4v-.1l.1-.8c.9-5.7-1.4-9.6-9.2-9.6 0 1.5.8 2.8 2.1 3.6 5.2 3.2 4 9.7-1.6 18.4-1.8 2.7-2.7 5.9-2.7 9.2 2.6-3.5 5-7.1 7-10.5l-.1 2.5c0 6.1-.3 12.3-1.6 18.2C71 230.4 62.7 256 48.5 269c-4.6-2-9.8-9.1-15-16.3V295c3.1 2.5 7.2 4.4 12.2 5.7 4.8 1.3 9.8 1.9 14.8 1.9h20.9c1.1 0 2.2-.1 3.4-.1 9.8-.4 19.4 2.9 29 6.2v-43.4h2c6.6 19.2 16.3 34.9 29.6 46.8 3.2 2.9 7.3 4.4 11.6 4.4 2.4 0 4.7-.5 6.8-1.5 32.5-15.9 43.4-59.2 56-70.8V238c0-3.9-.2-7.4-2-9.1zM83.9 258.5c-.5.7-1.6.6-1.9-.2l-.2-.5c-.1-.3-.1-.6 0-.9 7.6-15.2 14.9-30 15.5-38 11.7-.1 7.6 7.5-13.4 39.6zm-3.2-17.8c-.4.7-1.4.8-1.9 0l-.2-.4c-.2-.3-.2-.7 0-1 10.5-22.4 18.2-42.5 19.2-56.9 15.5-.2 3 21.5-17.1 58.3z"/><path d="M190.4 217.3c0 1.3.7 2.5 1.8 3.1l10 5.3h7.8c1 0 1.8-.8 1.8-1.8-7 0-14.2-2.6-21.4-6.6zM188.9 197.5c-1.5 3.6-1.6 7.6-.4 11.3l.4 1.2 5.1 2.3c-2.7-3.2-4.1-8.6-5.1-14.8zM196 192.7c-1.5 1.7-2.3 3.8-2.3 6v.7l2.3 2.2c-.9-2.1-.7-5.3 0-8.9zM217.2 145.8v3h78c-3.3 1.1-6.6 1.9-9.9 2.4-3.4.5-6.8.8-10.2.8h-16.2l-3.9 3.4c-2 1.7-4.5 2.6-7.2 2.6h-8l-11.6 15.2-5.6 2 2-5.9 15.2-14.6h-2.3c-3.4 3.2-7.9 4.7-12.9 5.4l3.4-3.4c1.3-1.3 2-3 2-4.7h-36.3c2.5 1.6 4.3 3.8 5.7 6.4.2.5.9.4 1.1-.1l.8-3.7v8.6c.6 2.1.9 4.4 1.1 6.8v1.9c0 6-2.2 11.7-6.3 16.2V169c0-8.4-6.8-15.2-15.2-15.2h-2.5c-2.4 0-4.7-.5-6.8-1.5l-.7-.3h-2c-6.8 0-13.6-1.1-20.1-3.2h43.4v-3h-53.3c0-1.3 1-2.3 2.3-2.3h12c43.9-3.6 89.7-3.6 137.1 0h11.8c1.3 0 2.3 1 2.3 2.3h-87.2zM27.3 115.3c.8-10.3-.7-18.4-4.3-24.4 14.1-13.4 54.7-6.5 71.7 3.7.6.4.9 1 .9 1.7s-.4 1.3-1 1.7c-6.7 4.2-12.2 12.2-17.4 21.3-.7 1.2-1.1 2.6-1.1 4 0 2.2.8 4.4 2.5 5.8 3.5 3.2 8.1 4.1 14.3 2 .9-.3 1.8-.1 2.5.5 3.3 2.8 1.8 4.8-2.3 6.4-2.9 1.1-5.9 1.6-9 1.6h-.6c-2.3 0-4.6-.3-6.7-.9-15.7-4.2-29.1-12.4-40.5-14.4-1.3-.2-2.6-.3-3.8-.3H21.8c-2.9 0-5.8.5-8.4 1.7-12.7 5.7-4 18.2 15.4 4.3l1.5-1.1c-.8 1.2-1.8 2.3-2.9 3.3-2.9 2.7-5.7 4.9-10.2 6.2-1.1.3-2.1.4-3.2.4h-2.6c-4 0-8-1.9-10.1-5.3-3.4-5.3-.2-10.5 8.7-15.7 2.9-1.7 6.2-2.6 9.5-2.5h7.8z"/><path fill="#AD171A" d="M236.5 191.7v35.1c0 .8.3 1.5.8 2 .6.5 1.5.8 2.9 1.1h1.5v1.4H224v-1.4h.9c2.1 0 3.4-.8 3.8-2.1 0-.1 0-.2.1-.3v-35.1c-.2-1.7-.5-2.8-.8-3.4-.6-1-1.8-1.6-3.5-1.9h-1v-1.4h18.4v1.4h-1.4c-2.3.4-4 2.3-4 4.6zM292.2 185.7v11.8H291c-1.3-4.7-5.4-9.2-12.2-9.4-.9 0-2 0-2.9.2-.7.2-1.6.5-2.2 1.1-.5.5-1.2 1.3-1.4 3v33.5c.1 2.9 3.2 3.9 7.4 4.1v1.3h-22.5V230c4.2-.3 7.3-1.3 7.4-4.1v-33.5c-.2-1.7-1-2.5-1.4-3-.7-.7-1.5-1-2.2-1.1-.9-.2-1.9-.2-2.9-.2-6.8.2-11 4.7-12.2 9.4h-1.2v-11.8h47.5zM306.3 229.9v1.4h-14.2v-1.4h1.6c1.3 0 2.4-1 2.5-2.3V205.7v-.4c-.1-1.7-1.5-2.6-4.2-2.5v-1.5h10v26.3c.1 1.3 1.2 2.3 2.5 2.3h1.8z"/><circle fill="#AD171A" cx="298.2" cy="188.1" r="3.4"/><path fill="#AD171A" d="M332.7 222.1c0 2.7-1 5-3 6.9-2 1.9-4.3 2.9-7 2.9-1.6 0-3.5-.5-5.8-1.6-1.2-.5-1.9-.8-2.2-.8-.4 0-.7.2-1 .7-.2.3-.1 1.1-.1 1.1H312v-10.9h1.3l.6 2.1c.2.6.4 1.2.7 1.7.7 1.3 1.5 2.5 2.4 3.6 1.6 1.8 3.5 2.7 5.7 2.7 1.5 0 2.9-.5 4.1-1.4 1.2-1 1.8-2.2 1.8-3.9 0-2.5-2.2-4.8-6.6-6.7-3-1.3-5-2.3-6-2.9-1-.6-1.8-1.5-2.4-2.5-.6-1.1-.9-2.2-.9-3.5 0-2.4.9-4.4 2.7-6 1.8-1.6 4-2.4 6.5-2.4 1.9 0 4 .6 6.2 1.8.4.2.7.3 1 .3.5 0 1-.8 1-1.4h1.5v9.2h-1.8v-.6c0-1-.2-1.9-.7-2.8-.2-.3-.4-.7-.6-1.1-.9-1.7-1.9-2.8-3-3.3s-2.2-.7-3.2-.7c-1.7 0-3 .4-4.1 1.2-1.1.8-1.6 1.8-1.6 3.1 0 .8.2 1.5.7 2.2.4.6.8 1.1 1.2 1.4.4.3 2.6 1.4 6.6 3.2 2.5 1.1 4.1 2 4.9 2.6.8.6 1.4 1.4 2 2.5.5 1.1.7 2.2.7 3.3zM363.4 221.7v1c-.1 2.1-1.1 4.1-3.1 6-2.1 2-4.9 3-8.4 3-3.8 0-7-1.5-9.6-4.4-2.6-2.9-3.9-6.3-3.9-10.1 0-4.2 1.4-7.9 4.1-11.1 2.7-3.1 6-4.7 9.9-4.7 2.5 0 4.9.6 7.2 1.8 2.1 1.1 3.3 2.5 3.4 4.2 0 .4.1.6.1.8v.6c-.1 1-.9 1.7-1.9 1.7h-.9c-1 0-1.8-.7-1.9-1.7-.1-.5-.4-1.3-.5-1.7-.8-2.2-2.9-3.7-5.3-3.7h-.2c-1.9 0-3.7.7-5 2-1.1 1.1-2 2.4-2.4 3.9-.4 1.6-.7 3.5-.7 5.6 0 2.9.4 5.5 1.3 7.7.6 1.5 1.6 2.7 2.8 3.7 1.2.9 2.6 1.4 4.1 1.4h1.1c3.2 0 6.2-1.6 7.9-4.3.4-.6.6-1.2.8-1.9h1.1zM400 230.5v1.4h-14.2v-1.4h1.6c1 0 1.8-.5 2.2-1.3.2-.3.3-.6.3-1v-19.6c-.3-1.1-.6-2-1-2.6-1.2-1.8-2.9-2.7-4.9-2.7-2 0-3.7.7-5.2 2.3-1.5 1.5-2.4 3.6-2.7 6.5v16.1c0 .2 0 .3.1.5.3 1 1.3 1.8 2.4 1.8h1.6v1.4H366v-1.4h1.6c.8 0 1.5-.4 2-1 .3-.4.5-.8.5-1.3V189.1v-.4c-.1-1.7-1.5-2.6-4.2-2.5v-1.5h10v20.9c2.8-3.4 5.7-4.1 9.4-4.1 1.5 0 3.2.3 4.4.7 1.2.4 2.2 1.1 3 2 1.6 1.7 2.9 4.8 2.9 9.3v14.8c.1.5.3 1 .6 1.4.5.5 1.1.8 1.9.8h1.9zM183.7 210.1c-9.5 11.1-17.1 23.8-23.1 37.8l-4.6-12c-.3-1.4-.7-2.9-1.3-4.3l-19.3-48.4c-1.1-3.5-2.2-7.4-5.2-9.9-2.7-2.3-6.3-2.5-9.9-3.1l-1.2-.3c0-1.3 1-2.3 2.3-2.3 12.7 1.1 24.6 1.2 35.7 0 .6 0 1.2.2 1.6.6.4.4.6 1 .6 1.6 0 1.2-1 2.2-2.2 2.2h-3.5c-.5 0-1 0-1.4.1-3.1.6-4.9 3.7-2.9 10 5.9 17.2 11.3 34.4 15.4 44.9.3.8 1.5 1 2 .2l15.8-22.9c.5 2.1.8 4.1 1.2 5.8z"/></symbol><symbol id="icon-logo-black" viewBox="0 0 400 400"><title>logo-black</title><g id="group"><path d="M70.2 168.3v20.6l-16-5.9c-1.3 1.5-3.1 2.5-5.3 2.5-2.1 0-4-1-5.3-2.5l-15.9 5.9v-20.6l15.9 5.9c1.3-1.5 3.2-2.5 5.3-2.5 2.1 0 4 1 5.3 2.5l16-5.9z"/><circle cx="49" cy="199.2" r="4.9"/><circle cx="49" cy="215.9" r="4.9"/><circle cx="49" cy="232.6" r="4.9"/><circle cx="49" cy="249.3" r="4.9"/><path d="M218.3 232l-8.3 10c-13.5-4.3-21.4-11.7-25.8-20.9v-7.9c-9.5 11.1-17.1 23.8-23.1 37.8-3.3 7.6-6.1 15.7-8.6 24-.2.7-.8 1.1-1.5 1.1-.9 0-1.6-.7-1.6-1.6 0-.1 0-.3.1-.4l3-10.4-7.3 4.5c-.7.4-1.6.3-2.1-.3l-.1-.1c-.6-.8-.4-2 .5-2.4 5.7-2.8 10-6.9 12.3-13.2 1.5-4.2 1.7-8.7.7-13.1-.3-1.4-.7-2.9-1.3-4.3l-19.3-48.4c-1.1-3.5-2.2-7.4-5.2-9.9-2.7-2.3-6.3-2.5-9.9-3.1l-1.2-.3-13.3-2.8c-3.5-.6-7.1-1-10.6-1h-6.2c-.7 22.4-4.8 43.8-12 64.2-.2.4-.6.7-1 .7-.6 0-1.1-.5-1.1-1.1v-.3c2.4-7.5 3.6-17.6 5.1-28.1 1.6-10.9.3-17 1.9-25.6l1.2-6.4v-.1l.1-.8c.9-5.7-1.4-9.6-9.2-9.6 0 1.5.8 2.8 2.1 3.6 5.2 3.2 4 9.7-1.6 18.4-1.8 2.7-2.7 5.9-2.7 9.2 2.6-3.5 5-7.1 7-10.5l-.1 2.5c0 6.1-.3 12.3-1.6 18.2C71.4 233.4 63.2 259 49 272c-4.6-2-9.8-9.1-15-16.3V298c3.1 2.5 7.2 4.4 12.2 5.7 4.8 1.3 9.8 1.9 14.8 1.9h20.9c1.1 0 2.2-.1 3.4-.1 9.8-.4 19.4 2.9 29 6.2v-43.4h2c6.6 19.2 16.3 34.9 29.6 46.8 3.2 2.9 7.3 4.4 11.6 4.4 2.4 0 4.7-.5 6.8-1.5 32.5-15.9 43.4-59.2 56-70.8V241c-.1-3.9-.2-7.4-2-9zM84.4 261.6c-.5.7-1.6.6-1.9-.2l-.2-.5c-.1-.3-.1-.6 0-.9 7.6-15.2 14.9-30 15.5-38 11.7-.1 7.5 7.5-13.4 39.6zm-3.2-17.9c-.4.7-1.4.8-1.9 0l-.2-.4c-.2-.3-.2-.7 0-1 10.5-22.4 18.2-42.5 19.2-56.9 15.4-.1 2.9 21.5-17.1 58.3z"/><path d="M190.9 220.3c0 1.3.7 2.5 1.8 3.1l10 5.3h7.8c1 0 1.8-.8 1.8-1.8-7 .1-14.2-2.5-21.4-6.6zM189.4 200.6c-1.5 3.6-1.6 7.6-.4 11.3l.4 1.2 5.1 2.3c-2.7-3.2-4.2-8.6-5.1-14.8zM196.4 195.8c-1.5 1.7-2.3 3.8-2.3 6v.7l2.3 2.2c-.8-2.2-.6-5.4 0-8.9zM217.7 148.9v3h78c-3.3 1.1-6.6 1.9-9.9 2.4-3.4.5-6.8.8-10.2.8h-16.2l-3.9 3.4c-2 1.7-4.5 2.6-7.2 2.6h-8l-11.6 15.2-5.6 2 2-5.9 15.2-14.6H238c-3.4 3.2-7.9 4.7-12.9 5.4l3.4-3.4c1.3-1.3 2-3 2-4.7h-36.3c2.5 1.6 4.3 3.8 5.7 6.4.2.5.9.4 1.1-.1l.8-3.7v8.6c.6 2.1.9 4.4 1.1 6.8v1.9c0 6-2.2 11.7-6.3 16.2V172c0-8.4-6.8-15.2-15.2-15.2h-2.5c-2.4 0-4.7-.5-6.8-1.5l-.7-.3h-2c-6.8 0-13.6-1.1-20.1-3.2h43.4v-3h-53.3c0-1.3 1-2.3 2.3-2.3h12c43.9-3.6 89.7-3.6 137.1 0h11.8c1.3 0 2.3 1 2.3 2.3h-87.2zM27.8 118.4c.8-10.3-.7-18.4-4.3-24.4 14.1-13.4 54.7-6.5 71.7 3.7.6.4.9 1 .9 1.7s-.4 1.3-1 1.7c-6.7 4.2-12.2 12.2-17.4 21.3-.7 1.2-1.1 2.6-1.1 4 0 2.2.8 4.4 2.5 5.8 3.5 3.2 8.1 4.1 14.3 2 .9-.3 1.8-.1 2.5.5 3.3 2.8 1.8 4.8-2.3 6.4-2.9 1.1-5.9 1.6-9 1.6H84c-2.3 0-4.6-.3-6.7-.9-15.7-4.2-29.1-12.4-40.5-14.4-1.3-.2-2.6-.3-3.8-.3H22.3c-2.9 0-5.8.5-8.4 1.7-12.7 5.7-4 18.2 15.4 4.3l1.5-1.1c-.8 1.2-1.8 2.3-2.9 3.3-2.9 2.7-5.7 4.9-10.2 6.2-1.1.3-2.1.4-3.2.4h-2.6c-4 0-8-1.9-10.1-5.3-3.4-5.3-.2-10.5 8.7-15.7 2.9-1.7 6.2-2.6 9.5-2.5h7.8zM237 194.8v35.1c0 .8.3 1.5.8 2 .6.5 1.5.8 2.9 1.1h1.5v1.4h-17.8V233h.9c2.1 0 3.4-.8 3.8-2.1 0-.1 0-.2.1-.3v-35.1c-.2-1.7-.5-2.8-.8-3.4-.6-1-1.8-1.6-3.5-1.9h-1v-1.4h18.4v1.4h-1.4c-2.2.3-3.9 2.3-3.9 4.6zM292.7 188.8v11.8h-1.2c-1.3-4.7-5.4-9.2-12.2-9.4-.9 0-2 0-2.9.2-.7.2-1.6.5-2.2 1.1-.5.5-1.2 1.3-1.4 3V229c.1 2.9 3.2 3.9 7.4 4.1v1.3h-22.5V233c4.2-.3 7.3-1.3 7.4-4.1v-33.5c-.2-1.7-1-2.5-1.4-3-.7-.7-1.5-1-2.2-1.1-.9-.2-1.9-.2-2.9-.2-6.8.2-11 4.7-12.2 9.4H245v-11.8h47.7zM306.8 232.9v1.4h-14.2v-1.4h1.6c1.3 0 2.4-1 2.5-2.3V208.7v-.4c-.1-1.7-1.5-2.6-4.2-2.5v-1.5h10v26.3c.1 1.3 1.2 2.3 2.5 2.3h1.8z"/><circle cx="298.7" cy="191.2" r="3.4"/><path d="M333.2 225.1c0 2.7-1 5-3 6.9-2 1.9-4.3 2.9-7 2.9-1.6 0-3.5-.5-5.8-1.6-1.2-.5-1.9-.8-2.2-.8-.4 0-.7.2-1 .7-.2.3-.1 1.1-.1 1.1h-1.7v-10.9h1.3l.6 2.1c.2.6.4 1.2.7 1.7.7 1.3 1.5 2.5 2.4 3.6 1.6 1.8 3.5 2.7 5.7 2.7 1.5 0 2.9-.5 4.1-1.4 1.2-1 1.8-2.2 1.8-3.9 0-2.5-2.2-4.8-6.6-6.7-3-1.3-5-2.3-6-2.9-1-.6-1.8-1.5-2.4-2.5-.6-1.1-.9-2.2-.9-3.5 0-2.4.9-4.4 2.7-6 1.8-1.6 4-2.4 6.5-2.4 1.9 0 4 .6 6.2 1.8.4.2.7.3 1 .3.5 0 1-.8 1-1.4h1.5v9.2h-1.8v-.6c0-1-.2-1.9-.7-2.8-.2-.3-.4-.7-.6-1.1-.9-1.7-1.9-2.8-3-3.3s-2.2-.7-3.2-.7c-1.7 0-3 .4-4.1 1.2-1.1.8-1.6 1.8-1.6 3.1 0 .8.2 1.5.7 2.2.4.6.8 1.1 1.2 1.4.4.3 2.6 1.4 6.6 3.2 2.5 1.1 4.1 2 4.9 2.6.8.6 1.4 1.4 2 2.5.6 1.1.8 2.2.8 3.3zM363.9 224.8v1c-.1 2.1-1.1 4.1-3.1 6-2.1 2-4.9 3-8.4 3-3.8 0-7-1.5-9.6-4.4-2.6-2.9-3.9-6.3-3.9-10.1 0-4.2 1.4-7.9 4.1-11.1 2.7-3.1 6-4.7 9.9-4.7 2.5 0 4.9.6 7.2 1.8 2.1 1.1 3.3 2.5 3.4 4.2 0 .4.1.6.1.8v.6c-.1 1-.9 1.7-1.9 1.7h-.9c-1 0-1.8-.7-1.9-1.7-.1-.5-.4-1.3-.5-1.7-.8-2.2-2.9-3.7-5.3-3.7h-.2c-1.9 0-3.7.7-5 2-1.1 1.1-2 2.4-2.4 3.9-.4 1.6-.7 3.5-.7 5.6 0 2.9.4 5.5 1.3 7.7.6 1.5 1.6 2.7 2.8 3.7 1.2.9 2.6 1.4 4.1 1.4h1.1c3.2 0 6.2-1.6 7.9-4.3.4-.6.6-1.2.8-1.9h1.1zM400.5 233.5v1.4h-14.2v-1.4h1.6c1 0 1.8-.5 2.2-1.3.2-.3.3-.6.3-1v-19.6c-.3-1.1-.6-2-1-2.6-1.2-1.8-2.9-2.7-4.9-2.7-2 0-3.7.7-5.2 2.3-1.5 1.5-2.4 3.6-2.7 6.5v16.1c0 .2 0 .3.1.5.3 1 1.3 1.8 2.4 1.8h1.6v1.4h-14.2v-1.4h1.6c.8 0 1.5-.4 2-1 .3-.4.5-.8.5-1.3V192.1v-.4c-.1-1.7-1.5-2.6-4.2-2.5v-1.5h10v20.9c2.8-3.4 5.7-4.1 9.4-4.1 1.5 0 3.2.3 4.4.7 1.2.4 2.2 1.1 3 2 1.6 1.7 2.9 4.8 2.9 9.3v14.8c.1.5.3 1 .6 1.4.5.5 1.1.8 1.9.8h1.9zM184.1 213.1c-9.5 11.1-17.1 23.8-23.1 37.8l-4.6-12c-.3-1.4-.7-2.9-1.3-4.3l-19.3-48.4c-1.1-3.5-2.2-7.4-5.2-9.9-2.7-2.3-6.3-2.5-9.9-3.1l-1.2-.3c0-1.3 1-2.3 2.3-2.3 12.7 1.1 24.6 1.2 35.7 0 .6 0 1.2.2 1.6.6.4.4.6 1 .6 1.6 0 1.2-1 2.2-2.2 2.2H154c-.5 0-1 0-1.4.1-3.1.6-4.9 3.7-2.9 10 5.9 17.2 11.3 34.4 15.4 44.9.3.8 1.5 1 2 .2l15.8-22.9c.5 2.1.9 4.2 1.2 5.8z"/></g></symbol><symbol id="icon-list-view" viewBox="0 0 10 10"><title>list-view</title><style>.st0{fill-rule:evenodd;clip-rule:evenodd}</style><path class="st0" d="M.3 0H2v1.7H.3V0zM3.1 0h6.7v1.7H3.1V0zM.3 2.8H2v1.7H.3V2.8zM3.1 2.8h6.7v1.7H3.1V2.8zM.3 5.6H2v1.7H.3V5.6zM3.1 5.6h6.7v1.7H3.1V5.6zM.3 8.3H2V10H.3V8.3zM3.1 8.3h6.7V10H3.1V8.3z"/></symbol><symbol id="icon-envelop" viewBox="0 0 10 10"><title>envelop</title><path id="envelop_1_" d="M9.9 1.6l-.1-.1H.4c-.1 0-.2 0-.3.1-.1.1-.1.2-.1.3v6.2c0 .2.2.4.4.4h9.2c.2 0 .4-.2.4-.4V1.9c0-.1 0-.2-.1-.3zm-1.4.7L6 4.5l-.3.3c-.4.4-1 .4-1.3 0L4 4.5 1.5 2.3h7zm.7 5.4H.8V2.8l2.4 2-1 1c-.2.2-.2.4-.1.6.1.1.2.1.3.1.1 0 .2 0 .3-.1l1.1-1.1.1.1c.2.3.7.4 1.1.4s.9-.2 1.2-.4l.1-.1 1.1 1.1c.1.1.2.1.3.1.1 0 .2 0 .3-.1 0-.2 0-.4-.1-.6l-1-1 2.4-2v4.9z"/></symbol><symbol id="icon-edit" viewBox="0 0 10 10"><title>edit</title><path id="edit_1_" d="M9.6 8.9H.4c-.2 0-.4.2-.4.4s.2.3.3.3h9.3c.2 0 .3-.2.3-.3.1-.2-.1-.4-.3-.4zm-9.3-1h1.6c.1 0 .2 0 .2-.1l5.7-5.4c.1-.1.1-.3 0-.5L6.3.3c-.1-.1-.4-.1-.5 0L4.7 1.4.1 5.8S0 5.9 0 6v1.6c0 .1 0 .2.1.2.1.1.2.1.2.1zm5.8-6.8l1.1 1.1-.6.6-1.2-1.1.7-.6zm-5.4 5l4.2-4L6 3.2l-4.2 4H.6l.1-1.1z"/></symbol><symbol id="icon-drag" viewBox="0 0 10 10"><title>drag</title><style>.st0{fill-rule:evenodd;clip-rule:evenodd}</style><g id="drag_1_"><path class="st0" d="M3.6 0h.8v.8h-.8zM4.7 0h.8v.8h-.8zM5.9 0h.8v.8h-.8zM3.6 1.2h.8V2h-.8zM4.7 1.2h.8V2h-.8zM5.9 1.2h.8V2h-.8zM3.6 2.3h.8v.8h-.8zM4.7 2.3h.8v.8h-.8zM5.9 2.3h.8v.8h-.8zM3.6 3.5h.8v.8h-.8zM4.7 3.5h.8v.8h-.8zM5.9 3.5h.8v.8h-.8zM3.6 4.6h.8v.8h-.8zM4.7 4.6h.8v.8h-.8zM5.9 4.6h.8v.8h-.8zM3.6 5.8h.8v.8h-.8zM4.7 5.8h.8v.8h-.8zM5.9 5.8h.8v.8h-.8zM3.6 6.9h.8v.8h-.8zM4.7 6.9h.8v.8h-.8zM5.9 6.9h.8v.8h-.8zM3.6 8.1h.8v.8h-.8zM4.7 8.1h.8v.8h-.8zM5.9 8.1h.8v.8h-.8zM3.6 9.2h.8v.8h-.8zM4.7 9.2h.8v.8h-.8zM5.9 9.2h.8v.8h-.8z"/></g></symbol><symbol id="icon-drag-long" viewBox="0 0 1.5 10"><title>drag-long</title><path d="M0 0h.4v.4H0V0zM.6 0H1v.4H.6V0zM1.1 0h.4v.4h-.4V0zM0 .6h.4V1H0V.6zM.6.6H1V1H.6V.6zM1.1.6h.4V1h-.4V.6zM0 1.1h.4v.4H0v-.4zM.6 1.1H1v.4H.6v-.4zM1.1 1.1h.4v.4h-.4v-.4zM0 1.7h.4v.4H0v-.4zM.6 1.7H1v.4H.6v-.4zM1.1 1.7h.4v.4h-.4v-.4zM0 2.3h.4v.4H0v-.4zM.6 2.3H1v.4H.6v-.4zM1.1 2.3h.4v.4h-.4v-.4zM0 2.8h.4v.4H0v-.4zM.6 2.8H1v.4H.6v-.4zM1.1 2.8h.4v.4h-.4v-.4zM0 3.4h.4v.4H0v-.4zM.6 3.4H1v.4H.6v-.4zM1.1 3.4h.4v.4h-.4v-.4zM0 4h.4v.4H0V4zM.6 4H1v.4H.6V4zM1.1 4h.4v.4h-.4V4zM0 4.5h.4v.4H0v-.4zM.6 4.5H1v.4H.6v-.4zM1.1 4.5h.4v.4h-.4v-.4zM0 5.1h.4v.4H0v-.4zM.6 5.1H1v.4H.6v-.4zM1.1 5.1h.4v.4h-.4v-.4zM0 6.2h.4v.4H0v-.4zM.6 6.2H1v.4H.6v-.4zM1.1 6.2h.4v.4h-.4v-.4zM0 5.7h.4V6H0v-.3zM.6 5.7H1V6H.6v-.3zM1.1 5.7h.4V6h-.4v-.3zM0 6.8h.4v.4H0v-.4zM.6 6.8H1v.4H.6v-.4zM1.1 6.8h.4v.4h-.4v-.4zM0 7.4h.4v.4H0v-.4zM.6 7.4H1v.4H.6v-.4zM1.1 7.4h.4v.4h-.4v-.4zM0 7.9h.4v.4H0v-.4zM.6 7.9H1v.4H.6v-.4zM1.1 7.9h.4v.4h-.4v-.4zM0 8.5h.4v.4H0v-.4zM.6 8.5H1v.4H.6v-.4zM1.1 8.5h.4v.4h-.4v-.4zM0 9.1h.4v.4H0v-.4zM.6 9.1H1v.4H.6v-.4zM1.1 9.1h.4v.4h-.4v-.4zM0 9.6h.4v.4H0v-.4zM.6 9.6H1v.4H.6v-.4zM1.1 9.6h.4v.4h-.4v-.4z"/></symbol><symbol id="icon-cross" viewBox="0 0 10 10"><title>cross</title><path id="cross_1_" d="M9.8 8.7c.3.3.3.8 0 1.1-.2.1-.3.2-.6.2-.2 0-.4-.1-.5-.2L5 6.1 1.3 9.8c-.1.1-.3.2-.5.2s-.4-.1-.6-.2c-.3-.3-.3-.8 0-1.1L3.9 5 .2 1.3C-.1 1.1-.1.6.2.2S1-.1 1.3.2L5 3.9 8.7.2c.2-.3.7-.3 1 0 .3.3.3.8 0 1.1L6.1 5l3.7 3.7z"/></symbol><symbol id="icon-bars" viewBox="0 0 10 10"><title>bars</title><path id="line_2_" d="M0 .4h10v1.5H0z"/><path id="line_1_" d="M0 4.2h10v1.5H0z"/><path id="line" d="M0 8.1h10v1.5H0z"/></symbol><symbol id="icon-attachment" viewBox="0 0 10 10"><title>attachment</title><path id="attachment" d="M2.5 9.6c-.7 0-1.3-.3-1.8-.8-1-1.1-.9-2.6.3-3.9l3.8-3.8c.2-.1.4-.1.5 0 .1.1.1.3 0 .4L1.5 5.4c-.8.8-1.3 2-.3 3 .4.4.9.6 1.5.6.5 0 1.1-.3 1.6-.8l4.6-4.6c.3-.3.5-.7.6-1 0-.3-.1-.7-.3-.9l-.4-.3c-.3-.3-.6-.4-.9-.4-.3 0-.7.2-1 .6L3.1 5.4c-.2.2-.3.4-.3.6s.1.4.2.6c.3.3.8.3 1.1 0l3.1-3.1c.1-.1.3-.1.4 0s.1.3 0 .4L4.6 7c-.5.5-1.5.5-2 0-.2-.3-.4-.6-.4-1s.1-.7.4-1l3.8-3.8c.9-.9 2-1 2.8-.2l.2.2c.4.4.6.9.5 1.4 0 .5-.2 1-.7 1.4L4.7 8.6c-.6.6-1.3.9-1.9 1h-.3z"/></symbol><symbol id="icon-arrow-down" viewBox="0 0 10 10"><title>arrow-down</title><path id="arrow-down" d="M9.8 3.3L5.5 7.7c-.3.2-.7.2-.9 0L.2 3.3C0 3 0 2.6.2 2.4c.3-.3.7-.3.9 0L5 6.3l3.8-3.9c.3-.3.7-.3.9 0 .4.3.4.6.1.9z"/></symbol><use xlink:href="#icon-arrow-down" width="10" height="10"/><use xlink:href="#icon-attachment" y="12" width="10" height="10"/><use xlink:href="#icon-bars" y="24" width="10" height="10"/><use xlink:href="#icon-cross" y="36" width="10" height="10"/><use xlink:href="#icon-drag-long" y="48" width="1.5" height="10"/><use xlink:href="#icon-drag" y="60" width="10" height="10"/><use xlink:href="#icon-edit" y="72" width="10" height="10"/><use xlink:href="#icon-envelop" y="84" width="10" height="10"/><use xlink:href="#icon-list-view" y="96" width="10" height="10"/><use xlink:href="#icon-logo-black" y="108" width="400" height="400"/><use xlink:href="#icon-logo" y="510" width="400" height="400"/><use xlink:href="#icon-logout" y="912" width="10" height="10"/><use xlink:href="#icon-no-photo" y="924" width="10" height="10"/><use xlink:href="#icon-pillar" y="936" width="10" height="10"/><use xlink:href="#icon-plan-person" y="948" width="10" height="10"/><use xlink:href="#icon-plan-table" y="960" width="10" height="10"/><use xlink:href="#icon-plant" y="972" width="10" height="10"/><use xlink:href="#icon-print" y="984" width="10" height="10"/><use xlink:href="#icon-settings" y="996" width="10" height="10"/><use xlink:href="#icon-table" y="1008" width="10" height="10"/><use xlink:href="#icon-tables-view" y="1020" width="10" height="10"/><use xlink:href="#icon-thin-cross" y="1032" width="10" height="10"/><use xlink:href="#icon-tiles-view" y="1044" width="10" height="10"/><use xlink:href="#icon-user" y="1056" width="10" height="10"/><use xlink:href="#icon-wall" y="1068" width="10" height="10"/></svg>