<?xml version="1.0" encoding="utf-8"?>
<!-- Generator: Adobe Illustrator 21.1.0, SVG Export Plug-In . SVG Version: 6.00 Build 0)  -->
<svg version="1.1" id="attachment_1_" xmlns="http://www.w3.org/2000/svg" xmlns:xlink="http://www.w3.org/1999/xlink" x="0px"
	 y="0px" viewBox="0 0 10 10" style="enable-background:new 0 0 10 10;" xml:space="preserve">
<path id="attachment" d="M2.5,9.6c-0.7,0-1.3-0.3-1.8-0.8c-1-1.1-0.9-2.6,0.3-3.9l3.8-3.8C5,1,5.2,1,5.3,1.1c0.1,0.1,0.1,0.3,0,0.4
	L1.5,5.4c-0.8,0.8-1.3,2-0.3,3C1.6,8.8,2.1,9,2.7,9c0.5,0,1.1-0.3,1.6-0.8l4.6-4.6c0.3-0.3,0.5-0.7,0.6-1c0-0.3-0.1-0.7-0.3-0.9
	L8.8,1.4C8.5,1.1,8.2,1,7.9,1c-0.3,0-0.7,0.2-1,0.6L3.1,5.4C2.9,5.6,2.8,5.8,2.8,6S2.9,6.4,3,6.6c0.3,0.3,0.8,0.3,1.1,0l3.1-3.1
	c0.1-0.1,0.3-0.1,0.4,0s0.1,0.3,0,0.4L4.6,7c-0.5,0.5-1.5,0.5-2,0C2.4,6.7,2.2,6.4,2.2,6s0.1-0.7,0.4-1l3.8-3.8c0.9-0.9,2-1,2.8-0.2
	l0.2,0.2C9.8,1.6,10,2.1,9.9,2.6c0,0.5-0.2,1-0.7,1.4L4.7,8.6c-0.6,0.6-1.3,0.9-1.9,1C2.6,9.6,2.6,9.6,2.5,9.6z"/>
</svg>
