<?xml version="1.0" encoding="utf-8"?>
<!-- Generator: Adobe Illustrator 21.1.0, SVG Export Plug-In . SVG Version: 6.00 Build 0)  -->
<svg version="1.1" id="cross" xmlns="http://www.w3.org/2000/svg" xmlns:xlink="http://www.w3.org/1999/xlink" x="0px" y="0px"
	 viewBox="0 0 10 10" style="enable-background:new 0 0 10 10;" xml:space="preserve">
<path id="cross_1_" d="M9.8,8.7c0.3,0.3,0.3,0.8,0,1.1C9.6,9.9,9.5,10,9.2,10C9,10,8.8,9.9,8.7,9.8L5,6.1L1.3,9.8
	C1.2,9.9,1,10,0.8,10c-0.2,0-0.4-0.1-0.6-0.2c-0.3-0.3-0.3-0.8,0-1.1L3.9,5L0.2,1.3c-0.3-0.2-0.3-0.7,0-1.1s0.8-0.3,1.1,0L5,3.9
	l3.7-3.7c0.2-0.3,0.7-0.3,1,0c0.3,0.3,0.3,0.8,0,1.1L6.1,5L9.8,8.7z"/>
</svg>
