<?xml version="1.0" encoding="utf-8"?>
<!-- Generator: Adobe Illustrator 21.1.0, SVG Export Plug-In . SVG Version: 6.00 Build 0)  -->
<svg version="1.1" id="drag-long" xmlns="http://www.w3.org/2000/svg" xmlns:xlink="http://www.w3.org/1999/xlink" x="0px" y="0px"
	 viewBox="0 0 1.5 10" style="enable-background:new 0 0 1.5 10;" xml:space="preserve">
<path d="M0,0h0.4v0.4H0V0z"/>
<path d="M0.6,0h0.4v0.4H0.6V0z"/>
<path d="M1.1,0h0.4v0.4H1.1V0z"/>
<path d="M0,0.6h0.4v0.4H0V0.6z"/>
<path d="M0.6,0.6h0.4v0.4H0.6V0.6z"/>
<path d="M1.1,0.6h0.4v0.4H1.1V0.6z"/>
<path d="M0,1.1h0.4v0.4H0V1.1z"/>
<path d="M0.6,1.1h0.4v0.4H0.6V1.1z"/>
<path d="M1.1,1.1h0.4v0.4H1.1V1.1z"/>
<path d="M0,1.7h0.4v0.4H0V1.7z"/>
<path d="M0.6,1.7h0.4v0.4H0.6V1.7z"/>
<path d="M1.1,1.7h0.4v0.4H1.1V1.7z"/>
<path d="M0,2.3h0.4v0.4H0V2.3z"/>
<path d="M0.6,2.3h0.4v0.4H0.6V2.3z"/>
<path d="M1.1,2.3h0.4v0.4H1.1V2.3z"/>
<path d="M0,2.8h0.4v0.4H0V2.8z"/>
<path d="M0.6,2.8h0.4v0.4H0.6V2.8z"/>
<path d="M1.1,2.8h0.4v0.4H1.1V2.8z"/>
<path d="M0,3.4h0.4v0.4H0V3.4z"/>
<path d="M0.6,3.4h0.4v0.4H0.6V3.4z"/>
<path d="M1.1,3.4h0.4v0.4H1.1V3.4z"/>
<path d="M0,4h0.4v0.4H0V4z"/>
<path d="M0.6,4h0.4v0.4H0.6V4z"/>
<path d="M1.1,4h0.4v0.4H1.1V4z"/>
<path d="M0,4.5h0.4v0.4H0V4.5z"/>
<path d="M0.6,4.5h0.4v0.4H0.6V4.5z"/>
<path d="M1.1,4.5h0.4v0.4H1.1V4.5z"/>
<path d="M0,5.1h0.4v0.4H0V5.1z"/>
<path d="M0.6,5.1h0.4v0.4H0.6V5.1z"/>
<path d="M1.1,5.1h0.4v0.4H1.1V5.1z"/>
<path d="M0,6.2h0.4v0.4H0V6.2z"/>
<path d="M0.6,6.2h0.4v0.4H0.6V6.2z"/>
<path d="M1.1,6.2h0.4v0.4H1.1V6.2z"/>
<path d="M0,5.7h0.4V6H0V5.7z"/>
<path d="M0.6,5.7h0.4V6H0.6V5.7z"/>
<path d="M1.1,5.7h0.4V6H1.1V5.7z"/>
<path d="M0,6.8h0.4v0.4H0V6.8z"/>
<path d="M0.6,6.8h0.4v0.4H0.6V6.8z"/>
<path d="M1.1,6.8h0.4v0.4H1.1V6.8z"/>
<path d="M0,7.4h0.4v0.4H0V7.4z"/>
<path d="M0.6,7.4h0.4v0.4H0.6V7.4z"/>
<path d="M1.1,7.4h0.4v0.4H1.1V7.4z"/>
<path d="M0,7.9h0.4v0.4H0V7.9z"/>
<path d="M0.6,7.9h0.4v0.4H0.6V7.9z"/>
<path d="M1.1,7.9h0.4v0.4H1.1V7.9z"/>
<path d="M0,8.5h0.4v0.4H0V8.5z"/>
<path d="M0.6,8.5h0.4v0.4H0.6V8.5z"/>
<path d="M1.1,8.5h0.4v0.4H1.1V8.5z"/>
<path d="M0,9.1h0.4v0.4H0V9.1z"/>
<path d="M0.6,9.1h0.4v0.4H0.6V9.1z"/>
<path d="M1.1,9.1h0.4v0.4H1.1V9.1z"/>
<path d="M0,9.6h0.4V10H0V9.6z"/>
<path d="M0.6,9.6h0.4V10H0.6V9.6z"/>
<path d="M1.1,9.6h0.4V10H1.1V9.6z"/>
</svg>
