<?xml version="1.0" encoding="utf-8"?>
<!-- Generator: Adobe Illustrator 21.1.0, SVG Export Plug-In . SVG Version: 6.00 Build 0)  -->
<svg version="1.1" id="drag" xmlns="http://www.w3.org/2000/svg" xmlns:xlink="http://www.w3.org/1999/xlink" x="0px" y="0px"
	 viewBox="0 0 10 10" style="enable-background:new 0 0 10 10;" xml:space="preserve">
<g id="drag_1_">
	<rect x="3.6" width="0.8" height="0.8"/>
	<rect x="4.7" width="0.8" height="0.8"/>
	<rect x="5.9" width="0.8" height="0.8"/>
	<rect x="3.6" y="1.2" width="0.8" height="0.8"/>
	<rect x="4.7" y="1.2" width="0.8" height="0.8"/>
	<rect x="5.9" y="1.2" width="0.8" height="0.8"/>
	<rect x="3.6" y="2.3" width="0.8" height="0.8"/>
	<rect x="4.7" y="2.3" width="0.8" height="0.8"/>
	<rect x="5.9" y="2.3" width="0.8" height="0.8"/>
	<rect x="3.6" y="3.5" width="0.8" height="0.8"/>
	<rect x="4.7" y="3.5" width="0.8" height="0.8"/>
	<rect x="5.9" y="3.5" width="0.8" height="0.8"/>
	<rect x="3.6" y="4.6" width="0.8" height="0.8"/>
	<rect x="4.7" y="4.6" width="0.8" height="0.8"/>
	<rect x="5.9" y="4.6" width="0.8" height="0.8"/>
	<rect x="3.6" y="5.8" width="0.8" height="0.8"/>
	<rect x="4.7" y="5.8" width="0.8" height="0.8"/>
	<rect x="5.9" y="5.8" width="0.8" height="0.8"/>
	<rect x="3.6" y="6.9" width="0.8" height="0.8"/>
	<rect x="4.7" y="6.9" width="0.8" height="0.8"/>
	<rect x="5.9" y="6.9" width="0.8" height="0.8"/>
	<rect x="3.6" y="8.1" width="0.8" height="0.8"/>
	<rect x="4.7" y="8.1" width="0.8" height="0.8"/>
	<rect x="5.9" y="8.1" width="0.8" height="0.8"/>
	<rect x="3.6" y="9.2" width="0.8" height="0.8"/>
	<rect x="4.7" y="9.2" width="0.8" height="0.8"/>
	<rect x="5.9" y="9.2" width="0.8" height="0.8"/>
</g>
</svg>
