<?xml version="1.0" encoding="utf-8"?>
<!-- Generator: Adobe Illustrator 21.1.0, SVG Export Plug-In . SVG Version: 6.00 Build 0)  -->
<svg version="1.1" id="edit" xmlns="http://www.w3.org/2000/svg" xmlns:xlink="http://www.w3.org/1999/xlink" x="0px" y="0px"
	 viewBox="0 0 10 10" style="enable-background:new 0 0 10 10;" xml:space="preserve">
<path id="edit_1_" d="M9.6,8.9H0.4C0.2,8.9,0,9.1,0,9.3s0.2,0.3,0.3,0.3h9.3c0.2,0,0.3-0.2,0.3-0.3C10,9.1,9.8,8.9,9.6,8.9z
	 M0.3,7.9h1.6c0.1,0,0.2,0,0.2-0.1l5.7-5.4c0.1-0.1,0.1-0.3,0-0.5L6.3,0.3c-0.1-0.1-0.4-0.1-0.5,0L4.7,1.4L0.1,5.8
	C0.1,5.8,0,5.9,0,6v1.6c0,0.1,0,0.2,0.1,0.2C0.2,7.9,0.3,7.9,0.3,7.9z M6.1,1.1l1.1,1.1L6.6,2.8L5.4,1.7L6.1,1.1z M0.7,6.1l4.2-4
	L6,3.2l-4.2,4H0.6L0.7,6.1z"/>
</svg>
