<?xml version="1.0" encoding="utf-8"?>
<!-- Generator: Adobe Illustrator 21.1.0, SVG Export Plug-In . SVG Version: 6.00 Build 0)  -->
<svg version="1.1" id="envelop" xmlns="http://www.w3.org/2000/svg" xmlns:xlink="http://www.w3.org/1999/xlink" x="0px" y="0px"
	 viewBox="0 0 10 10" style="enable-background:new 0 0 10 10;" xml:space="preserve">
<path id="envelop_1_" d="M9.9,1.6c0,0-0.1-0.1-0.1-0.1c-0.1,0-0.1,0-0.2,0H0.4c-0.1,0-0.2,0-0.3,0.1v0C0,1.7,0,1.8,0,1.9v6.2
	c0,0.2,0.2,0.4,0.4,0.4h9.2c0.2,0,0.4-0.2,0.4-0.4V1.9C10,1.8,10,1.7,9.9,1.6z M8.5,2.3L6,4.5L5.7,4.8c-0.4,0.4-1,0.4-1.3,0L4,4.5
	L1.5,2.3H8.5z M9.2,7.7H0.8V2.8l2.4,2l-1,1C2,6,2,6.2,2.1,6.4c0.1,0.1,0.2,0.1,0.3,0.1c0.1,0,0.2,0,0.3-0.1l1.1-1.1l0.1,0.1
	C4.1,5.7,4.6,5.8,5,5.8s0.9-0.2,1.2-0.4l0.1-0.1l1.1,1.1c0.1,0.1,0.2,0.1,0.3,0.1c0.1,0,0.2,0,0.3-0.1C8,6.2,8,6,7.9,5.8l-1-1l2.4-2
	V7.7z"/>
</svg>
