<?xml version="1.0" encoding="utf-8"?>
<!-- Generator: Adobe Illustrator 21.1.0, SVG Export Plug-In . SVG Version: 6.00 Build 0)  -->
<svg version="1.1" id="logout" xmlns="http://www.w3.org/2000/svg" xmlns:xlink="http://www.w3.org/1999/xlink" x="0px" y="0px"
	 viewBox="0 0 10 10" style="enable-background:new 0 0 10 10;" xml:space="preserve">
<path id="arrow-right" d="M10,5c0,0.1,0,0.1-0.1,0.2L7.8,7.3c-0.1,0-0.1,0.1-0.2,0.1c-0.1,0-0.1,0-0.2-0.1C7.4,7.2,7.4,7,7.5,7
	l1.7-1.7H2.7C2.6,5.3,2.5,5.1,2.5,5s0.1-0.3,0.3-0.3h6.4L7.5,3.1C7.4,3,7.4,2.8,7.5,2.7c0.1-0.1,0.3-0.1,0.4,0l2.1,2.1
	C10,4.9,10,4.9,10,5z"/>
<path id="line" d="M4.7,9.9H2.3C1,9.9,0,8.9,0,7.7V2.3c0-1.2,1-2.3,2.3-2.3h2.5C4.9,0.1,5,0.2,5,0.3S4.9,0.6,4.7,0.6H2.3
	c-1,0-1.8,0.8-1.8,1.8v5.4c0,1,0.8,1.8,1.8,1.8h2.5C4.9,9.4,5,9.6,5,9.7S4.9,9.9,4.7,9.9z"/>
</svg>
