<?xml version="1.0" encoding="utf-8"?>
<!-- Generator: Adobe Illustrator 21.1.0, SVG Export Plug-In . SVG Version: 6.00 Build 0)  -->
<svg version="1.1" id="logo-black" xmlns="http://www.w3.org/2000/svg" xmlns:xlink="http://www.w3.org/1999/xlink" x="0px" y="0px"
	 viewBox="0 0 400 400" style="enable-background:new 0 0 400 400;" xml:space="preserve">
<g id="group">
	<path d="M70.2,168.3v20.6l-16-5.9c-1.3,1.5-3.1,2.5-5.3,2.5c-2.1,0-4-1-5.3-2.5l-15.9,5.9v-20.6l15.9,5.9c1.3-1.5,3.2-2.5,5.3-2.5
		c2.1,0,4,1,5.3,2.5L70.2,168.3z"/>
	<circle cx="49" cy="199.2" r="4.9"/>
	<circle cx="49" cy="215.9" r="4.9"/>
	<circle cx="49" cy="232.6" r="4.9"/>
	<circle cx="49" cy="249.3" r="4.9"/>
	<path d="M218.3,232l-8.3,10c-13.5-4.3-21.4-11.7-25.8-20.9v-7.9c-9.5,11.1-17.1,23.8-23.1,37.8c-3.3,7.6-6.1,15.7-8.6,24
		c-0.2,0.7-0.8,1.1-1.5,1.1c-0.9,0-1.6-0.7-1.6-1.6c0-0.1,0-0.3,0.1-0.4l3-10.4l-7.3,4.5c-0.7,0.4-1.6,0.3-2.1-0.3l-0.1-0.1
		c-0.6-0.8-0.4-2,0.5-2.4c5.7-2.8,10-6.9,12.3-13.2c1.5-4.2,1.7-8.7,0.7-13.1c-0.3-1.4-0.7-2.9-1.3-4.3l-19.3-48.4
		c-1.1-3.5-2.2-7.4-5.2-9.9c-2.7-2.3-6.3-2.5-9.9-3.1l-1.2-0.3l-13.3-2.8c-3.5-0.6-7.1-1-10.6-1h-6.2c-0.7,22.4-4.8,43.8-12,64.2
		c-0.2,0.4-0.6,0.7-1,0.7c-0.6,0-1.1-0.5-1.1-1.1c0-0.1,0-0.2,0-0.3c2.4-7.5,3.6-17.6,5.1-28.1c1.6-10.9,0.3-17,1.9-25.6l1.2-6.4
		c0,0,0,0,0-0.1l0.1-0.8c0.9-5.7-1.4-9.6-9.2-9.6v0c0,1.5,0.8,2.8,2.1,3.6c5.2,3.2,4,9.7-1.6,18.4c-1.8,2.7-2.7,5.9-2.7,9.2l0,0
		c2.6-3.5,5-7.1,7-10.5l-0.1,2.5c0,6.1-0.3,12.3-1.6,18.2C71.4,233.4,63.2,259,49,272c-4.6-2-9.8-9.1-15-16.3V298
		c3.1,2.5,7.2,4.4,12.2,5.7c4.8,1.3,9.8,1.9,14.8,1.9h20.9c1.1,0,2.2-0.1,3.4-0.1c9.8-0.4,19.4,2.9,29,6.2v-43.4h2
		c6.6,19.2,16.3,34.9,29.6,46.8c3.2,2.9,7.3,4.4,11.6,4.4c2.4,0,4.7-0.5,6.8-1.5c32.5-15.9,43.4-59.2,56-70.8V241
		C220.2,237.1,220.1,233.6,218.3,232z M84.4,261.6c-0.5,0.7-1.6,0.6-1.9-0.2l-0.2-0.5c-0.1-0.3-0.1-0.6,0-0.9
		c7.6-15.2,14.9-30,15.5-38C109.5,221.9,105.3,229.5,84.4,261.6z M81.2,243.7c-0.4,0.7-1.4,0.8-1.9,0l-0.2-0.4c-0.2-0.3-0.2-0.7,0-1
		c10.5-22.4,18.2-42.5,19.2-56.9C113.7,185.3,101.2,206.9,81.2,243.7z"/>
	<path d="M190.9,220.3L190.9,220.3c0,1.3,0.7,2.5,1.8,3.1l10,5.3h7.8c1,0,1.8-0.8,1.8-1.8l0,0C205.3,227,198.1,224.4,190.9,220.3z"
		/>
	<path d="M189.4,200.6L189.4,200.6c-1.5,3.6-1.6,7.6-0.4,11.3l0.4,1.2l5.1,2.3C191.8,212.2,190.3,206.8,189.4,200.6z"/>
	<path d="M196.4,195.8L196.4,195.8c-1.5,1.7-2.3,3.8-2.3,6l0,0.7l2.3,2.2C195.6,202.5,195.8,199.3,196.4,195.8z"/>
	<path d="M217.7,148.9v3h78c-3.3,1.1-6.6,1.9-9.9,2.4c-3.4,0.5-6.8,0.8-10.2,0.8h-16.2l-3.9,3.4c-2,1.7-4.5,2.6-7.2,2.6h-8
		l-11.6,15.2l-5.6,2l2-5.9l15.2-14.6h-2.3c-3.4,3.2-7.9,4.7-12.9,5.4l3.4-3.4c1.3-1.3,2-3,2-4.7h-36.3c2.5,1.6,4.3,3.8,5.7,6.4
		c0.2,0.5,0.9,0.4,1.1-0.1l0.8-3.7v8.6c0.6,2.1,0.9,4.4,1.1,6.8v1.9c0,6-2.2,11.7-6.3,16.2v-19.2c0-8.4-6.8-15.2-15.2-15.2h-2.5
		c-2.4,0-4.7-0.5-6.8-1.5l-0.7-0.3h-2c-6.8,0-13.6-1.1-20.1-3.2h43.4v-3h-53.3l0,0c0-1.3,1-2.3,2.3-2.3h12
		c43.9-3.6,89.7-3.6,137.1,0h11.8c1.3,0,2.3,1,2.3,2.3l0,0H217.7z"/>
	<path d="M27.8,118.4c0.8-10.3-0.7-18.4-4.3-24.4c14.1-13.4,54.7-6.5,71.7,3.7c0.6,0.4,0.9,1,0.9,1.7l0,0c0,0.7-0.4,1.3-1,1.7
		c-6.7,4.2-12.2,12.2-17.4,21.3c-0.7,1.2-1.1,2.6-1.1,4l0,0c0,2.2,0.8,4.4,2.5,5.8c3.5,3.2,8.1,4.1,14.3,2c0.9-0.3,1.8-0.1,2.5,0.5
		c3.3,2.8,1.8,4.8-2.3,6.4c-2.9,1.1-5.9,1.6-9,1.6h-0.6c-2.3,0-4.6-0.3-6.7-0.9c-15.7-4.2-29.1-12.4-40.5-14.4
		c-1.3-0.2-2.6-0.3-3.8-0.3l-10.7,0c-2.9,0-5.8,0.5-8.4,1.7c-12.7,5.7-4,18.2,15.4,4.3l1.5-1.1l0,0c-0.8,1.2-1.8,2.3-2.9,3.3
		c-2.9,2.7-5.7,4.9-10.2,6.2c-1.1,0.3-2.1,0.4-3.2,0.4l-2.6,0c-4,0-8-1.9-10.1-5.3c-3.4-5.3-0.2-10.5,8.7-15.7
		c2.9-1.7,6.2-2.6,9.5-2.5L27.8,118.4z"/>
	<path d="M237,194.8v35.1c0,0.8,0.3,1.5,0.8,2c0,0,0,0,0,0c0.6,0.5,1.5,0.8,2.9,1.1h1.5v1.4h-17.8V233h0.9c2.1,0,3.4-0.8,3.8-2.1
		c0-0.1,0-0.2,0.1-0.3v-35.1c-0.2-1.7-0.5-2.8-0.8-3.4c-0.6-1-1.8-1.6-3.5-1.9h-1v-1.4h18.4v1.4h-1.4l0,0
		C238.7,190.5,237,192.5,237,194.8z"/>
	<path d="M292.7,188.8v11.8h-1.2c-1.3-4.7-5.4-9.2-12.2-9.4c-0.9,0-2,0-2.9,0.2c-0.7,0.2-1.6,0.5-2.2,1.1c-0.5,0.5-1.2,1.3-1.4,3
		v33.5c0.1,2.9,3.2,3.9,7.4,4.1v1.3h-22.5V233c4.2-0.3,7.3-1.3,7.4-4.1v-33.5c-0.2-1.7-1-2.5-1.4-3c-0.7-0.7-1.5-1-2.2-1.1
		c-0.9-0.2-1.9-0.2-2.9-0.2c-6.8,0.2-11,4.7-12.2,9.4H245v-11.8H292.7z"/>
	<path d="M306.8,232.9v1.4h-14.2v-1.4h1.6c1.3,0,2.4-1,2.5-2.3c0-0.1,0-0.2,0-0.3v-21.6c0-0.1,0-0.3,0-0.4c-0.1-1.7-1.5-2.6-4.2-2.5
		v-1.5h10v26.3c0.1,1.3,1.2,2.3,2.5,2.3H306.8z"/>
	<circle cx="298.7" cy="191.2" r="3.4"/>
	<path d="M333.2,225.1c0,2.7-1,5-3,6.9c-2,1.9-4.3,2.9-7,2.9c-1.6,0-3.5-0.5-5.8-1.6c-1.2-0.5-1.9-0.8-2.2-0.8c-0.4,0-0.7,0.2-1,0.7
		c-0.2,0.3-0.1,1.1-0.1,1.1h-1.7v-10.9h1.3l0.6,2.1c0.2,0.6,0.4,1.2,0.7,1.7c0.7,1.3,1.5,2.5,2.4,3.6c1.6,1.8,3.5,2.7,5.7,2.7
		c1.5,0,2.9-0.5,4.1-1.4c1.2-1,1.8-2.2,1.8-3.9c0-2.5-2.2-4.8-6.6-6.7c-3-1.3-5-2.3-6-2.9c-1-0.6-1.8-1.5-2.4-2.5
		c-0.6-1.1-0.9-2.2-0.9-3.5c0-2.4,0.9-4.4,2.7-6c1.8-1.6,4-2.4,6.5-2.4c1.9,0,4,0.6,6.2,1.8c0.4,0.2,0.7,0.3,1,0.3
		c0.5,0,1-0.8,1-1.4h1.5v9.2h-1.8v-0.6c0-1-0.2-1.9-0.7-2.8c-0.2-0.3-0.4-0.7-0.6-1.1c-0.9-1.7-1.9-2.8-3-3.3
		c-1.1-0.5-2.2-0.7-3.2-0.7c-1.7,0-3,0.4-4.1,1.2c-1.1,0.8-1.6,1.8-1.6,3.1c0,0.8,0.2,1.5,0.7,2.2c0.4,0.6,0.8,1.1,1.2,1.4
		c0.4,0.3,2.6,1.4,6.6,3.2c2.5,1.1,4.1,2,4.9,2.6c0.8,0.6,1.4,1.4,2,2.5C333,222.9,333.2,224,333.2,225.1z"/>
	<path d="M363.9,224.8v0.7c0,0.1,0,0.2,0,0.3c-0.1,2.1-1.1,4.1-3.1,6c-2.1,2-4.9,3-8.4,3c-3.8,0-7-1.5-9.6-4.4
		c-2.6-2.9-3.9-6.3-3.9-10.1c0-4.2,1.4-7.9,4.1-11.1c2.7-3.1,6-4.7,9.9-4.7c2.5,0,4.9,0.6,7.2,1.8c2.1,1.1,3.3,2.5,3.4,4.2
		c0,0.4,0.1,0.6,0.1,0.8c0,0.1,0,0.3,0,0.6c-0.1,1-0.9,1.7-1.9,1.7c0,0,0,0,0,0h-0.9c-1,0-1.8-0.7-1.9-1.7c-0.1-0.5-0.4-1.3-0.5-1.7
		c-0.8-2.2-2.9-3.7-5.3-3.7h-0.2c-1.9,0-3.7,0.7-5,2l0,0c-1.1,1.1-2,2.4-2.4,3.9c-0.4,1.6-0.7,3.5-0.7,5.6c0,2.9,0.4,5.5,1.3,7.7
		c0.6,1.5,1.6,2.7,2.8,3.7c1.2,0.9,2.6,1.4,4.1,1.4l1.1,0c3.2,0,6.2-1.6,7.9-4.3l0,0c0.4-0.6,0.6-1.2,0.8-1.9l0,0H363.9z"/>
	<path d="M400.5,233.5v1.4h-14.2v-1.4h1.6c1,0,1.8-0.5,2.2-1.3c0.2-0.3,0.3-0.6,0.3-1c0-0.1,0-0.2,0-0.3v-19.3c-0.3-1.1-0.6-2-1-2.6
		c-1.2-1.8-2.9-2.7-4.9-2.7c-2,0-3.7,0.7-5.2,2.3c-1.5,1.5-2.4,3.6-2.7,6.5v16.1c0,0.2,0,0.3,0.1,0.5c0.3,1,1.3,1.8,2.4,1.8h1.6v1.4
		h-14.2v-1.4h1.6c0.8,0,1.5-0.4,2-1c0,0,0,0,0,0c0.3-0.4,0.5-0.8,0.5-1.3c0-0.1,0-0.2,0-0.3v-38.8c0-0.1,0-0.3,0-0.4
		c-0.1-1.7-1.5-2.6-4.2-2.5v-1.5h10v20.9c2.8-3.4,5.7-4.1,9.4-4.1c1.5,0,3.2,0.3,4.4,0.7c1.2,0.4,2.2,1.1,3,2
		c1.6,1.7,2.9,4.8,2.9,9.3v14.8c0.1,0.5,0.3,1,0.6,1.4l0,0c0.5,0.5,1.1,0.8,1.9,0.8H400.5z"/>
	<path d="M184.1,213.1c-9.5,11.1-17.1,23.8-23.1,37.8l-4.6-12c-0.3-1.4-0.7-2.9-1.3-4.3l-19.3-48.4c-1.1-3.5-2.2-7.4-5.2-9.9
		c-2.7-2.3-6.3-2.5-9.9-3.1l-1.2-0.3c0-1.3,1-2.3,2.3-2.3c12.7,1.1,24.6,1.2,35.7,0c0.6,0,1.2,0.2,1.6,0.6c0.4,0.4,0.6,1,0.6,1.6
		c0,1.2-1,2.2-2.2,2.2h-3.5c-0.5,0-1,0-1.4,0.1c-3.1,0.6-4.9,3.7-2.9,10c5.9,17.2,11.3,34.4,15.4,44.9c0.3,0.8,1.5,1,2,0.2
		l15.8-22.9C183.4,209.4,183.8,211.5,184.1,213.1z"/>
</g>
</svg>
