<?xml version="1.0" encoding="utf-8"?>
<!-- Generator: Adobe Illustrator 21.1.0, SVG Export Plug-In . SVG Version: 6.00 Build 0)  -->
<svg version="1.1" id="photo" xmlns="http://www.w3.org/2000/svg" xmlns:xlink="http://www.w3.org/1999/xlink" x="0px" y="0px"
	 viewBox="0 0 10 10" style="enable-background:new 0 0 10 10;" xml:space="preserve">
<path d="M9.4,1.9H0.6C0.2,1.9,0,2.2,0,2.5v6c0,0.3,0.3,0.6,0.6,0.6h8.8c0.3,0,0.6-0.3,0.6-0.6V2.4C10,2.1,9.8,1.9,9.4,1.9z M9.4,8.5
	H0.6V2.4h8.9V8.5z"/>
<path d="M5,3C3.5,3,2.2,4.1,2.2,5.5C2.2,6.8,3.3,8,5,8c1.5,0,2.8-1.1,2.8-2.5C7.8,4.1,6.5,3,5,3z M5,7.4c-1.1,0-2.1-0.6-2.2-1.7
	C2.7,4.7,3.6,3.5,5,3.5c1.4,0,2.2,1.1,2.2,1.7C7.3,6.4,6.3,7.4,5,7.4z"/>
<path d="M3.3,1.3h3.3V0.7H3.3V1.3z"/>
</svg>
