<?xml version="1.0" encoding="utf-8"?>
<!-- Generator: Adobe Illustrator 21.1.0, SVG Export Plug-In . SVG Version: 6.00 Build 0)  -->
<svg version="1.1" id="pillar" xmlns="http://www.w3.org/2000/svg" xmlns:xlink="http://www.w3.org/1999/xlink" x="0px" y="0px"
	 viewBox="0 0 10 10" style="enable-background:new 0 0 10 10;" xml:space="preserve">
<rect x="5.2" y="5.5" width="1.6" height="4.1"/>
<rect x="1.9" y="5.5" width="0.8" height="4.1"/>
<path d="M8.3,0.4L8.3,0.4l-6.6,0l0,0C0.7,0.5,0,1.2,0,2.2c0,0.9,0.7,1.6,1.6,1.7c0.3,0,1.1-0.1,1.1-0.9c0-0.5-0.4-0.9-0.8-0.9l0-0.5
	c0.4,0,0.7,0.2,0.9,0.4C3,2.3,3.2,2.7,3.2,3c0,0.7-0.5,1.2-1.3,1.3V5h6.2V4.4c-0.3,0-0.6-0.1-0.8-0.3C7,3.8,6.8,3.5,6.8,3
	c0-0.4,0.1-0.7,0.4-1c0.2-0.3,0.6-0.4,0.9-0.4l0,0.5c-0.2,0-0.4,0.1-0.6,0.3C7.4,2.6,7.3,2.8,7.3,3c0,0.3,0.1,0.5,0.3,0.6
	c0.2,0.1,0.5,0.2,0.7,0.2c0.9,0,1.6-0.8,1.6-1.7C10,1.2,9.3,0.5,8.3,0.4z"/>
<rect x="7.3" y="5.5" width="0.8" height="4.1"/>
<rect x="3.2" y="5.5" width="1.6" height="4.1"/>
</svg>
