<?xml version="1.0" encoding="utf-8"?>
<!-- Generator: Adobe Illustrator 21.1.0, SVG Export Plug-In . SVG Version: 6.00 Build 0)  -->
<svg version="1.1" id="plant" xmlns="http://www.w3.org/2000/svg" xmlns:xlink="http://www.w3.org/1999/xlink" x="0px" y="0px"
	 viewBox="0 0 10 10" style="enable-background:new 0 0 10 10;" xml:space="preserve">
<path id="plant_1_" d="M4.3,2.8c0.4,0.3,0.6,1.3,0.7,1.9h0.4c0.1-0.6,0.3-1.2,0.6-1.4c2.2,0.8,2-1.5,2.7-3C7.1,1,4.5,0.2,5.4,2.9
	C6,1.8,6.7,1.4,8.2,0.6c-1.4,0.8-2.6,2-3,3.3C5,3.4,4.8,3,4.6,2.6C5.1,0.2,3.9-0.1,1.2,0C2.2,1.2,1.2,3.1,4.3,2.8L4.3,2.8z M3.3,10
	L1.5,6.6l0-1.7h7.3l0,1.7L6.9,10H3.3z"/>
</svg>
