<?xml version="1.0" encoding="utf-8"?>
<!-- Generator: Adobe Illustrator 21.1.0, SVG Export Plug-In . SVG Version: 6.00 Build 0)  -->
<svg version="1.1" id="tables-view" xmlns="http://www.w3.org/2000/svg" xmlns:xlink="http://www.w3.org/1999/xlink" x="0px"
	 y="0px" viewBox="0 0 10 10" style="enable-background:new 0 0 10 10;" xml:space="preserve">
<path id="tables-view_1_" d="M9.9,2.7c-0.1,0-0.2,0-0.2,0.1L9.2,5.8H8.1l0-0.5h0c0.1,0,0.1,0,0.1-0.1c0,0,0-0.1,0-0.1L8.2,3.9
	c0-0.1-0.1-0.1-0.2-0.1H6.7V3.2c0.2-0.1,0.3-0.2,0.3-0.4V2.2c0-0.1-0.1-0.1-0.2-0.1H6.3c-0.1,0-0.2,0.1-0.2,0.1v0.5
	c0,0.2,0.1,0.4,0.3,0.4v0.5H5.6V2.2c0-0.3-0.2-0.5-0.4-0.5V0.8c0-0.1-0.1-0.1-0.2-0.1c-0.1,0-0.2,0.1-0.2,0.1v0.9
	C4.6,1.8,4.4,2,4.4,2.2v1.5H3.6V3.2c0.2-0.1,0.3-0.2,0.3-0.4V2.2c0-0.1-0.1-0.1-0.2-0.1H3.1C3,2.1,2.9,2.2,2.9,2.2v0.5
	c0,0.2,0.1,0.4,0.3,0.4v0.5H1.9c-0.1,0-0.1,0.1-0.2,0.1L1.7,5.1c0,0,0,0.1,0.1,0.1c0,0,0.1,0.1,0.1,0.1h0.1l0,0.5H0.8L0.3,2.8
	c0-0.1-0.1-0.1-0.2-0.1C0,2.7,0,2.8,0,2.9l0.5,3v3.3c0,0.1,0.1,0.1,0.2,0.1c0.1,0,0.2-0.1,0.2-0.1V6.7h1L1.7,8.6c0,0,0,0.1,0.1,0.1
	c0,0,0.1,0,0.1,0c0.2,0,0.3,0,0.5-0.1v0.5c0,0.1,0.1,0.1,0.2,0.1c0.1,0,0.2-0.1,0.2-0.1V8.5c0,0,0,0,0,0c0.2-0.1,0.3-0.2,0.5-0.2
	v0.9c0,0.1,0.1,0.1,0.2,0.1c0.1,0,0.2-0.1,0.2-0.1V8.3c0.2,0,0.4,0.1,0.5,0.2C4.3,8.6,4.6,8.7,5,8.7c0.4,0,0.6-0.1,0.8-0.2
	C6,8.4,6.1,8.4,6.4,8.3v0.9c0,0.1,0.1,0.1,0.2,0.1c0.1,0,0.1-0.1,0.1-0.1V8.3c0.2,0,0.4,0.1,0.5,0.2c0,0,0,0,0.1,0v0.7
	c0,0.1,0.1,0.1,0.2,0.1c0.1,0,0.2-0.1,0.2-0.1V8.7c0.1,0,0.3,0.1,0.5,0.1c0.1,0,0.1,0,0.1,0c0,0,0-0.1,0-0.1L8.2,6.7h1v2.5
	c0,0.1,0.1,0.1,0.2,0.1c0.1,0,0.2-0.1,0.2-0.1V5.9l0.5-3C10,2.8,9.9,2.7,9.9,2.7z M1.9,6.4H0.8V6.1h1.1L1.9,6.4z M6.4,2.4h0.3v0.3
	c0,0.1-0.1,0.2-0.1,0.2c-0.1,0-0.2-0.1-0.2-0.2V2.4z M4.7,2.2C4.7,2.1,4.9,2,5,2c0.1,0,0.3,0.1,0.3,0.3v1.5H4.7V2.2z M3.2,2.4h0.3
	v0.3c0,0.1-0.1,0.2-0.2,0.2c-0.1,0-0.2-0.1-0.2-0.2V2.4z M7.3,5.3h0.5l0.1,3.2c-0.2,0-0.4-0.1-0.5-0.2C7.2,8.1,7,8,6.5,8
	C6.1,8,5.9,8.1,5.7,8.3C5.5,8.3,5.3,8.4,5,8.4c-0.3,0-0.5-0.1-0.7-0.2C4.1,8.1,3.9,8,3.5,8S2.8,8.1,2.6,8.3c0,0-0.1,0-0.1,0.1
	c-0.1,0-0.2,0.1-0.4,0.1l0.1-3.2h4.4c0.1,0,0.1-0.1,0.1-0.1c0-0.1-0.1-0.2-0.1-0.2H2l0-0.9h5.9l0,0.9H7.3C7.2,4.9,7.1,5,7.1,5.1
	C7.1,5.2,7.2,5.3,7.3,5.3z M9.2,6.4h-1l0-0.3h1.1V6.4z"/>
</svg>
