<?xml version="1.0" encoding="utf-8"?>
<!-- Generator: Adobe Illustrator 21.1.0, SVG Export Plug-In . SVG Version: 6.00 Build 0)  -->
<svg version="1.1" id="table" xmlns="http://www.w3.org/2000/svg" xmlns:xlink="http://www.w3.org/1999/xlink" x="0px" y="0px"
	 viewBox="0 0 10 10" style="enable-background:new 0 0 10 10;" xml:space="preserve">
<path id="table_1_" d="M4.8,0.6c-1.2,0-2.3,0-2.5,0L0,2.6v0.6c0,0.2,0.1,0.4,0.4,0.4v4.8c0,1,0,0.9,0.8,0.9c0.2,0,0.4-0.2,0.4-0.4
	V3.7h6.9V9c0,0.4,0.5,0.4,0.8,0.4c0.4,0,0.3-0.5,0.3-0.9V3.7c0.3,0,0.4-0.2,0.4-0.4V2.6l-1.9-2C8,0.6,6.3,0.6,4.8,0.6z M2,4v3.2
	c0,0.2,0.1,0.3,0.3,0.3h0.4c0.2,0,0.3-0.1,0.3-0.3V4H2z M7.1,4v3.2c0,0.2,0.1,0.3,0.3,0.3h0.4C7.9,7.5,8,7.4,8,7.2V4H7.1z"/>
</svg>
