<?xml version="1.0" encoding="utf-8"?>
<!-- Generator: Adobe Illustrator 21.1.0, SVG Export Plug-In . SVG Version: 6.00 Build 0)  -->
<svg version="1.1" id="user" xmlns="http://www.w3.org/2000/svg" xmlns:xlink="http://www.w3.org/1999/xlink" x="0px" y="0px"
	 viewBox="0 0 10 10" style="enable-background:new 0 0 10 10;" xml:space="preserve">
<path id="user_1_" d="M5,5.3c1.4,0,2.5-1.2,2.5-2.6C7.5,1.2,6.4,0,5,0S2.5,1.2,2.5,2.6C2.5,4.1,3.6,5.3,5,5.3z M5,0.6
	c1.1,0,1.9,0.9,1.9,2.1C6.9,3.8,6,4.8,5,4.8s-1.9-1-1.9-2.2C3.1,1.5,3.9,0.6,5,0.6z M8.1,7C7.4,6.3,6.5,5.9,5.5,5.9h-1
	C3.5,5.9,2.7,6.3,2,7S1,8.7,1,9.7C0.9,9.9,1,10,1.2,10h7.7C9,10,9.1,9.9,9.1,9.7C9.1,8.7,8.7,7.7,8.1,7z M1.4,9.4c0.1-1.7,1.4-3,3-3
	h1.1c1.6,0,2.9,1.3,3,3H1.4z"/>
</svg>
